<?xml version="1.0" encoding="UTF-8" standalone="no"?>
<!-- Generator: Adobe Illustrator 25.4.2, SVG Export Plug-In . SVG Version: 6.00 Build 0)  -->

<svg
   version="1.1"
   id="Ebene_1"
   x="0px"
   y="0px"
   width="220"
   height="35"
   viewBox="0 0 220 35"
   xml:space="preserve"
   sodipodi:docname="hslu_logo.svg"
   xmlns:inkscape="http://www.inkscape.org/namespaces/inkscape"
   xmlns:sodipodi="http://sodipodi.sourceforge.net/DTD/sodipodi-0.dtd"
   xmlns="http://www.w3.org/2000/svg"
   xmlns:svg="http://www.w3.org/2000/svg"><defs
   id="defs4" /><sodipodi:namedview
   id="namedview4"
   pagecolor="#ffffff"
   bordercolor="#000000"
   borderopacity="0.25"
   inkscape:showpageshadow="2"
   inkscape:pageopacity="0.0"
   inkscape:pagecheckerboard="0"
   inkscape:deskcolor="#d1d1d1" />&#10;&#10;&#10;&#10;<g
   id="g4"><path
     d="M 18.2,2.5 V 14.7 H 8.5 V 2.5 H 0 V 34.4 H 8.5 V 22.1 h 9.7 v 12.4 h 8.5 V 2.5 Z M 40.9,35 c 7.4,0 11.8,-3.8 11.8,-10 0,-4.4 -2,-7.1 -6.9,-9.1 L 41.5,14 c -2.1,-0.9 -2.7,-1.5 -2.7,-2.7 0,-1.4 1.4,-2.4 3.6,-2.4 3.4,0 6.2,1.7 7,1.7 0.5,0 0.8,-0.2 1,-0.7 L 52.3,4.4 C 48.9,2.8 45.7,2 42.2,2 35.1,2 30.5,5.8 30.5,11.4 c 0,4.4 2,7.2 6.4,9.2 l 5.1,2.3 c 1.7,0.7 2.4,1.5 2.4,2.6 0,1.7 -1.3,2.6 -3.8,2.6 -3.9,0 -7.3,-1.8 -8,-1.8 -0.5,0 -0.9,0.3 -1,0.8 L 30,32.7 c 4.1,1.6 7.4,2.3 10.9,2.3 z m 16,-0.5 h 20.4 v -6.1 c 0,-0.8 -0.4,-1.2 -1.2,-1.2 H 65.4 V 2.5 H 56.9 Z M 92.3,35 c 8.9,0 13.3,-4.6 13.3,-14 V 2.5 h -8.5 v 17.7 c 0,5.2 -1.3,7.2 -4.8,7.2 -3.4,0 -4.8,-2 -4.8,-7.2 V 2.5 H 79 V 21 c 0.1,9.4 4.5,14 13.3,14 z"
     id="path1" /><path
     d="m 116,34.6 c 0.7,0 1.5,-0.4 1.9,-0.9 v 0 c 0.1,0.4 0.4,0.8 1.1,0.8 h 0.6 c 0.2,0 0.3,-0.1 0.3,-0.2 v -0.7 c 0,-0.2 -0.1,-0.2 -0.2,-0.2 h -0.1 c -0.2,0 -0.2,-0.1 -0.2,-0.4 v -4.5 c 0,-0.2 -0.1,-0.3 -0.3,-0.3 h -0.9 c -0.2,0 -0.3,0.1 -0.3,0.2 v 0.4 c -0.3,-0.4 -1,-0.8 -1.6,-0.8 -1.5,0 -2.8,1.2 -2.8,3.4 -0.1,1.7 0.7,3.2 2.5,3.2 z m 0.4,-1.3 c -1,0 -1.4,-0.9 -1.4,-2 0,-1.4 0.7,-2 1.5,-2 0.5,0 1,0.3 1.3,0.6 v 2.6 c -0.3,0.4 -0.8,0.8 -1.4,0.8 z m 4.9,1.1 h 0.9 c 0.2,0 0.3,-0.1 0.3,-0.3 V 30 c 0.4,-0.4 1.1,-0.6 1.5,-0.6 0.7,0 1,0.4 1,1.2 v 3.5 c 0,0.2 0.1,0.3 0.3,0.3 h 0.9 c 0.2,0 0.3,-0.1 0.3,-0.3 v -3.8 c 0,-1.5 -0.7,-2.3 -2.1,-2.3 -0.7,0 -1.5,0.3 -2.1,0.8 v -0.4 c 0,-0.2 -0.1,-0.3 -0.3,-0.3 h -0.8 c -0.2,0 -0.3,0.1 -0.3,0.3 v 5.7 c 0.1,0.2 0.2,0.3 0.4,0.3 z m 9.2,0.2 c 0.6,0 1.4,-0.3 1.8,-0.8 v 0.4 c 0,0.2 0.1,0.3 0.3,0.3 h 0.8 c 0.2,0 0.3,-0.1 0.3,-0.3 V 26 c 0,-0.2 -0.1,-0.3 -0.3,-0.3 h -0.9 c -0.2,0 -0.3,0.1 -0.3,0.3 v 2.7 c -0.3,-0.4 -1,-0.6 -1.5,-0.6 -1.7,0 -2.8,1.4 -2.8,3.4 -0.1,1.8 1,3.1 2.6,3.1 z m 0.4,-1.3 c -0.9,0 -1.4,-0.8 -1.4,-2.1 0,-1.2 0.6,-2 1.5,-2 0.5,0 1,0.3 1.2,0.6 v 2.8 c -0.3,0.4 -0.9,0.7 -1.3,0.7 z m 14.5,0.8 -3.1,-8.3 c -0.1,-0.2 -0.2,-0.2 -0.4,-0.2 h -1 c -0.2,0 -0.3,0.1 -0.4,0.3 l -3.1,8.3 c -0.1,0.2 0,0.3 0.2,0.3 h 1.1 c 0.2,0 0.3,-0.1 0.4,-0.3 l 0.7,-1.9 h 3.2 l 0.6,1.9 c 0.1,0.2 0.2,0.3 0.4,0.3 h 1.2 c 0.2,-0.1 0.2,-0.2 0.2,-0.4 z M 140.1,31 141,28.4 c 0.1,-0.4 0.2,-0.6 0.3,-0.9 v 0 c 0.1,0.2 0.2,0.5 0.3,0.9 l 0.9,2.6 z m 6.5,3.4 h 0.9 c 0.2,0 0.3,-0.1 0.3,-0.3 V 30 c 0.3,-0.4 0.8,-0.6 1.2,-0.6 0.1,0 0.2,0 0.4,0 0.2,0 0.2,0 0.3,-0.2 l 0.1,-0.9 c 0,-0.1 0,-0.2 -0.1,-0.2 -0.1,-0.1 -0.2,-0.1 -0.4,-0.1 -0.6,0 -1.1,0.3 -1.6,0.9 v -0.5 c 0,-0.2 -0.1,-0.3 -0.3,-0.3 h -0.8 c -0.2,0 -0.3,0.1 -0.3,0.3 V 34 c 0,0.3 0.1,0.4 0.3,0.4 z m 6.7,0.2 c 0.5,0 1,-0.1 1.4,-0.3 0.2,-0.1 0.2,-0.2 0.2,-0.3 l -0.1,-0.6 c 0,-0.2 -0.1,-0.2 -0.3,-0.1 -0.3,0.1 -0.5,0.2 -0.8,0.2 -0.6,0 -0.8,-0.3 -0.8,-1.2 v -2.9 h 1.5 c 0.2,0 0.3,-0.1 0.3,-0.3 v -0.6 c 0,-0.2 -0.1,-0.3 -0.3,-0.3 h -1.5 v -1.4 c 0,-0.2 -0.1,-0.3 -0.3,-0.3 h -1.1 c -0.2,0 -0.3,0.1 -0.3,0.4 v 1.4 h -0.6 c -0.2,0 -0.3,0.1 -0.3,0.3 V 29 c 0,0.3 0,0.3 0.3,0.3 h 0.6 v 2.8 c 0.2,1.9 0.7,2.5 2.1,2.5 z m 4.4,0 c 1.5,0 2.5,-0.8 2.5,-2 0,-0.7 -0.4,-1.4 -1.2,-1.7 l -1.2,-0.5 c -0.4,-0.2 -0.6,-0.4 -0.6,-0.7 0,-0.4 0.3,-0.6 0.8,-0.6 0.5,0 1.1,0.1 1.4,0.3 0.1,0.1 0.3,0 0.3,-0.1 l 0.2,-0.7 c 0.1,-0.2 0,-0.2 -0.1,-0.3 -0.6,-0.3 -1.2,-0.4 -1.9,-0.4 -1.4,0 -2.3,0.8 -2.3,1.8 0,0.8 0.5,1.4 1.3,1.8 l 1,0.4 c 0.6,0.2 0.8,0.4 0.8,0.8 0,0.4 -0.4,0.7 -1,0.7 -0.5,0 -0.9,-0.1 -1.6,-0.4 -0.2,-0.1 -0.3,0 -0.3,0.1 l -0.2,0.7 c -0.1,0.1 0,0.2 0.1,0.3 0.6,0.3 1.3,0.5 2,0.5 z"
     id="path2" /><path
     d="m 116.5,21.8 c 1.9,0 3.2,-1.3 3.2,-3.3 0,-2.1 -1.1,-3.3 -3.1,-3.3 -1.9,0 -3.2,1.3 -3.2,3.3 0,2.1 1.1,3.3 3.1,3.3 z m 0,-1.2 c -1,0 -1.5,-0.8 -1.5,-2.1 0,-1.3 0.6,-2 1.5,-2 0.9,0 1.5,0.7 1.5,2.1 0,1.2 -0.6,2 -1.5,2 z m 5,1.1 h 0.9 c 0.3,0 0.3,-0.1 0.3,-0.4 v -4.7 h 1.5 c 0.2,0 0.3,-0.1 0.3,-0.2 v -0.7 c 0,-0.2 -0.1,-0.2 -0.3,-0.2 h -1.5 v -0.6 c 0,-0.5 0.2,-0.9 0.9,-0.9 0.3,0 0.7,0.1 0.9,0.2 0.2,0.1 0.3,0 0.3,-0.2 l 0.1,-0.5 c 0.1,-0.3 0.1,-0.4 -0.1,-0.5 -0.4,-0.2 -0.9,-0.3 -1.4,-0.3 -1.7,0 -2.3,0.9 -2.3,2.4 v 0.3 h -0.8 c -0.2,0 -0.2,0.1 -0.2,0.3 v 0.6 c 0,0.3 0,0.3 0.3,0.3 h 0.7 v 4.8 c 0.1,0.1 0.2,0.3 0.4,0.3 z m 13.7,-0.4 -3.1,-8.3 c -0.1,-0.2 -0.2,-0.2 -0.4,-0.2 h -1 c -0.2,0 -0.3,0.1 -0.4,0.3 l -3.1,8.3 c -0.1,0.2 0,0.3 0.2,0.3 h 1.1 c 0.2,0 0.3,-0.1 0.4,-0.3 l 0.7,-1.9 h 3.2 l 0.6,1.9 c 0.1,0.2 0.2,0.3 0.4,0.3 h 1.2 c 0.2,0 0.3,-0.2 0.2,-0.4 z m -5.2,-3.1 0.9,-2.6 c 0.1,-0.4 0.2,-0.6 0.3,-0.9 v 0 c 0.1,0.2 0.2,0.5 0.3,0.9 l 0.9,2.6 z m 6.5,6 h 0.9 c 0.2,0 0.3,-0.1 0.3,-0.3 v -2.7 c 0.4,0.4 0.9,0.6 1.6,0.6 1.7,0 2.8,-1.4 2.8,-3.4 0,-1.9 -1.1,-3.2 -2.7,-3.2 -0.7,0 -1.4,0.3 -1.8,0.8 v -0.4 c 0,-0.2 -0.1,-0.2 -0.3,-0.2 h -0.8 c -0.2,0 -0.3,0.1 -0.3,0.3 v 8.2 c 0,0.2 0.1,0.3 0.3,0.3 z m 2.5,-3.6 c -0.5,0 -1,-0.3 -1.3,-0.6 v -2.8 c 0.3,-0.3 0.9,-0.6 1.3,-0.6 0.9,0 1.4,0.8 1.4,2 0.1,1.1 -0.5,2 -1.4,2 z m 4.6,3.6 h 0.9 c 0.2,0 0.3,-0.1 0.3,-0.3 v -2.7 c 0.4,0.4 0.9,0.6 1.6,0.6 1.7,0 2.8,-1.4 2.8,-3.4 0,-1.9 -1.1,-3.2 -2.7,-3.2 -0.7,0 -1.4,0.3 -1.8,0.8 v -0.4 c 0,-0.2 -0.1,-0.2 -0.3,-0.2 h -0.8 c -0.2,0 -0.3,0.1 -0.3,0.3 v 8.2 c 0,0.2 0.1,0.3 0.3,0.3 z m 2.6,-3.6 c -0.5,0 -1,-0.3 -1.3,-0.6 v -2.8 c 0.3,-0.3 0.9,-0.6 1.3,-0.6 0.9,0 1.4,0.8 1.4,2 0.1,1.1 -0.5,2 -1.4,2 z m 4.6,1.1 h 1 c 0.2,0 0.3,-0.1 0.3,-0.3 v -8.3 c 0,-0.2 -0.1,-0.3 -0.3,-0.3 h -0.9 c -0.2,0 -0.3,0.1 -0.3,0.3 v 8.3 c -0.1,0.2 0,0.3 0.2,0.3 z m 3.6,-7.2 c 0.4,0 0.9,-0.3 0.9,-0.8 0,-0.5 -0.4,-0.8 -0.9,-0.8 -0.5,0 -0.9,0.3 -0.9,0.8 0,0.5 0.4,0.8 0.9,0.8 z m -0.5,7.2 h 0.9 c 0.2,0 0.3,-0.1 0.3,-0.3 v -5.7 c 0,-0.2 -0.1,-0.3 -0.3,-0.3 h -0.9 c -0.2,0 -0.3,0.1 -0.3,0.3 v 5.7 c 0,0.2 0.1,0.3 0.3,0.3 z m 5.7,0.1 c 0.8,0 1.6,-0.2 2.2,-0.4 0.2,-0.1 0.2,-0.2 0.2,-0.4 l -0.2,-0.7 c 0,-0.2 -0.1,-0.2 -0.3,-0.1 -0.5,0.2 -1,0.3 -1.6,0.3 -1,0 -1.8,-0.7 -1.9,-1.7 h 3.8 c 0.3,0 0.4,-0.1 0.4,-0.4 v -0.2 c 0,-1.9 -1,-3.1 -2.7,-3.1 -1.9,0 -3.2,1.3 -3.2,3.3 0.1,2.1 1.3,3.4 3.3,3.4 z m -1.6,-4 c 0.1,-0.9 0.7,-1.4 1.4,-1.4 0.7,0 1.2,0.5 1.2,1.3 v 0.1 z m 7.9,4 c 0.6,0 1.4,-0.3 1.8,-0.8 v 0.4 c 0,0.2 0.1,0.3 0.3,0.3 h 0.8 c 0.2,0 0.3,-0.1 0.3,-0.3 v -8.2 c 0,-0.2 -0.1,-0.3 -0.3,-0.3 h -0.9 c -0.2,0 -0.3,0.1 -0.3,0.3 v 2.7 c -0.3,-0.4 -1,-0.6 -1.5,-0.6 -1.7,0 -2.8,1.4 -2.8,3.4 -0.2,1.9 0.9,3.1 2.6,3.1 z m 0.3,-1.3 c -0.9,0 -1.4,-0.8 -1.4,-2.1 0,-1.2 0.6,-2 1.5,-2 0.5,0 1,0.3 1.2,0.6 v 2.8 c -0.3,0.5 -0.9,0.7 -1.3,0.7 z m 9.6,1.3 c 1.9,0 3.3,-1.1 3.3,-2.8 0,-1.1 -0.5,-1.8 -1.7,-2.4 L 176,15.9 c -0.6,-0.3 -0.9,-0.7 -0.9,-1.1 0,-0.6 0.5,-1 1.3,-1 0.5,0 1.1,0.1 1.7,0.4 0.2,0.1 0.4,0.1 0.4,-0.1 l 0.3,-0.8 c 0.1,-0.2 0,-0.3 -0.2,-0.4 -0.7,-0.3 -1.4,-0.5 -2.3,-0.5 -1.7,0 -3,1 -3,2.5 0,0.9 0.5,1.8 1.5,2.3 l 1.7,0.8 c 0.7,0.3 0.9,0.7 0.9,1.1 0,0.7 -0.7,1.2 -1.6,1.2 -0.6,0 -1.2,-0.1 -2,-0.4 -0.2,-0.1 -0.4,0 -0.4,0.2 l -0.3,0.8 c -0.1,0.2 0,0.3 0.2,0.4 0.8,0.4 1.5,0.5 2.5,0.5 z m 7.3,0 c 0.7,0 1.3,-0.1 1.9,-0.4 0.2,-0.1 0.2,-0.2 0.2,-0.4 L 185,20.4 c 0,-0.1 -0.1,-0.2 -0.3,-0.1 -0.5,0.2 -0.9,0.3 -1.4,0.3 -1.1,0 -1.7,-0.8 -1.7,-2.1 0,-1.3 0.7,-2 1.8,-2 0.5,0 0.9,0.1 1.2,0.3 0.2,0.1 0.3,0.1 0.3,-0.1 l 0.2,-0.7 c 0,-0.2 0,-0.3 -0.1,-0.3 -0.5,-0.2 -1.1,-0.4 -1.7,-0.4 -2,0 -3.2,1.3 -3.2,3.4 0,1.9 1.1,3.1 3,3.1 z m 4,-7.3 c 0.4,0 0.9,-0.3 0.9,-0.8 0,-0.5 -0.4,-0.8 -0.9,-0.8 -0.5,0 -0.9,0.3 -0.9,0.8 0,0.5 0.5,0.8 0.9,0.8 z m -0.4,7.2 h 0.9 c 0.2,0 0.3,-0.1 0.3,-0.3 v -5.7 c 0,-0.2 -0.1,-0.3 -0.3,-0.3 h -0.9 c -0.2,0 -0.3,0.1 -0.3,0.3 v 5.7 c -0.1,0.2 0,0.3 0.3,0.3 z m 5.6,0.1 c 0.8,0 1.6,-0.2 2.2,-0.4 0.2,-0.1 0.2,-0.2 0.2,-0.4 l -0.2,-0.7 c 0,-0.2 -0.1,-0.2 -0.3,-0.1 -0.5,0.2 -1,0.3 -1.6,0.3 -1,0 -1.8,-0.7 -1.9,-1.7 h 3.8 c 0.3,0 0.4,-0.1 0.4,-0.4 v -0.2 c 0,-1.9 -1,-3.1 -2.7,-3.1 -1.9,0 -3.2,1.3 -3.2,3.3 0.1,2.1 1.3,3.4 3.3,3.4 z m -1.6,-4 c 0.1,-0.9 0.7,-1.4 1.4,-1.4 0.7,0 1.2,0.5 1.2,1.3 v 0.1 z m 5.7,3.9 h 0.9 c 0.2,0 0.3,-0.1 0.3,-0.3 v -4.1 c 0.4,-0.4 1.1,-0.6 1.5,-0.6 0.7,0 1,0.4 1,1.2 v 3.5 c 0,0.2 0.1,0.3 0.3,0.3 h 0.9 c 0.2,0 0.3,-0.1 0.3,-0.3 v -3.8 c 0,-1.5 -0.7,-2.3 -2.1,-2.3 -0.7,0 -1.5,0.3 -2.1,0.8 v -0.4 c 0,-0.2 -0.1,-0.3 -0.3,-0.3 h -0.8 c -0.2,0 -0.3,0.1 -0.3,0.3 v 5.7 c 0.1,0.1 0.3,0.3 0.4,0.3 z m 9.6,0.1 c 0.7,0 1.3,-0.1 1.9,-0.4 0.2,-0.1 0.2,-0.2 0.2,-0.4 l -0.2,-0.6 c 0,-0.1 -0.1,-0.2 -0.3,-0.1 -0.5,0.2 -0.9,0.3 -1.4,0.3 -1.1,0 -1.7,-0.8 -1.7,-2.1 0,-1.3 0.7,-2 1.8,-2 0.5,0 0.9,0.1 1.2,0.3 0.2,0.1 0.3,0.1 0.3,-0.1 L 208,16 c 0,-0.2 0,-0.3 -0.1,-0.3 -0.5,-0.2 -1.1,-0.4 -1.7,-0.4 -2,0 -3.2,1.3 -3.2,3.4 -0.1,1.9 1.1,3.1 3,3.1 z m 5.9,0 c 0.8,0 1.6,-0.2 2.2,-0.4 0.2,-0.1 0.2,-0.2 0.2,-0.4 l -0.2,-0.7 c 0,-0.2 -0.1,-0.2 -0.3,-0.1 -0.5,0.2 -1,0.3 -1.6,0.3 -1,0 -1.8,-0.7 -1.9,-1.7 h 3.8 c 0.3,0 0.4,-0.1 0.4,-0.4 v -0.2 c 0,-1.9 -1,-3.1 -2.7,-3.1 -1.9,0 -3.2,1.3 -3.2,3.3 0.1,2.1 1.3,3.4 3.3,3.4 z m -1.6,-4 c 0.1,-0.9 0.7,-1.4 1.4,-1.4 0.7,0 1.2,0.5 1.2,1.3 v 0.1 z m 7.2,4 c 1.5,0 2.5,-0.8 2.5,-2 0,-0.7 -0.4,-1.4 -1.2,-1.7 l -1.2,-0.5 c -0.4,-0.2 -0.6,-0.4 -0.6,-0.7 0,-0.4 0.3,-0.6 0.8,-0.6 0.5,0 1.1,0.1 1.4,0.3 0.1,0.1 0.3,0 0.3,-0.1 l 0.2,-0.7 c 0.1,-0.2 0,-0.2 -0.1,-0.3 -0.6,-0.3 -1.2,-0.4 -1.9,-0.4 -1.4,0 -2.3,0.8 -2.3,1.8 0,0.8 0.5,1.4 1.3,1.8 l 1,0.4 c 0.6,0.2 0.8,0.4 0.8,0.8 0,0.4 -0.4,0.7 -1,0.7 -0.5,0 -0.9,-0.1 -1.6,-0.4 -0.2,-0.1 -0.3,0 -0.3,0.1 l -0.2,0.7 c -0.1,0.1 0,0.2 0.1,0.3 0.6,0.4 1.3,0.5 2,0.5 z"
     id="path3" /><path
     d="m 114.1,8.9 h 4.6 c 0.2,0 0.3,-0.1 0.3,-0.3 V 7.8 c 0,-0.2 -0.1,-0.3 -0.3,-0.3 h -3.3 V 0.3 C 115.4,0 115.3,0 115.1,0 h -1 c -0.2,0 -0.3,0.1 -0.3,0.3 v 8.2 c -0.1,0.3 0,0.4 0.3,0.4 z M 122,9 c 0.7,0 1.4,-0.3 2.1,-0.8 v 0.4 c 0,0.2 0.1,0.3 0.3,0.3 h 0.9 c 0.2,0 0.3,-0.1 0.3,-0.3 V 2.9 c 0,-0.2 -0.1,-0.3 -0.3,-0.3 h -0.9 c -0.2,0 -0.3,0.1 -0.3,0.3 V 7 c -0.4,0.4 -1.1,0.7 -1.5,0.7 -0.7,0 -1,-0.4 -1,-1.3 V 2.9 c 0,-0.2 -0.1,-0.3 -0.3,-0.3 h -0.9 c -0.2,0 -0.3,0.1 -0.3,0.3 V 6.7 C 120,8.2 120.7,9 122,9 Z m 7.9,0 c 0.7,0 1.3,-0.1 1.9,-0.4 C 132,8.5 132,8.4 132,8.2 l -0.2,-0.6 c 0,-0.1 -0.1,-0.2 -0.3,-0.1 -0.5,0.2 -0.9,0.3 -1.4,0.3 -1.1,0 -1.7,-0.8 -1.7,-2.1 0,-1.3 0.7,-2 1.8,-2 0.5,0 0.9,0.1 1.2,0.3 0.2,0.1 0.3,0.1 0.3,-0.1 l 0.2,-0.7 c 0,-0.2 0,-0.3 -0.1,-0.3 -0.5,-0.2 -1.1,-0.4 -1.7,-0.4 -2,0 -3.2,1.3 -3.2,3.4 -0.1,1.9 1.1,3.1 3,3.1 z m 5.9,0 c 0.8,0 1.6,-0.2 2.2,-0.4 0.2,-0.1 0.2,-0.2 0.2,-0.4 L 138,7.6 c 0,-0.2 -0.1,-0.2 -0.3,-0.1 -0.5,0.2 -1,0.3 -1.6,0.3 -1,0 -1.8,-0.7 -1.9,-1.7 h 3.8 c 0.3,0 0.4,-0.1 0.4,-0.4 V 5.5 c 0,-1.9 -1,-3.1 -2.7,-3.1 -1.9,0 -3.2,1.3 -3.2,3.3 0,2.1 1.3,3.3 3.3,3.3 z m -1.6,-3.9 c 0.1,-0.9 0.7,-1.4 1.4,-1.4 0.7,0 1.2,0.5 1.2,1.3 v 0.1 z m 5.7,3.8 h 0.9 c 0.2,0 0.3,-0.1 0.3,-0.3 V 4.4 c 0.3,-0.4 0.8,-0.6 1.2,-0.6 0.1,0 0.2,0 0.4,0 0.2,0 0.2,0 0.3,-0.2 l 0.1,-0.9 c 0,-0.1 0,-0.2 -0.1,-0.2 -0.1,-0.1 -0.2,-0.1 -0.4,-0.1 -0.6,0 -1.1,0.3 -1.6,0.9 V 2.8 c 0,-0.2 -0.1,-0.3 -0.3,-0.3 h -0.8 c -0.2,0 -0.3,0.1 -0.3,0.3 v 5.6 c 0,0.4 0.1,0.5 0.3,0.5 z m 4.4,0 h 0.9 c 0.2,0 0.3,-0.1 0.3,-0.3 V 4.4 c 0.4,-0.4 1.1,-0.6 1.5,-0.6 0.7,0 1,0.4 1,1.2 v 3.5 c 0,0.2 0.1,0.3 0.3,0.3 h 0.9 c 0.2,0 0.3,-0.1 0.3,-0.3 V 4.7 c 0,-1.5 -0.7,-2.3 -2.1,-2.3 -0.7,0 -1.5,0.3 -2.1,0.8 V 2.8 c 0,-0.2 -0.1,-0.3 -0.3,-0.3 h -0.8 c -0.2,0 -0.3,0.1 -0.3,0.3 v 5.7 c 0.1,0.3 0.2,0.4 0.4,0.4 z m 9.8,0.1 c 0.8,0 1.6,-0.2 2.2,-0.4 0.2,-0.1 0.2,-0.2 0.2,-0.4 l -0.2,-0.7 c 0,-0.2 -0.1,-0.2 -0.3,-0.1 -0.5,0.2 -1,0.3 -1.6,0.3 -1,0 -1.8,-0.7 -1.9,-1.7 h 3.8 c 0.3,0 0.4,-0.1 0.4,-0.4 V 5.5 c 0,-1.9 -1,-3.1 -2.7,-3.1 -1.9,0 -3.2,1.3 -3.2,3.3 0,2.1 1.3,3.3 3.3,3.3 z m -1.6,-3.9 c 0.1,-0.9 0.7,-1.4 1.4,-1.4 0.7,0 1.2,0.5 1.2,1.3 V 5.1 Z M 164.4,9 C 166.8,9 168,7.6 168,4.9 V 0.3 C 168,0.1 167.9,0 167.7,0 h -1 c -0.2,0 -0.3,0.1 -0.3,0.3 v 4.4 c 0,2 -0.6,2.9 -1.9,2.9 -1.4,0 -2,-0.8 -2,-2.9 V 0.3 C 162.5,0.1 162.4,0 162.2,0 h -1 c -0.2,0 -0.3,0.1 -0.3,0.3 V 4.9 C 160.8,7.7 162,9 164.4,9 Z m 5.4,-0.1 h 0.9 c 0.2,0 0.3,-0.1 0.3,-0.3 V 4.4 c 0.4,-0.4 1.1,-0.6 1.5,-0.6 0.7,0 1,0.4 1,1.2 v 3.5 c 0,0.2 0.1,0.3 0.3,0.3 h 0.9 c 0.2,0 0.3,-0.1 0.3,-0.3 V 4.7 c 0,-1.5 -0.7,-2.3 -2.1,-2.3 -0.7,0 -1.5,0.3 -2.1,0.8 V 2.8 c 0,-0.2 -0.1,-0.3 -0.3,-0.3 h -0.8 c -0.2,0 -0.3,0.1 -0.3,0.3 v 5.7 c 0.1,0.3 0.3,0.4 0.4,0.4 z m 7.6,-7.2 c 0.4,0 0.9,-0.3 0.9,-0.8 0,-0.5 -0.4,-0.8 -0.9,-0.8 -0.5,0 -0.9,0.3 -0.9,0.8 0.1,0.5 0.5,0.8 0.9,0.8 z M 177,8.9 h 0.9 c 0.2,0 0.3,-0.1 0.3,-0.3 V 2.9 c 0,-0.2 -0.1,-0.3 -0.3,-0.3 H 177 c -0.2,0 -0.3,0.1 -0.3,0.3 v 5.7 c 0,0.2 0.1,0.3 0.3,0.3 z m 4.8,0 h 0.7 c 0.2,0 0.3,-0.1 0.4,-0.2 L 185.2,3 c 0.1,-0.2 0,-0.3 -0.2,-0.3 h -1 c -0.2,0 -0.3,0.1 -0.4,0.3 l -1,3 c -0.1,0.4 -0.2,0.8 -0.3,1.1 v 0 C 182.2,6.8 182.1,6.4 182,6 l -1,-3 c -0.1,-0.2 -0.2,-0.3 -0.4,-0.3 h -1.1 c -0.2,0 -0.3,0.1 -0.2,0.3 l 2.2,5.8 c 0,0 0.1,0.1 0.3,0.1 z m 7,0.1 c 0.8,0 1.6,-0.2 2.2,-0.4 0.2,-0.1 0.2,-0.2 0.2,-0.4 L 191,7.6 c 0,-0.2 -0.1,-0.2 -0.3,-0.1 -0.5,0.2 -1,0.3 -1.6,0.3 -1,0 -1.8,-0.7 -1.9,-1.7 h 3.8 c 0.3,0 0.4,-0.1 0.4,-0.4 V 5.5 c 0,-1.9 -1,-3.1 -2.7,-3.1 -1.9,0 -3.2,1.3 -3.2,3.3 0.1,2.1 1.3,3.3 3.3,3.3 z m -1.5,-3.9 c 0.1,-0.9 0.7,-1.4 1.4,-1.4 0.7,0 1.2,0.5 1.2,1.3 v 0.1 z m 5.7,3.8 h 0.9 c 0.2,0 0.3,-0.1 0.3,-0.3 V 4.4 c 0.3,-0.4 0.8,-0.6 1.2,-0.6 0.1,0 0.2,0 0.4,0 0.2,0 0.2,0 0.3,-0.2 l 0.1,-0.9 c 0,-0.1 0,-0.2 -0.1,-0.2 -0.1,-0.1 -0.2,-0.1 -0.4,-0.1 -0.6,0 -1.1,0.3 -1.6,0.9 V 2.8 c 0,-0.2 -0.1,-0.3 -0.3,-0.3 H 193 c -0.2,0 -0.3,0.1 -0.3,0.3 v 5.6 c 0,0.4 0.1,0.5 0.3,0.5 z m 5.9,0.1 c 1.5,0 2.5,-0.8 2.5,-2 0,-0.7 -0.4,-1.4 -1.2,-1.7 L 199,4.8 c -0.4,-0.2 -0.6,-0.4 -0.6,-0.7 0,-0.4 0.3,-0.6 0.8,-0.6 0.5,0 1.1,0.1 1.4,0.3 0.1,0.1 0.3,0 0.3,-0.1 L 201.1,3 c 0.1,-0.2 0,-0.2 -0.1,-0.3 -0.6,-0.3 -1.2,-0.4 -1.9,-0.4 -1.4,0 -2.3,0.8 -2.3,1.8 0,0.8 0.5,1.4 1.3,1.8 l 1,0.4 c 0.6,0.2 0.8,0.4 0.8,0.8 0,0.4 -0.4,0.7 -1,0.7 -0.5,0 -0.9,-0.1 -1.6,-0.4 -0.2,-0.1 -0.3,0 -0.3,0.1 l -0.2,0.7 c -0.1,0.1 0,0.2 0.1,0.3 0.7,0.4 1.4,0.5 2,0.5 z m 4.5,-7.3 c 0.4,0 0.9,-0.3 0.9,-0.8 0,-0.5 -0.4,-0.8 -0.9,-0.8 -0.5,0 -0.9,0.3 -0.9,0.8 0,0.5 0.5,0.8 0.9,0.8 z M 203,8.9 h 0.9 c 0.2,0 0.3,-0.1 0.3,-0.3 V 2.9 c 0,-0.2 -0.1,-0.3 -0.3,-0.3 H 203 c -0.2,0 -0.3,0.1 -0.3,0.3 v 5.7 c -0.1,0.2 0,0.3 0.3,0.3 z m 5.2,0.1 c 0.5,0 1,-0.1 1.4,-0.3 0.2,-0.1 0.2,-0.2 0.2,-0.3 l -0.1,-0.6 c 0,-0.2 -0.1,-0.2 -0.3,-0.1 -0.3,0.1 -0.5,0.2 -0.8,0.2 -0.6,0 -0.8,-0.3 -0.8,-1.2 V 3.8 h 1.5 c 0.2,0 0.3,-0.1 0.3,-0.3 V 2.8 c 0,-0.2 -0.1,-0.3 -0.3,-0.3 h -1.5 V 1.1 c 0,-0.2 -0.1,-0.3 -0.3,-0.3 h -1.1 c -0.2,0 -0.3,0.1 -0.3,0.4 v 1.4 h -0.6 c -0.2,0 -0.3,0.1 -0.3,0.3 v 0.6 c 0,0.3 0,0.3 0.3,0.3 h 0.6 v 2.8 c 0.1,1.8 0.6,2.4 2.1,2.4 z m 7.9,-6.4 h -1 c -0.2,0 -0.3,0.1 -0.4,0.3 L 213.3,7.1 212,2.8 c -0.1,-0.2 -0.2,-0.3 -0.4,-0.3 h -1.2 c -0.2,0 -0.3,0.1 -0.2,0.3 l 2.3,6 -0.3,0.6 c -0.3,0.6 -0.6,0.9 -1.2,0.9 -0.3,0 -0.5,-0.1 -0.7,-0.1 -0.1,0 -0.2,0.1 -0.2,0.2 l -0.1,0.7 c 0,0.2 0,0.3 0.2,0.3 0.2,0.1 0.6,0.1 1,0.1 1.3,0 2,-0.5 2.6,-2 l 2.5,-6.7 c 0.1,-0.1 0,-0.2 -0.2,-0.2 z"
     id="path4" /></g>&#10;</svg>
