<?xml version="1.0" encoding="UTF-8" standalone="no"?><!DOCTYPE svg PUBLIC "-//W3C//DTD SVG 1.1//EN" "http://www.w3.org/Graphics/SVG/1.1/DTD/svg11.dtd"><svg width="100%" height="100%" viewBox="0 0 385 255" version="1.1" xmlns="http://www.w3.org/2000/svg" xmlns:xlink="http://www.w3.org/1999/xlink" xml:space="preserve" xmlns:serif="http://www.serif.com/" style="fill-rule:evenodd;clip-rule:evenodd;"><path d="M262.062,7.062c-0,-2.76 -2.241,-5 -5,-5l-150,-0c-2.76,-0 -5,2.24 -5,5l-0,240c-0,2.759 2.24,5 5,5l150,-0c2.759,-0 5,-2.241 5,-5l-0,-240Z" style="fill:#fff;stroke:#000;stroke-width:1px;"/><g><g><path d="M192.738,19.05l0.792,-0l-0,-5.376l-0.792,-0l-0,-1.512l3.684,-0c0.4,-0 0.754,0.056 1.062,0.168c0.308,0.112 0.568,0.264 0.78,0.456c0.212,0.192 0.372,0.422 0.48,0.69c0.108,0.268 0.162,0.558 0.162,0.87l-0,0.144c-0,0.48 -0.134,0.864 -0.402,1.152c-0.268,0.288 -0.606,0.488 -1.014,0.6l-0,0.216c0.408,0.112 0.746,0.314 1.014,0.606c0.268,0.292 0.402,0.678 0.402,1.158l-0,0.144c-0,0.312 -0.054,0.602 -0.162,0.87c-0.108,0.268 -0.268,0.5 -0.48,0.696c-0.212,0.196 -0.472,0.35 -0.78,0.462c-0.308,0.112 -0.662,0.168 -1.062,0.168l-3.684,-0l-0,-1.512Zm2.376,-0l1.152,-0c0.336,-0 0.608,-0.072 0.816,-0.216c0.208,-0.144 0.312,-0.384 0.312,-0.72l-0,-0.072c-0,-0.336 -0.104,-0.576 -0.312,-0.72c-0.208,-0.144 -0.48,-0.216 -0.816,-0.216l-1.152,-0l-0,1.944Zm-0,-3.456l1.152,-0c0.336,-0 0.608,-0.07 0.816,-0.21c0.208,-0.14 0.312,-0.378 0.312,-0.714l-0,-0.072c-0,-0.336 -0.104,-0.574 -0.312,-0.714c-0.208,-0.14 -0.48,-0.21 -0.816,-0.21l-1.152,-0l-0,1.92Z" style="fill-rule:nonzero;"/><path d="M200.178,14.61l2.52,-0l-0,0.864l0.216,-0c0.112,-0.328 0.302,-0.582 0.57,-0.762c0.268,-0.18 0.59,-0.27 0.966,-0.27c0.592,-0 1.068,0.186 1.428,0.558c0.36,0.372 0.54,0.938 0.54,1.698l-0,0.264l-1.56,0.144l-0,-0.168c-0,-0.328 -0.084,-0.59 -0.252,-0.786c-0.168,-0.196 -0.42,-0.294 -0.756,-0.294c-0.336,-0 -0.6,0.116 -0.792,0.348c-0.192,0.232 -0.288,0.564 -0.288,0.996l-0,1.92l1.368,-0l-0,1.44l-4.104,-0l-0,-1.44l1.224,-0l-0,-3.072l-1.08,-0l-0,-1.44Z" style="fill-rule:nonzero;"/><path d="M211.662,19.698c-0.16,0.376 -0.384,0.642 -0.672,0.798c-0.288,0.156 -0.624,0.234 -1.008,0.234c-0.36,-0 -0.698,-0.068 -1.014,-0.204c-0.316,-0.136 -0.594,-0.336 -0.834,-0.6c-0.24,-0.264 -0.43,-0.584 -0.57,-0.96c-0.14,-0.376 -0.21,-0.804 -0.21,-1.284l-0,-0.192c-0,-0.472 0.068,-0.896 0.204,-1.272c0.136,-0.376 0.32,-0.696 0.552,-0.96c0.232,-0.264 0.502,-0.466 0.81,-0.606c0.308,-0.14 0.638,-0.21 0.99,-0.21c0.424,-0 0.766,0.072 1.026,0.216c0.26,0.144 0.466,0.368 0.618,0.672l0.216,-0l-0,-0.72l1.512,-0l-0,4.152c-0,0.24 0.108,0.36 0.324,0.36l0.228,-0l-0,1.44l-1.032,-0c-0.272,-0 -0.494,-0.08 -0.666,-0.24c-0.172,-0.16 -0.258,-0.368 -0.258,-0.624l-0.216,-0Zm-1.344,-0.408c0.44,-0 0.792,-0.146 1.056,-0.438c0.264,-0.292 0.396,-0.69 0.396,-1.194l-0,-0.144c-0,-0.504 -0.132,-0.902 -0.396,-1.194c-0.264,-0.292 -0.616,-0.438 -1.056,-0.438c-0.44,-0 -0.792,0.146 -1.056,0.438c-0.264,0.292 -0.396,0.69 -0.396,1.194l-0,0.144c-0,0.504 0.132,0.902 0.396,1.194c0.264,0.292 0.616,0.438 1.056,0.438Z" style="fill-rule:nonzero;"/><path d="M216.666,20.562l-1.512,-0l-0,-5.952l1.512,-0l-0,0.888l0.216,-0c0.136,-0.336 0.356,-0.596 0.66,-0.78c0.304,-0.184 0.66,-0.276 1.068,-0.276c0.288,-0 0.558,0.046 0.81,0.138c0.252,0.092 0.474,0.234 0.666,0.426c0.192,0.192 0.342,0.436 0.45,0.732c0.108,0.296 0.162,0.648 0.162,1.056l-0,3.768l-1.512,-0l-0,-3.384c-0,-0.424 -0.102,-0.758 -0.306,-1.002c-0.204,-0.244 -0.498,-0.366 -0.882,-0.366c-0.448,-0 -0.782,0.15 -1.002,0.45c-0.22,0.3 -0.33,0.702 -0.33,1.206l-0,3.096Z" style="fill-rule:nonzero;"/><path d="M228.306,18.378c-0.136,0.704 -0.458,1.272 -0.966,1.704c-0.508,0.432 -1.186,0.648 -2.034,0.648c-0.44,-0 -0.85,-0.068 -1.23,-0.204c-0.38,-0.136 -0.71,-0.332 -0.99,-0.588c-0.28,-0.256 -0.5,-0.572 -0.66,-0.948c-0.16,-0.376 -0.24,-0.804 -0.24,-1.284l-0,-0.144c-0,-0.48 0.08,-0.912 0.24,-1.296c0.16,-0.384 0.382,-0.712 0.666,-0.984c0.284,-0.272 0.616,-0.48 0.996,-0.624c0.38,-0.144 0.786,-0.216 1.218,-0.216c0.832,-0 1.506,0.216 2.022,0.648c0.516,0.432 0.842,1 0.978,1.704l-1.488,0.384c-0.048,-0.352 -0.2,-0.656 -0.456,-0.912c-0.256,-0.256 -0.616,-0.384 -1.08,-0.384c-0.216,-0 -0.42,0.04 -0.612,0.12c-0.192,0.08 -0.36,0.194 -0.504,0.342c-0.144,0.148 -0.258,0.328 -0.342,0.54c-0.084,0.212 -0.126,0.45 -0.126,0.714l-0,0.072c-0,0.264 0.042,0.498 0.126,0.702c0.084,0.204 0.198,0.374 0.342,0.51c0.144,0.136 0.312,0.238 0.504,0.306c0.192,0.068 0.396,0.102 0.612,0.102c0.464,-0 0.818,-0.116 1.062,-0.348c0.244,-0.232 0.402,-0.544 0.474,-0.936l1.488,0.372Z" style="fill-rule:nonzero;"/><path d="M231.378,20.562l-1.512,-0l-0,-8.4l1.512,-0l-0,3.408l0.216,-0c0.152,-0.36 0.376,-0.638 0.672,-0.834c0.296,-0.196 0.66,-0.294 1.092,-0.294c0.296,-0 0.568,0.048 0.816,0.144c0.248,0.096 0.464,0.24 0.648,0.432c0.184,0.192 0.328,0.438 0.432,0.738c0.104,0.3 0.156,0.654 0.156,1.062l-0,3.744l-1.512,-0l-0,-3.384c-0,-0.424 -0.102,-0.758 -0.306,-1.002c-0.204,-0.244 -0.498,-0.366 -0.882,-0.366c-0.448,-0 -0.782,0.15 -1.002,0.45c-0.22,0.3 -0.33,0.702 -0.33,1.206l-0,3.096Z" style="fill-rule:nonzero;"/><path d="M238.518,18.078c0.008,0.176 0.05,0.338 0.126,0.486c0.076,0.148 0.18,0.276 0.312,0.384c0.132,0.108 0.284,0.192 0.456,0.252c0.172,0.06 0.354,0.09 0.546,0.09c0.376,-0 0.664,-0.066 0.864,-0.198c0.2,-0.132 0.344,-0.29 0.432,-0.474l1.296,0.72c-0.072,0.152 -0.172,0.31 -0.3,0.474c-0.128,0.164 -0.294,0.314 -0.498,0.45c-0.204,0.136 -0.452,0.248 -0.744,0.336c-0.292,0.088 -0.634,0.132 -1.026,0.132c-0.448,-0 -0.856,-0.072 -1.224,-0.216c-0.368,-0.144 -0.686,-0.352 -0.954,-0.624c-0.268,-0.272 -0.476,-0.604 -0.624,-0.996c-0.148,-0.392 -0.222,-0.836 -0.222,-1.332l-0,-0.072c-0,-0.456 0.078,-0.872 0.234,-1.248c0.156,-0.376 0.37,-0.696 0.642,-0.96c0.272,-0.264 0.59,-0.47 0.954,-0.618c0.364,-0.148 0.754,-0.222 1.17,-0.222c0.512,-0 0.952,0.09 1.32,0.27c0.368,0.18 0.672,0.408 0.912,0.684c0.24,0.276 0.416,0.58 0.528,0.912c0.112,0.332 0.168,0.654 0.168,0.966l-0,0.804l-4.368,-0Zm1.428,-2.268c-0.384,-0 -0.696,0.098 -0.936,0.294c-0.24,0.196 -0.396,0.422 -0.468,0.678l2.808,-0c-0.048,-0.28 -0.198,-0.512 -0.45,-0.696c-0.252,-0.184 -0.57,-0.276 -0.954,-0.276Z" style="fill-rule:nonzero;"/><path d="M246.426,16.29c-0,0.192 0.1,0.33 0.3,0.414c0.2,0.084 0.564,0.154 1.092,0.21c0.608,0.064 1.104,0.246 1.488,0.546c0.384,0.3 0.576,0.718 0.576,1.254l-0,0.072c-0,0.592 -0.216,1.064 -0.648,1.416c-0.432,0.352 -1.04,0.528 -1.824,0.528c-0.464,-0 -0.86,-0.06 -1.188,-0.18c-0.328,-0.12 -0.6,-0.27 -0.816,-0.45c-0.216,-0.18 -0.382,-0.38 -0.498,-0.6c-0.116,-0.22 -0.194,-0.434 -0.234,-0.642l1.392,-0.456c0.064,0.256 0.198,0.48 0.402,0.672c0.204,0.192 0.518,0.288 0.942,0.288c0.376,-0 0.634,-0.058 0.774,-0.174c0.14,-0.116 0.21,-0.242 0.21,-0.378c-0,-0.08 -0.018,-0.154 -0.054,-0.222c-0.036,-0.068 -0.102,-0.132 -0.198,-0.192c-0.096,-0.06 -0.226,-0.11 -0.39,-0.15c-0.164,-0.04 -0.37,-0.072 -0.618,-0.096c-0.672,-0.056 -1.206,-0.23 -1.602,-0.522c-0.396,-0.292 -0.594,-0.722 -0.594,-1.29l-0,-0.072c-0,-0.296 0.064,-0.556 0.192,-0.78c0.128,-0.224 0.296,-0.414 0.504,-0.57c0.208,-0.156 0.448,-0.274 0.72,-0.354c0.272,-0.08 0.552,-0.12 0.84,-0.12c0.376,-0 0.702,0.046 0.978,0.138c0.276,0.092 0.51,0.212 0.702,0.36c0.192,0.148 0.348,0.312 0.468,0.492c0.12,0.18 0.212,0.354 0.276,0.522l-1.368,0.552c-0.072,-0.216 -0.196,-0.386 -0.372,-0.51c-0.176,-0.124 -0.404,-0.186 -0.684,-0.186c-0.256,-0 -0.448,0.046 -0.576,0.138c-0.128,0.092 -0.192,0.206 -0.192,0.342Z" style="fill-rule:nonzero;"/></g></g><path d="M182.062,7.062c-0,-2.76 -2.241,-5 -5,-5l-70,-0c-2.76,-0 -5,2.24 -5,5l-0,140c-0,2.759 2.24,5 5,5l70,-0c2.759,-0 5,-2.241 5,-5l-0,-140Z" style="fill:#f5f5f5;stroke:#000;stroke-width:1px;"/><g><g><path d="M126.898,19.29c0.304,-0 0.554,-0.046 0.75,-0.138c0.196,-0.092 0.348,-0.216 0.456,-0.372c0.108,-0.156 0.182,-0.336 0.222,-0.54c0.04,-0.204 0.06,-0.414 0.06,-0.63l-0,-0.216l1.584,-0l-0,0.216c-0,1 -0.262,1.77 -0.786,2.31c-0.524,0.54 -1.286,0.81 -2.286,0.81c-0.96,-0 -1.72,-0.292 -2.28,-0.876c-0.56,-0.584 -0.84,-1.436 -0.84,-2.556l-0,-1.872c-0,-0.536 0.072,-1.018 0.216,-1.446c0.144,-0.428 0.352,-0.788 0.624,-1.08c0.272,-0.292 0.6,-0.516 0.984,-0.672c0.384,-0.156 0.816,-0.234 1.296,-0.234c0.496,-0 0.936,0.072 1.32,0.216c0.384,0.144 0.706,0.352 0.966,0.624c0.26,0.272 0.456,0.6 0.588,0.984c0.132,0.384 0.198,0.816 0.198,1.296l-0,0.216l-1.584,-0l-0,-0.216c-0,-0.2 -0.024,-0.4 -0.072,-0.6c-0.048,-0.2 -0.128,-0.38 -0.24,-0.54c-0.112,-0.16 -0.264,-0.29 -0.456,-0.39c-0.192,-0.1 -0.432,-0.15 -0.72,-0.15c-0.264,-0 -0.492,0.05 -0.684,0.15c-0.192,0.1 -0.352,0.236 -0.48,0.408c-0.128,0.172 -0.222,0.372 -0.282,0.6c-0.06,0.228 -0.09,0.466 -0.09,0.714l-0,2.112c-0,0.272 0.028,0.522 0.084,0.75c0.056,0.228 0.144,0.426 0.264,0.594c0.12,0.168 0.278,0.298 0.474,0.39c0.196,0.092 0.434,0.138 0.714,0.138Z" style="fill-rule:nonzero;"/><path d="M131.446,19.122l2.088,-0l-0,-5.52l-2.016,-0l-0,-1.44l3.528,-0l-0,6.96l1.944,-0l-0,1.44l-5.544,-0l-0,-1.44Z" style="fill-rule:nonzero;"/><path d="M144.658,17.658c-0,0.496 -0.084,0.934 -0.252,1.314c-0.168,0.38 -0.396,0.7 -0.684,0.96c-0.288,0.26 -0.618,0.458 -0.99,0.594c-0.372,0.136 -0.762,0.204 -1.17,0.204c-0.408,-0 -0.798,-0.068 -1.17,-0.204c-0.372,-0.136 -0.702,-0.334 -0.99,-0.594c-0.288,-0.26 -0.516,-0.58 -0.684,-0.96c-0.168,-0.38 -0.252,-0.818 -0.252,-1.314l-0,-0.144c-0,-0.488 0.084,-0.922 0.252,-1.302c0.168,-0.38 0.396,-0.702 0.684,-0.966c0.288,-0.264 0.618,-0.464 0.99,-0.6c0.372,-0.136 0.762,-0.204 1.17,-0.204c0.408,-0 0.798,0.068 1.17,0.204c0.372,0.136 0.702,0.336 0.99,0.6c0.288,0.264 0.516,0.586 0.684,0.966c0.168,0.38 0.252,0.814 0.252,1.302l-0,0.144Zm-3.096,1.632c0.216,-0 0.42,-0.036 0.612,-0.108c0.192,-0.072 0.36,-0.176 0.504,-0.312c0.144,-0.136 0.258,-0.302 0.342,-0.498c0.084,-0.196 0.126,-0.418 0.126,-0.666l-0,-0.24c-0,-0.248 -0.042,-0.47 -0.126,-0.666c-0.084,-0.196 -0.198,-0.362 -0.342,-0.498c-0.144,-0.136 -0.312,-0.24 -0.504,-0.312c-0.192,-0.072 -0.396,-0.108 -0.612,-0.108c-0.216,-0 -0.42,0.036 -0.612,0.108c-0.192,0.072 -0.36,0.176 -0.504,0.312c-0.144,0.136 -0.258,0.302 -0.342,0.498c-0.084,0.196 -0.126,0.418 -0.126,0.666l-0,0.24c-0,0.248 0.042,0.47 0.126,0.666c0.084,0.196 0.198,0.362 0.342,0.498c0.144,0.136 0.312,0.24 0.504,0.312c0.192,0.072 0.396,0.108 0.612,0.108Z" style="fill-rule:nonzero;"/><path d="M147.682,20.562l-1.512,-0l-0,-5.952l1.512,-0l-0,0.888l0.216,-0c0.136,-0.336 0.356,-0.596 0.66,-0.78c0.304,-0.184 0.66,-0.276 1.068,-0.276c0.288,-0 0.558,0.046 0.81,0.138c0.252,0.092 0.474,0.234 0.666,0.426c0.192,0.192 0.342,0.436 0.45,0.732c0.108,0.296 0.162,0.648 0.162,1.056l-0,3.768l-1.512,-0l-0,-3.384c-0,-0.424 -0.102,-0.758 -0.306,-1.002c-0.204,-0.244 -0.498,-0.366 -0.882,-0.366c-0.448,-0 -0.782,0.15 -1.002,0.45c-0.22,0.3 -0.33,0.702 -0.33,1.206l-0,3.096Z" style="fill-rule:nonzero;"/><path d="M154.846,18.078c0.008,0.176 0.05,0.338 0.126,0.486c0.076,0.148 0.18,0.276 0.312,0.384c0.132,0.108 0.284,0.192 0.456,0.252c0.172,0.06 0.354,0.09 0.546,0.09c0.376,-0 0.664,-0.066 0.864,-0.198c0.2,-0.132 0.344,-0.29 0.432,-0.474l1.296,0.72c-0.072,0.152 -0.172,0.31 -0.3,0.474c-0.128,0.164 -0.294,0.314 -0.498,0.45c-0.204,0.136 -0.452,0.248 -0.744,0.336c-0.292,0.088 -0.634,0.132 -1.026,0.132c-0.448,-0 -0.856,-0.072 -1.224,-0.216c-0.368,-0.144 -0.686,-0.352 -0.954,-0.624c-0.268,-0.272 -0.476,-0.604 -0.624,-0.996c-0.148,-0.392 -0.222,-0.836 -0.222,-1.332l-0,-0.072c-0,-0.456 0.078,-0.872 0.234,-1.248c0.156,-0.376 0.37,-0.696 0.642,-0.96c0.272,-0.264 0.59,-0.47 0.954,-0.618c0.364,-0.148 0.754,-0.222 1.17,-0.222c0.512,-0 0.952,0.09 1.32,0.27c0.368,0.18 0.672,0.408 0.912,0.684c0.24,0.276 0.416,0.58 0.528,0.912c0.112,0.332 0.168,0.654 0.168,0.966l-0,0.804l-4.368,-0Zm1.428,-2.268c-0.384,-0 -0.696,0.098 -0.936,0.294c-0.24,0.196 -0.396,0.422 -0.468,0.678l2.808,-0c-0.048,-0.28 -0.198,-0.512 -0.45,-0.696c-0.252,-0.184 -0.57,-0.276 -0.954,-0.276Z" style="fill-rule:nonzero;"/></g></g><path d="M382.062,7.062c-0,-2.76 -2.241,-5 -5,-5l-110,-0c-2.76,-0 -5,2.24 -5,5l-0,240c-0,2.759 2.24,5 5,5l110,-0c2.759,-0 5,-2.241 5,-5l-0,-240Z" style="fill:#fff;stroke:#000;stroke-width:1px;"/><g><g><path d="M280.786,20.562l-2.76,-0l-0.384,-6.384l-0,-1.152l-0.288,-0l-0,1.152l-0.384,6.384l-2.76,-0l-0.288,-8.4l1.44,-0l0.192,6.384l-0,1.08l0.288,-0l-0,-1.08l0.384,-6.384l2.544,-0l0.384,6.384l-0,1.08l0.288,-0l-0,-1.08l0.192,-6.384l1.44,-0l-0.288,8.4Z" style="fill-rule:nonzero;"/><path d="M287.938,17.658c-0,0.496 -0.084,0.934 -0.252,1.314c-0.168,0.38 -0.396,0.7 -0.684,0.96c-0.288,0.26 -0.618,0.458 -0.99,0.594c-0.372,0.136 -0.762,0.204 -1.17,0.204c-0.408,-0 -0.798,-0.068 -1.17,-0.204c-0.372,-0.136 -0.702,-0.334 -0.99,-0.594c-0.288,-0.26 -0.516,-0.58 -0.684,-0.96c-0.168,-0.38 -0.252,-0.818 -0.252,-1.314l-0,-0.144c-0,-0.488 0.084,-0.922 0.252,-1.302c0.168,-0.38 0.396,-0.702 0.684,-0.966c0.288,-0.264 0.618,-0.464 0.99,-0.6c0.372,-0.136 0.762,-0.204 1.17,-0.204c0.408,-0 0.798,0.068 1.17,0.204c0.372,0.136 0.702,0.336 0.99,0.6c0.288,0.264 0.516,0.586 0.684,0.966c0.168,0.38 0.252,0.814 0.252,1.302l-0,0.144Zm-3.096,1.632c0.216,-0 0.42,-0.036 0.612,-0.108c0.192,-0.072 0.36,-0.176 0.504,-0.312c0.144,-0.136 0.258,-0.302 0.342,-0.498c0.084,-0.196 0.126,-0.418 0.126,-0.666l-0,-0.24c-0,-0.248 -0.042,-0.47 -0.126,-0.666c-0.084,-0.196 -0.198,-0.362 -0.342,-0.498c-0.144,-0.136 -0.312,-0.24 -0.504,-0.312c-0.192,-0.072 -0.396,-0.108 -0.612,-0.108c-0.216,-0 -0.42,0.036 -0.612,0.108c-0.192,0.072 -0.36,0.176 -0.504,0.312c-0.144,0.136 -0.258,0.302 -0.342,0.498c-0.084,0.196 -0.126,0.418 -0.126,0.666l-0,0.24c-0,0.248 0.042,0.47 0.126,0.666c0.084,0.196 0.198,0.362 0.342,0.498c0.144,0.136 0.312,0.24 0.504,0.312c0.192,0.072 0.396,0.108 0.612,0.108Z" style="fill-rule:nonzero;"/><path d="M289.162,14.61l2.52,-0l-0,0.864l0.216,-0c0.112,-0.328 0.302,-0.582 0.57,-0.762c0.268,-0.18 0.59,-0.27 0.966,-0.27c0.592,-0 1.068,0.186 1.428,0.558c0.36,0.372 0.54,0.938 0.54,1.698l-0,0.264l-1.56,0.144l-0,-0.168c-0,-0.328 -0.084,-0.59 -0.252,-0.786c-0.168,-0.196 -0.42,-0.294 -0.756,-0.294c-0.336,-0 -0.6,0.116 -0.792,0.348c-0.192,0.232 -0.288,0.564 -0.288,0.996l-0,1.92l1.368,-0l-0,1.44l-4.104,-0l-0,-1.44l1.224,-0l-0,-3.072l-1.08,-0l-0,-1.44Z" style="fill-rule:nonzero;"/><path d="M298.786,16.794l0.288,-0l1.584,-2.184l1.656,-0l-0,0.072l-1.92,2.724l-0,0.216l2.112,2.868l-0,0.072l-1.728,-0l-1.704,-2.328l-0.288,-0l-0,2.328l-1.512,-0l-0,-8.4l1.512,-0l-0,4.632Z" style="fill-rule:nonzero;"/><path d="M304.246,19.122l2.016,-0l-0,-3.072l-1.872,-0l-0,-1.44l3.384,-0l-0,4.512l1.728,-0l-0,1.44l-5.256,-0l-0,-1.44Zm3.9,-6.276c-0,0.16 -0.03,0.31 -0.09,0.45c-0.06,0.14 -0.142,0.26 -0.246,0.36c-0.104,0.1 -0.226,0.18 -0.366,0.24c-0.14,0.06 -0.286,0.09 -0.438,0.09c-0.16,-0 -0.308,-0.03 -0.444,-0.09c-0.136,-0.06 -0.256,-0.14 -0.36,-0.24c-0.104,-0.1 -0.186,-0.22 -0.246,-0.36c-0.06,-0.14 -0.09,-0.29 -0.09,-0.45c-0,-0.16 0.03,-0.31 0.09,-0.45c0.06,-0.14 0.142,-0.26 0.246,-0.36c0.104,-0.1 0.224,-0.18 0.36,-0.24c0.136,-0.06 0.284,-0.09 0.444,-0.09c0.152,-0 0.298,0.03 0.438,0.09c0.14,0.06 0.262,0.14 0.366,0.24c0.104,0.1 0.186,0.22 0.246,0.36c0.06,0.14 0.09,0.29 0.09,0.45Z" style="fill-rule:nonzero;"/><path d="M312.994,20.562l-1.512,-0l-0,-5.952l1.512,-0l-0,0.888l0.216,-0c0.136,-0.336 0.356,-0.596 0.66,-0.78c0.304,-0.184 0.66,-0.276 1.068,-0.276c0.288,-0 0.558,0.046 0.81,0.138c0.252,0.092 0.474,0.234 0.666,0.426c0.192,0.192 0.342,0.436 0.45,0.732c0.108,0.296 0.162,0.648 0.162,1.056l-0,3.768l-1.512,-0l-0,-3.384c-0,-0.424 -0.102,-0.758 -0.306,-1.002c-0.204,-0.244 -0.498,-0.366 -0.882,-0.366c-0.448,-0 -0.782,0.15 -1.002,0.45c-0.22,0.3 -0.33,0.702 -0.33,1.206l-0,3.096Z" style="fill-rule:nonzero;"/><path d="M323.074,19.698l-0.216,-0c-0.064,0.136 -0.142,0.266 -0.234,0.39c-0.092,0.124 -0.212,0.234 -0.36,0.33c-0.148,0.096 -0.324,0.172 -0.528,0.228c-0.204,0.056 -0.45,0.084 -0.738,0.084c-0.368,-0 -0.71,-0.066 -1.026,-0.198c-0.316,-0.132 -0.592,-0.328 -0.828,-0.588c-0.236,-0.26 -0.42,-0.578 -0.552,-0.954c-0.132,-0.376 -0.198,-0.808 -0.198,-1.296l-0,-0.216c-0,-0.48 0.07,-0.908 0.21,-1.284c0.14,-0.376 0.332,-0.694 0.576,-0.954c0.244,-0.26 0.528,-0.458 0.852,-0.594c0.324,-0.136 0.666,-0.204 1.026,-0.204c0.48,-0 0.86,0.09 1.14,0.27c0.28,0.18 0.5,0.434 0.66,0.762l0.216,-0l-0,-0.864l1.512,-0l-0,7.416c-0,0.272 -0.086,0.496 -0.258,0.672c-0.172,0.176 -0.394,0.264 -0.666,0.264l-4.008,-0l-0,-1.44l3.096,-0c0.216,-0 0.324,-0.12 0.324,-0.36l-0,-1.464Zm-1.584,-0.408c0.472,-0 0.854,-0.15 1.146,-0.45c0.292,-0.3 0.438,-0.694 0.438,-1.182l-0,-0.144c-0,-0.488 -0.146,-0.882 -0.438,-1.182c-0.292,-0.3 -0.674,-0.45 -1.146,-0.45c-0.472,-0 -0.854,0.146 -1.146,0.438c-0.292,0.292 -0.438,0.69 -0.438,1.194l-0,0.144c-0,0.504 0.146,0.902 0.438,1.194c0.292,0.292 0.674,0.438 1.146,0.438Z" style="fill-rule:nonzero;"/><path d="M333.634,12.162l5.376,-0l-0,1.512l-3.792,-0l-0,1.92l3.72,-0l-0,1.512l-3.72,-0l-0,3.456l-1.584,-0l-0,-8.4Z" style="fill-rule:nonzero;"/><path d="M340.966,19.122l2.016,-0l-0,-3.072l-1.872,-0l-0,-1.44l3.384,-0l-0,4.512l1.728,-0l-0,1.44l-5.256,-0l-0,-1.44Zm3.9,-6.276c-0,0.16 -0.03,0.31 -0.09,0.45c-0.06,0.14 -0.142,0.26 -0.246,0.36c-0.104,0.1 -0.226,0.18 -0.366,0.24c-0.14,0.06 -0.286,0.09 -0.438,0.09c-0.16,-0 -0.308,-0.03 -0.444,-0.09c-0.136,-0.06 -0.256,-0.14 -0.36,-0.24c-0.104,-0.1 -0.186,-0.22 -0.246,-0.36c-0.06,-0.14 -0.09,-0.29 -0.09,-0.45c-0,-0.16 0.03,-0.31 0.09,-0.45c0.06,-0.14 0.142,-0.26 0.246,-0.36c0.104,-0.1 0.224,-0.18 0.36,-0.24c0.136,-0.06 0.284,-0.09 0.444,-0.09c0.152,-0 0.298,0.03 0.438,0.09c0.14,0.06 0.262,0.14 0.366,0.24c0.104,0.1 0.186,0.22 0.246,0.36c0.06,0.14 0.09,0.29 0.09,0.45Z" style="fill-rule:nonzero;"/><path d="M348.166,19.122l2.088,-0l-0,-5.52l-2.016,-0l-0,-1.44l3.528,-0l-0,6.96l1.944,-0l-0,1.44l-5.544,-0l-0,-1.44Z" style="fill-rule:nonzero;"/><path d="M356.878,18.078c0.008,0.176 0.05,0.338 0.126,0.486c0.076,0.148 0.18,0.276 0.312,0.384c0.132,0.108 0.284,0.192 0.456,0.252c0.172,0.06 0.354,0.09 0.546,0.09c0.376,-0 0.664,-0.066 0.864,-0.198c0.2,-0.132 0.344,-0.29 0.432,-0.474l1.296,0.72c-0.072,0.152 -0.172,0.31 -0.3,0.474c-0.128,0.164 -0.294,0.314 -0.498,0.45c-0.204,0.136 -0.452,0.248 -0.744,0.336c-0.292,0.088 -0.634,0.132 -1.026,0.132c-0.448,-0 -0.856,-0.072 -1.224,-0.216c-0.368,-0.144 -0.686,-0.352 -0.954,-0.624c-0.268,-0.272 -0.476,-0.604 -0.624,-0.996c-0.148,-0.392 -0.222,-0.836 -0.222,-1.332l-0,-0.072c-0,-0.456 0.078,-0.872 0.234,-1.248c0.156,-0.376 0.37,-0.696 0.642,-0.96c0.272,-0.264 0.59,-0.47 0.954,-0.618c0.364,-0.148 0.754,-0.222 1.17,-0.222c0.512,-0 0.952,0.09 1.32,0.27c0.368,0.18 0.672,0.408 0.912,0.684c0.24,0.276 0.416,0.58 0.528,0.912c0.112,0.332 0.168,0.654 0.168,0.966l-0,0.804l-4.368,-0Zm1.428,-2.268c-0.384,-0 -0.696,0.098 -0.936,0.294c-0.24,0.196 -0.396,0.422 -0.468,0.678l2.808,-0c-0.048,-0.28 -0.198,-0.512 -0.45,-0.696c-0.252,-0.184 -0.57,-0.276 -0.954,-0.276Z" style="fill-rule:nonzero;"/><path d="M364.786,16.29c-0,0.192 0.1,0.33 0.3,0.414c0.2,0.084 0.564,0.154 1.092,0.21c0.608,0.064 1.104,0.246 1.488,0.546c0.384,0.3 0.576,0.718 0.576,1.254l-0,0.072c-0,0.592 -0.216,1.064 -0.648,1.416c-0.432,0.352 -1.04,0.528 -1.824,0.528c-0.464,-0 -0.86,-0.06 -1.188,-0.18c-0.328,-0.12 -0.6,-0.27 -0.816,-0.45c-0.216,-0.18 -0.382,-0.38 -0.498,-0.6c-0.116,-0.22 -0.194,-0.434 -0.234,-0.642l1.392,-0.456c0.064,0.256 0.198,0.48 0.402,0.672c0.204,0.192 0.518,0.288 0.942,0.288c0.376,-0 0.634,-0.058 0.774,-0.174c0.14,-0.116 0.21,-0.242 0.21,-0.378c-0,-0.08 -0.018,-0.154 -0.054,-0.222c-0.036,-0.068 -0.102,-0.132 -0.198,-0.192c-0.096,-0.06 -0.226,-0.11 -0.39,-0.15c-0.164,-0.04 -0.37,-0.072 -0.618,-0.096c-0.672,-0.056 -1.206,-0.23 -1.602,-0.522c-0.396,-0.292 -0.594,-0.722 -0.594,-1.29l-0,-0.072c-0,-0.296 0.064,-0.556 0.192,-0.78c0.128,-0.224 0.296,-0.414 0.504,-0.57c0.208,-0.156 0.448,-0.274 0.72,-0.354c0.272,-0.08 0.552,-0.12 0.84,-0.12c0.376,-0 0.702,0.046 0.978,0.138c0.276,0.092 0.51,0.212 0.702,0.36c0.192,0.148 0.348,0.312 0.468,0.492c0.12,0.18 0.212,0.354 0.276,0.522l-1.368,0.552c-0.072,-0.216 -0.196,-0.386 -0.372,-0.51c-0.176,-0.124 -0.404,-0.186 -0.684,-0.186c-0.256,-0 -0.448,0.046 -0.576,0.138c-0.128,0.092 -0.192,0.206 -0.192,0.342Z" style="fill-rule:nonzero;"/></g></g><path d="M82.062,7.062c-0,-2.76 -2.241,-5 -5,-5l-70,-0c-2.76,-0 -5,2.24 -5,5l-0,240c-0,2.759 2.24,5 5,5l70,-0c2.759,-0 5,-2.241 5,-5l-0,-240Z" style="fill:#fff;stroke:#000;stroke-width:1px;"/><g><g><path d="M26.046,20.562l-1.584,-0l-0,-2.52c-0,-0.192 -0.05,-0.348 -0.15,-0.468c-0.1,-0.12 -0.266,-0.18 -0.498,-0.18l-1.824,-0l-0,3.168l-1.584,-0l-0,-8.4l3.216,-0c0.432,-0 0.812,0.06 1.14,0.18c0.328,0.12 0.602,0.286 0.822,0.498c0.22,0.212 0.388,0.458 0.504,0.738c0.116,0.28 0.174,0.58 0.174,0.9l-0,0.288c-0,0.344 -0.092,0.666 -0.276,0.966c-0.184,0.3 -0.468,0.53 -0.852,0.69l-0,0.216c0.28,0.032 0.502,0.14 0.666,0.324c0.164,0.184 0.246,0.416 0.246,0.696l-0,2.904Zm-4.056,-4.68l1.512,-0c0.384,-0 0.676,-0.09 0.876,-0.27c0.2,-0.18 0.3,-0.434 0.3,-0.762l-0,-0.144c-0,-0.28 -0.1,-0.522 -0.3,-0.726c-0.2,-0.204 -0.492,-0.306 -0.876,-0.306l-1.512,-0l-0,2.208Z" style="fill-rule:nonzero;"/><path d="M29.142,18.078c0.008,0.176 0.05,0.338 0.126,0.486c0.076,0.148 0.18,0.276 0.312,0.384c0.132,0.108 0.284,0.192 0.456,0.252c0.172,0.06 0.354,0.09 0.546,0.09c0.376,-0 0.664,-0.066 0.864,-0.198c0.2,-0.132 0.344,-0.29 0.432,-0.474l1.296,0.72c-0.072,0.152 -0.172,0.31 -0.3,0.474c-0.128,0.164 -0.294,0.314 -0.498,0.45c-0.204,0.136 -0.452,0.248 -0.744,0.336c-0.292,0.088 -0.634,0.132 -1.026,0.132c-0.448,-0 -0.856,-0.072 -1.224,-0.216c-0.368,-0.144 -0.686,-0.352 -0.954,-0.624c-0.268,-0.272 -0.476,-0.604 -0.624,-0.996c-0.148,-0.392 -0.222,-0.836 -0.222,-1.332l-0,-0.072c-0,-0.456 0.078,-0.872 0.234,-1.248c0.156,-0.376 0.37,-0.696 0.642,-0.96c0.272,-0.264 0.59,-0.47 0.954,-0.618c0.364,-0.148 0.754,-0.222 1.17,-0.222c0.512,-0 0.952,0.09 1.32,0.27c0.368,0.18 0.672,0.408 0.912,0.684c0.24,0.276 0.416,0.58 0.528,0.912c0.112,0.332 0.168,0.654 0.168,0.966l-0,0.804l-4.368,-0Zm1.428,-2.268c-0.384,-0 -0.696,0.098 -0.936,0.294c-0.24,0.196 -0.396,0.422 -0.468,0.678l2.808,-0c-0.048,-0.28 -0.198,-0.512 -0.45,-0.696c-0.252,-0.184 -0.57,-0.276 -0.954,-0.276Z" style="fill-rule:nonzero;"/><path d="M41.13,20.562l-1.512,-0l-0,-4.176c-0,-0.168 -0.042,-0.294 -0.126,-0.378c-0.084,-0.084 -0.194,-0.126 -0.33,-0.126c-0.16,-0 -0.286,0.048 -0.378,0.144c-0.092,0.096 -0.138,0.24 -0.138,0.432l-0,4.104l-1.512,-0l-0,-4.176c-0,-0.168 -0.046,-0.294 -0.138,-0.378c-0.092,-0.084 -0.202,-0.126 -0.33,-0.126c-0.144,-0 -0.264,0.048 -0.36,0.144c-0.096,0.096 -0.144,0.24 -0.144,0.432l-0,4.104l-1.512,-0l-0,-5.952l1.512,-0l-0,0.576l0.216,-0c0.048,-0.216 0.158,-0.394 0.33,-0.534c0.172,-0.14 0.398,-0.21 0.678,-0.21c0.264,-0 0.488,0.07 0.672,0.21c0.184,0.14 0.308,0.318 0.372,0.534l0.216,-0c0.064,-0.216 0.198,-0.394 0.402,-0.534c0.204,-0.14 0.458,-0.21 0.762,-0.21c0.4,-0 0.72,0.134 0.96,0.402c0.24,0.268 0.36,0.638 0.36,1.11l-0,4.608Z" style="fill-rule:nonzero;"/><path d="M48.33,17.658c-0,0.496 -0.084,0.934 -0.252,1.314c-0.168,0.38 -0.396,0.7 -0.684,0.96c-0.288,0.26 -0.618,0.458 -0.99,0.594c-0.372,0.136 -0.762,0.204 -1.17,0.204c-0.408,-0 -0.798,-0.068 -1.17,-0.204c-0.372,-0.136 -0.702,-0.334 -0.99,-0.594c-0.288,-0.26 -0.516,-0.58 -0.684,-0.96c-0.168,-0.38 -0.252,-0.818 -0.252,-1.314l-0,-0.144c-0,-0.488 0.084,-0.922 0.252,-1.302c0.168,-0.38 0.396,-0.702 0.684,-0.966c0.288,-0.264 0.618,-0.464 0.99,-0.6c0.372,-0.136 0.762,-0.204 1.17,-0.204c0.408,-0 0.798,0.068 1.17,0.204c0.372,0.136 0.702,0.336 0.99,0.6c0.288,0.264 0.516,0.586 0.684,0.966c0.168,0.38 0.252,0.814 0.252,1.302l-0,0.144Zm-3.096,1.632c0.216,-0 0.42,-0.036 0.612,-0.108c0.192,-0.072 0.36,-0.176 0.504,-0.312c0.144,-0.136 0.258,-0.302 0.342,-0.498c0.084,-0.196 0.126,-0.418 0.126,-0.666l-0,-0.24c-0,-0.248 -0.042,-0.47 -0.126,-0.666c-0.084,-0.196 -0.198,-0.362 -0.342,-0.498c-0.144,-0.136 -0.312,-0.24 -0.504,-0.312c-0.192,-0.072 -0.396,-0.108 -0.612,-0.108c-0.216,-0 -0.42,0.036 -0.612,0.108c-0.192,0.072 -0.36,0.176 -0.504,0.312c-0.144,0.136 -0.258,0.302 -0.342,0.498c-0.084,0.196 -0.126,0.418 -0.126,0.666l-0,0.24c-0,0.248 0.042,0.47 0.126,0.666c0.084,0.196 0.198,0.362 0.342,0.498c0.144,0.136 0.312,0.24 0.504,0.312c0.192,0.072 0.396,0.108 0.612,0.108Z" style="fill-rule:nonzero;"/><path d="M49.674,14.61l1.764,-0l-0,-2.448l1.512,-0l-0,2.448l2.148,-0l-0,1.44l-2.148,-0l-0,2.712c-0,0.24 0.108,0.36 0.324,0.36l1.608,-0l-0,1.44l-2.52,-0c-0.272,-0 -0.494,-0.088 -0.666,-0.264c-0.172,-0.176 -0.258,-0.4 -0.258,-0.672l-0,-3.576l-1.764,-0l-0,-1.44Z" style="fill-rule:nonzero;"/><path d="M58.518,18.078c0.008,0.176 0.05,0.338 0.126,0.486c0.076,0.148 0.18,0.276 0.312,0.384c0.132,0.108 0.284,0.192 0.456,0.252c0.172,0.06 0.354,0.09 0.546,0.09c0.376,-0 0.664,-0.066 0.864,-0.198c0.2,-0.132 0.344,-0.29 0.432,-0.474l1.296,0.72c-0.072,0.152 -0.172,0.31 -0.3,0.474c-0.128,0.164 -0.294,0.314 -0.498,0.45c-0.204,0.136 -0.452,0.248 -0.744,0.336c-0.292,0.088 -0.634,0.132 -1.026,0.132c-0.448,-0 -0.856,-0.072 -1.224,-0.216c-0.368,-0.144 -0.686,-0.352 -0.954,-0.624c-0.268,-0.272 -0.476,-0.604 -0.624,-0.996c-0.148,-0.392 -0.222,-0.836 -0.222,-1.332l-0,-0.072c-0,-0.456 0.078,-0.872 0.234,-1.248c0.156,-0.376 0.37,-0.696 0.642,-0.96c0.272,-0.264 0.59,-0.47 0.954,-0.618c0.364,-0.148 0.754,-0.222 1.17,-0.222c0.512,-0 0.952,0.09 1.32,0.27c0.368,0.18 0.672,0.408 0.912,0.684c0.24,0.276 0.416,0.58 0.528,0.912c0.112,0.332 0.168,0.654 0.168,0.966l-0,0.804l-4.368,-0Zm1.428,-2.268c-0.384,-0 -0.696,0.098 -0.936,0.294c-0.24,0.196 -0.396,0.422 -0.468,0.678l2.808,-0c-0.048,-0.28 -0.198,-0.512 -0.45,-0.696c-0.252,-0.184 -0.57,-0.276 -0.954,-0.276Z" style="fill-rule:nonzero;"/></g></g><path d="M342.062,157.062c-0,-2.76 -2.241,-5 -5,-5l-70,-0c-2.76,-0 -5,2.24 -5,5l-0,90c-0,2.759 2.24,5 5,5l70,-0c2.759,-0 5,-2.241 5,-5l-0,-90Z" style="fill:#f5f5f5;stroke:#666;stroke-width:1px;"/><g><g><path d="M288.314,164.73c-0,-0.336 -0.13,-0.628 -0.39,-0.876c-0.26,-0.248 -0.626,-0.372 -1.098,-0.372c-0.4,-0 -0.716,0.082 -0.948,0.246c-0.232,0.164 -0.348,0.386 -0.348,0.666c-0,0.144 0.028,0.274 0.084,0.39c0.056,0.116 0.154,0.22 0.294,0.312c0.14,0.092 0.324,0.174 0.552,0.246c0.228,0.072 0.518,0.14 0.87,0.204c0.88,0.16 1.552,0.428 2.016,0.804c0.464,0.376 0.696,0.932 0.696,1.668l-0,0.144c-0,0.392 -0.07,0.746 -0.21,1.062c-0.14,0.316 -0.342,0.586 -0.606,0.81c-0.264,0.224 -0.584,0.396 -0.96,0.516c-0.376,0.12 -0.8,0.18 -1.272,0.18c-0.552,-0 -1.038,-0.078 -1.458,-0.234c-0.42,-0.156 -0.77,-0.372 -1.05,-0.648c-0.28,-0.276 -0.492,-0.6 -0.636,-0.972c-0.144,-0.372 -0.216,-0.778 -0.216,-1.218l-0,-0.36l1.584,-0l-0,0.288c-0,0.504 0.146,0.906 0.438,1.206c0.292,0.3 0.746,0.45 1.362,0.45c0.48,-0 0.836,-0.104 1.068,-0.312c0.232,-0.208 0.348,-0.456 0.348,-0.744c-0,-0.136 -0.024,-0.266 -0.072,-0.39c-0.048,-0.124 -0.132,-0.236 -0.252,-0.336c-0.12,-0.1 -0.284,-0.19 -0.492,-0.27c-0.208,-0.08 -0.472,-0.148 -0.792,-0.204c-0.424,-0.072 -0.812,-0.166 -1.164,-0.282c-0.352,-0.116 -0.658,-0.27 -0.918,-0.462c-0.26,-0.192 -0.462,-0.432 -0.606,-0.72c-0.144,-0.288 -0.216,-0.64 -0.216,-1.056l-0,-0.072c-0,-0.344 0.07,-0.662 0.21,-0.954c0.14,-0.292 0.336,-0.546 0.588,-0.762c0.252,-0.216 0.556,-0.384 0.912,-0.504c0.356,-0.12 0.754,-0.18 1.194,-0.18c0.496,-0 0.936,0.07 1.32,0.21c0.384,0.14 0.706,0.33 0.966,0.57c0.26,0.24 0.456,0.516 0.588,0.828c0.132,0.312 0.198,0.64 0.198,0.984l-0,0.432l-1.584,-0l-0,-0.288Z" style="fill-rule:nonzero;"/><path d="M291.314,164.61l1.764,-0l-0,-2.448l1.512,-0l-0,2.448l2.148,-0l-0,1.44l-2.148,-0l-0,2.712c-0,0.24 0.108,0.36 0.324,0.36l1.608,-0l-0,1.44l-2.52,-0c-0.272,-0 -0.494,-0.088 -0.666,-0.264c-0.172,-0.176 -0.258,-0.4 -0.258,-0.672l-0,-3.576l-1.764,-0l-0,-1.44Z" style="fill-rule:nonzero;"/><path d="M302.678,169.698c-0.16,0.376 -0.384,0.642 -0.672,0.798c-0.288,0.156 -0.624,0.234 -1.008,0.234c-0.36,-0 -0.698,-0.068 -1.014,-0.204c-0.316,-0.136 -0.594,-0.336 -0.834,-0.6c-0.24,-0.264 -0.43,-0.584 -0.57,-0.96c-0.14,-0.376 -0.21,-0.804 -0.21,-1.284l-0,-0.192c-0,-0.472 0.068,-0.896 0.204,-1.272c0.136,-0.376 0.32,-0.696 0.552,-0.96c0.232,-0.264 0.502,-0.466 0.81,-0.606c0.308,-0.14 0.638,-0.21 0.99,-0.21c0.424,-0 0.766,0.072 1.026,0.216c0.26,0.144 0.466,0.368 0.618,0.672l0.216,-0l-0,-0.72l1.512,-0l-0,4.152c-0,0.24 0.108,0.36 0.324,0.36l0.228,-0l-0,1.44l-1.032,-0c-0.272,-0 -0.494,-0.08 -0.666,-0.24c-0.172,-0.16 -0.258,-0.368 -0.258,-0.624l-0.216,-0Zm-1.344,-0.408c0.44,-0 0.792,-0.146 1.056,-0.438c0.264,-0.292 0.396,-0.69 0.396,-1.194l-0,-0.144c-0,-0.504 -0.132,-0.902 -0.396,-1.194c-0.264,-0.292 -0.616,-0.438 -1.056,-0.438c-0.44,-0 -0.792,0.146 -1.056,0.438c-0.264,0.292 -0.396,0.69 -0.396,1.194l-0,0.144c-0,0.504 0.132,0.902 0.396,1.194c0.264,0.292 0.616,0.438 1.056,0.438Z" style="fill-rule:nonzero;"/><path d="M310.418,169.698l-0.216,-0c-0.064,0.136 -0.142,0.266 -0.234,0.39c-0.092,0.124 -0.212,0.234 -0.36,0.33c-0.148,0.096 -0.324,0.172 -0.528,0.228c-0.204,0.056 -0.45,0.084 -0.738,0.084c-0.368,-0 -0.71,-0.066 -1.026,-0.198c-0.316,-0.132 -0.592,-0.328 -0.828,-0.588c-0.236,-0.26 -0.42,-0.578 -0.552,-0.954c-0.132,-0.376 -0.198,-0.808 -0.198,-1.296l-0,-0.216c-0,-0.48 0.07,-0.908 0.21,-1.284c0.14,-0.376 0.332,-0.694 0.576,-0.954c0.244,-0.26 0.528,-0.458 0.852,-0.594c0.324,-0.136 0.666,-0.204 1.026,-0.204c0.48,-0 0.86,0.09 1.14,0.27c0.28,0.18 0.5,0.434 0.66,0.762l0.216,-0l-0,-0.864l1.512,-0l-0,7.416c-0,0.272 -0.086,0.496 -0.258,0.672c-0.172,0.176 -0.394,0.264 -0.666,0.264l-4.008,-0l-0,-1.44l3.096,-0c0.216,-0 0.324,-0.12 0.324,-0.36l-0,-1.464Zm-1.584,-0.408c0.472,-0 0.854,-0.15 1.146,-0.45c0.292,-0.3 0.438,-0.694 0.438,-1.182l-0,-0.144c-0,-0.488 -0.146,-0.882 -0.438,-1.182c-0.292,-0.3 -0.674,-0.45 -1.146,-0.45c-0.472,-0 -0.854,0.146 -1.146,0.438c-0.292,0.292 -0.438,0.69 -0.438,1.194l-0,0.144c-0,0.504 0.146,0.902 0.438,1.194c0.292,0.292 0.674,0.438 1.146,0.438Z" style="fill-rule:nonzero;"/><path d="M314.846,168.078c0.008,0.176 0.05,0.338 0.126,0.486c0.076,0.148 0.18,0.276 0.312,0.384c0.132,0.108 0.284,0.192 0.456,0.252c0.172,0.06 0.354,0.09 0.546,0.09c0.376,-0 0.664,-0.066 0.864,-0.198c0.2,-0.132 0.344,-0.29 0.432,-0.474l1.296,0.72c-0.072,0.152 -0.172,0.31 -0.3,0.474c-0.128,0.164 -0.294,0.314 -0.498,0.45c-0.204,0.136 -0.452,0.248 -0.744,0.336c-0.292,0.088 -0.634,0.132 -1.026,0.132c-0.448,-0 -0.856,-0.072 -1.224,-0.216c-0.368,-0.144 -0.686,-0.352 -0.954,-0.624c-0.268,-0.272 -0.476,-0.604 -0.624,-0.996c-0.148,-0.392 -0.222,-0.836 -0.222,-1.332l-0,-0.072c-0,-0.456 0.078,-0.872 0.234,-1.248c0.156,-0.376 0.37,-0.696 0.642,-0.96c0.272,-0.264 0.59,-0.47 0.954,-0.618c0.364,-0.148 0.754,-0.222 1.17,-0.222c0.512,-0 0.952,0.09 1.32,0.27c0.368,0.18 0.672,0.408 0.912,0.684c0.24,0.276 0.416,0.58 0.528,0.912c0.112,0.332 0.168,0.654 0.168,0.966l-0,0.804l-4.368,-0Zm1.428,-2.268c-0.384,-0 -0.696,0.098 -0.936,0.294c-0.24,0.196 -0.396,0.422 -0.468,0.678l2.808,-0c-0.048,-0.28 -0.198,-0.512 -0.45,-0.696c-0.252,-0.184 -0.57,-0.276 -0.954,-0.276Z" style="fill-rule:nonzero;"/></g></g><path d="M42.062,32.062l250,-0l10,10l-10,10l-250,-0l-0,-20Z" style="fill:#dae8fc;fill-rule:nonzero;stroke:#6c8ebf;stroke-width:1px;stroke-miterlimit:10;"/><g><g><path d="M156.638,47.962l-0.936,-0l-0,-8.352l0.936,-0l-0,0.936l0.144,-0c0.208,-0.36 0.496,-0.634 0.864,-0.822c0.368,-0.188 0.768,-0.282 1.2,-0.282c0.368,-0 0.716,0.068 1.044,0.204c0.328,0.136 0.618,0.332 0.87,0.588c0.252,0.256 0.452,0.572 0.6,0.948c0.148,0.376 0.222,0.804 0.222,1.284l-0,0.24c-0,0.488 -0.072,0.92 -0.216,1.296c-0.144,0.376 -0.342,0.692 -0.594,0.948c-0.252,0.256 -0.546,0.45 -0.882,0.582c-0.336,0.132 -0.692,0.198 -1.068,0.198c-0.192,-0 -0.388,-0.022 -0.588,-0.066c-0.2,-0.044 -0.39,-0.112 -0.57,-0.204c-0.18,-0.092 -0.346,-0.204 -0.498,-0.336c-0.152,-0.132 -0.28,-0.29 -0.384,-0.474l-0.144,-0l-0,3.312Zm1.992,-3.12c0.288,-0 0.552,-0.05 0.792,-0.15c0.24,-0.1 0.45,-0.242 0.63,-0.426c0.18,-0.184 0.32,-0.408 0.42,-0.672c0.1,-0.264 0.15,-0.56 0.15,-0.888l-0,-0.24c-0,-0.32 -0.05,-0.61 -0.15,-0.87c-0.1,-0.26 -0.24,-0.484 -0.42,-0.672c-0.18,-0.188 -0.392,-0.334 -0.636,-0.438c-0.244,-0.104 -0.506,-0.156 -0.786,-0.156c-0.28,-0 -0.54,0.054 -0.78,0.162c-0.24,0.108 -0.45,0.258 -0.63,0.45c-0.18,0.192 -0.322,0.422 -0.426,0.69c-0.104,0.268 -0.156,0.562 -0.156,0.882l-0,0.144c-0,0.328 0.052,0.626 0.156,0.894c0.104,0.268 0.246,0.498 0.426,0.69c0.18,0.192 0.39,0.34 0.63,0.444c0.24,0.104 0.5,0.156 0.78,0.156Z" style="fill-rule:nonzero;"/><path d="M167.51,39.61l0.936,-0l-0,5.952l-0.936,-0l-0,-1.08l-0.144,-0c-0.192,0.384 -0.444,0.688 -0.756,0.912c-0.312,0.224 -0.708,0.336 -1.188,0.336c-0.328,-0 -0.63,-0.054 -0.906,-0.162c-0.276,-0.108 -0.512,-0.27 -0.708,-0.486c-0.196,-0.216 -0.348,-0.484 -0.456,-0.804c-0.108,-0.32 -0.162,-0.692 -0.162,-1.116l-0,-3.552l0.936,-0l-0,3.432c-0,0.624 0.128,1.08 0.384,1.368c0.256,0.288 0.648,0.432 1.176,0.432c0.568,-0 1.014,-0.194 1.338,-0.582c0.324,-0.388 0.486,-0.906 0.486,-1.554l-0,-3.096Z" style="fill-rule:nonzero;"/><path d="M170.606,44.698l2.16,-0l-0,-6.672l-2.088,-0l-0,-0.864l3.024,-0l-0,7.536l2.16,-0l-0,0.864l-5.256,-0l-0,-0.864Z" style="fill-rule:nonzero;"/><path d="M177.95,44.698l2.16,-0l-0,-6.672l-2.088,-0l-0,-0.864l3.024,-0l-0,7.536l2.16,-0l-0,0.864l-5.256,-0l-0,-0.864Z" style="fill-rule:nonzero;"/></g></g><path d="M222.062,62.062l70,-0l10,10l-10,10l-70,-0l-0,-20Z" style="fill:#fff;fill-rule:nonzero;stroke:#000;stroke-width:1px;stroke-miterlimit:10;"/><g><g><path d="M236.798,73.45c-0.064,0.328 -0.174,0.632 -0.33,0.912c-0.156,0.28 -0.354,0.522 -0.594,0.726c-0.24,0.204 -0.52,0.362 -0.84,0.474c-0.32,0.112 -0.676,0.168 -1.068,0.168c-0.416,-0 -0.81,-0.068 -1.182,-0.204c-0.372,-0.136 -0.698,-0.334 -0.978,-0.594c-0.28,-0.26 -0.502,-0.578 -0.666,-0.954c-0.164,-0.376 -0.246,-0.808 -0.246,-1.296l-0,-0.144c-0,-0.48 0.082,-0.912 0.246,-1.296c0.164,-0.384 0.386,-0.708 0.666,-0.972c0.28,-0.264 0.606,-0.468 0.978,-0.612c0.372,-0.144 0.766,-0.216 1.182,-0.216c0.376,-0 0.724,0.056 1.044,0.168c0.32,0.112 0.602,0.27 0.846,0.474c0.244,0.204 0.444,0.446 0.6,0.726c0.156,0.28 0.262,0.584 0.318,0.912l-0.936,0.216c-0.024,-0.208 -0.082,-0.41 -0.174,-0.606c-0.092,-0.196 -0.216,-0.368 -0.372,-0.516c-0.156,-0.148 -0.346,-0.266 -0.57,-0.354c-0.224,-0.088 -0.484,-0.132 -0.78,-0.132c-0.288,-0 -0.558,0.054 -0.81,0.162c-0.252,0.108 -0.474,0.26 -0.666,0.456c-0.192,0.196 -0.342,0.43 -0.45,0.702c-0.108,0.272 -0.162,0.568 -0.162,0.888l-0,0.144c-0,0.336 0.054,0.638 0.162,0.906c0.108,0.268 0.258,0.494 0.45,0.678c0.192,0.184 0.416,0.326 0.672,0.426c0.256,0.1 0.532,0.15 0.828,0.15c0.296,-0 0.554,-0.046 0.774,-0.138c0.22,-0.092 0.408,-0.212 0.564,-0.36c0.156,-0.148 0.28,-0.318 0.372,-0.51c0.092,-0.192 0.154,-0.392 0.186,-0.6l0.936,0.216Z" style="fill-rule:nonzero;"/><path d="M239.51,75.562l-0.936,-0l-0,-8.4l0.936,-0l-0,3.528l0.144,-0c0.184,-0.384 0.442,-0.688 0.774,-0.912c0.332,-0.224 0.738,-0.336 1.218,-0.336c0.648,-0 1.174,0.214 1.578,0.642c0.404,0.428 0.606,1.07 0.606,1.926l-0,3.552l-0.936,-0l-0,-3.36c-0,-0.624 -0.14,-1.092 -0.42,-1.404c-0.28,-0.312 -0.66,-0.468 -1.14,-0.468c-0.568,-0 -1.014,0.194 -1.338,0.582c-0.324,0.388 -0.486,0.906 -0.486,1.554l-0,3.096Z" style="fill-rule:nonzero;"/><path d="M246.602,72.874c0.024,0.592 0.208,1.068 0.552,1.428c0.344,0.36 0.824,0.54 1.44,0.54c0.28,-0 0.524,-0.032 0.732,-0.096c0.208,-0.064 0.386,-0.152 0.534,-0.264c0.148,-0.112 0.268,-0.242 0.36,-0.39c0.092,-0.148 0.166,-0.306 0.222,-0.474l0.888,0.24c-0.168,0.552 -0.478,1.002 -0.93,1.35c-0.452,0.348 -1.062,0.522 -1.83,0.522c-0.424,-0 -0.814,-0.074 -1.17,-0.222c-0.356,-0.148 -0.662,-0.358 -0.918,-0.63c-0.256,-0.272 -0.456,-0.596 -0.6,-0.972c-0.144,-0.376 -0.216,-0.792 -0.216,-1.248l-0,-0.288c-0,-0.416 0.074,-0.804 0.222,-1.164c0.148,-0.36 0.354,-0.67 0.618,-0.93c0.264,-0.26 0.574,-0.464 0.93,-0.612c0.356,-0.148 0.742,-0.222 1.158,-0.222c0.488,-0 0.91,0.09 1.266,0.27c0.356,0.18 0.648,0.402 0.876,0.666c0.228,0.264 0.396,0.552 0.504,0.864c0.108,0.312 0.162,0.6 0.162,0.864l-0,0.768l-4.8,-0Zm1.992,-2.544c-0.264,-0 -0.51,0.042 -0.738,0.126c-0.228,0.084 -0.428,0.202 -0.6,0.354c-0.172,0.152 -0.312,0.33 -0.42,0.534c-0.108,0.204 -0.178,0.426 -0.21,0.666l3.84,-0c-0.016,-0.256 -0.078,-0.488 -0.186,-0.696c-0.108,-0.208 -0.248,-0.384 -0.42,-0.528c-0.172,-0.144 -0.368,-0.256 -0.588,-0.336c-0.22,-0.08 -0.446,-0.12 -0.678,-0.12Z" style="fill-rule:nonzero;"/><path d="M258.83,73.45c-0.064,0.328 -0.174,0.632 -0.33,0.912c-0.156,0.28 -0.354,0.522 -0.594,0.726c-0.24,0.204 -0.52,0.362 -0.84,0.474c-0.32,0.112 -0.676,0.168 -1.068,0.168c-0.416,-0 -0.81,-0.068 -1.182,-0.204c-0.372,-0.136 -0.698,-0.334 -0.978,-0.594c-0.28,-0.26 -0.502,-0.578 -0.666,-0.954c-0.164,-0.376 -0.246,-0.808 -0.246,-1.296l-0,-0.144c-0,-0.48 0.082,-0.912 0.246,-1.296c0.164,-0.384 0.386,-0.708 0.666,-0.972c0.28,-0.264 0.606,-0.468 0.978,-0.612c0.372,-0.144 0.766,-0.216 1.182,-0.216c0.376,-0 0.724,0.056 1.044,0.168c0.32,0.112 0.602,0.27 0.846,0.474c0.244,0.204 0.444,0.446 0.6,0.726c0.156,0.28 0.262,0.584 0.318,0.912l-0.936,0.216c-0.024,-0.208 -0.082,-0.41 -0.174,-0.606c-0.092,-0.196 -0.216,-0.368 -0.372,-0.516c-0.156,-0.148 -0.346,-0.266 -0.57,-0.354c-0.224,-0.088 -0.484,-0.132 -0.78,-0.132c-0.288,-0 -0.558,0.054 -0.81,0.162c-0.252,0.108 -0.474,0.26 -0.666,0.456c-0.192,0.196 -0.342,0.43 -0.45,0.702c-0.108,0.272 -0.162,0.568 -0.162,0.888l-0,0.144c-0,0.336 0.054,0.638 0.162,0.906c0.108,0.268 0.258,0.494 0.45,0.678c0.192,0.184 0.416,0.326 0.672,0.426c0.256,0.1 0.532,0.15 0.828,0.15c0.296,-0 0.554,-0.046 0.774,-0.138c0.22,-0.092 0.408,-0.212 0.564,-0.36c0.156,-0.148 0.28,-0.318 0.372,-0.51c0.092,-0.192 0.154,-0.392 0.186,-0.6l0.936,0.216Z" style="fill-rule:nonzero;"/><path d="M262.142,72.082l0.204,-0l2.268,-2.472l1.152,-0l-0,0.072l-2.472,2.724l-0,0.216l2.76,2.868l-0,0.072l-1.152,-0l-2.532,-2.616l-0.228,-0l-0,2.616l-0.936,-0l-0,-8.4l0.936,-0l-0,4.92Z" style="fill-rule:nonzero;"/><path d="M273.566,72.658c-0,0.496 -0.082,0.934 -0.246,1.314c-0.164,0.38 -0.382,0.7 -0.654,0.96c-0.272,0.26 -0.59,0.458 -0.954,0.594c-0.364,0.136 -0.742,0.204 -1.134,0.204c-0.4,-0 -0.78,-0.068 -1.14,-0.204c-0.36,-0.136 -0.676,-0.334 -0.948,-0.594c-0.272,-0.26 -0.49,-0.58 -0.654,-0.96c-0.164,-0.38 -0.246,-0.818 -0.246,-1.314l-0,-0.144c-0,-0.488 0.082,-0.922 0.246,-1.302c0.164,-0.38 0.384,-0.702 0.66,-0.966c0.276,-0.264 0.594,-0.464 0.954,-0.6c0.36,-0.136 0.736,-0.204 1.128,-0.204c0.392,-0 0.768,0.068 1.128,0.204c0.36,0.136 0.678,0.336 0.954,0.6c0.276,0.264 0.496,0.586 0.66,0.966c0.164,0.38 0.246,0.814 0.246,1.302l-0,0.144Zm-2.988,2.184c0.288,-0 0.554,-0.05 0.798,-0.15c0.244,-0.1 0.458,-0.246 0.642,-0.438c0.184,-0.192 0.328,-0.422 0.432,-0.69c0.104,-0.268 0.156,-0.57 0.156,-0.906l-0,-0.144c-0,-0.32 -0.052,-0.614 -0.156,-0.882c-0.104,-0.268 -0.248,-0.498 -0.432,-0.69c-0.184,-0.192 -0.4,-0.342 -0.648,-0.45c-0.248,-0.108 -0.512,-0.162 -0.792,-0.162c-0.28,-0 -0.544,0.054 -0.792,0.162c-0.248,0.108 -0.464,0.258 -0.648,0.45c-0.184,0.192 -0.328,0.422 -0.432,0.69c-0.104,0.268 -0.156,0.562 -0.156,0.882l-0,0.144c-0,0.336 0.052,0.638 0.156,0.906c0.104,0.268 0.248,0.498 0.432,0.69c0.184,0.192 0.398,0.338 0.642,0.438c0.244,0.1 0.51,0.15 0.798,0.15Z" style="fill-rule:nonzero;"/><path d="M279.542,69.61l0.936,-0l-0,5.952l-0.936,-0l-0,-1.08l-0.144,-0c-0.192,0.384 -0.444,0.688 -0.756,0.912c-0.312,0.224 -0.708,0.336 -1.188,0.336c-0.328,-0 -0.63,-0.054 -0.906,-0.162c-0.276,-0.108 -0.512,-0.27 -0.708,-0.486c-0.196,-0.216 -0.348,-0.484 -0.456,-0.804c-0.108,-0.32 -0.162,-0.692 -0.162,-1.116l-0,-3.552l0.936,-0l-0,3.432c-0,0.624 0.128,1.08 0.384,1.368c0.256,0.288 0.648,0.432 1.176,0.432c0.568,-0 1.014,-0.194 1.338,-0.582c0.324,-0.388 0.486,-0.906 0.486,-1.554l-0,-3.096Z" style="fill-rule:nonzero;"/><path d="M282.434,69.61l1.872,-0l-0,-2.448l0.936,-0l-0,2.448l2.304,-0l-0,0.864l-2.304,-0l-0,3.864c-0,0.24 0.108,0.36 0.324,0.36l1.692,-0l-0,0.864l-2.028,-0c-0.272,-0 -0.494,-0.088 -0.666,-0.264c-0.172,-0.176 -0.258,-0.4 -0.258,-0.672l-0,-4.152l-1.872,-0l-0,-0.864Z" style="fill-rule:nonzero;"/></g></g><path d="M42.062,92.062l70,-0l10,10l-10,10l-70,-0l-0,-20Z" style="fill:#dae8fc;fill-rule:nonzero;stroke:#6c8ebf;stroke-width:1px;stroke-miterlimit:10;"/><g><g><path d="M62.186,99.61l1.836,-0l-0,-1.512c-0,-0.272 0.086,-0.496 0.258,-0.672c0.172,-0.176 0.394,-0.264 0.666,-0.264l2.352,-0l-0,0.864l-2.016,-0c-0.216,-0 -0.324,0.12 -0.324,0.36l-0,1.224l2.484,-0l-0,0.864l-2.484,-0l-0,5.088l-0.936,-0l-0,-5.088l-1.836,-0l-0,-0.864Z" style="fill-rule:nonzero;"/><path d="M70.274,102.874c0.024,0.592 0.208,1.068 0.552,1.428c0.344,0.36 0.824,0.54 1.44,0.54c0.28,-0 0.524,-0.032 0.732,-0.096c0.208,-0.064 0.386,-0.152 0.534,-0.264c0.148,-0.112 0.268,-0.242 0.36,-0.39c0.092,-0.148 0.166,-0.306 0.222,-0.474l0.888,0.24c-0.168,0.552 -0.478,1.002 -0.93,1.35c-0.452,0.348 -1.062,0.522 -1.83,0.522c-0.424,-0 -0.814,-0.074 -1.17,-0.222c-0.356,-0.148 -0.662,-0.358 -0.918,-0.63c-0.256,-0.272 -0.456,-0.596 -0.6,-0.972c-0.144,-0.376 -0.216,-0.792 -0.216,-1.248l-0,-0.288c-0,-0.416 0.074,-0.804 0.222,-1.164c0.148,-0.36 0.354,-0.67 0.618,-0.93c0.264,-0.26 0.574,-0.464 0.93,-0.612c0.356,-0.148 0.742,-0.222 1.158,-0.222c0.488,-0 0.91,0.09 1.266,0.27c0.356,0.18 0.648,0.402 0.876,0.666c0.228,0.264 0.396,0.552 0.504,0.864c0.108,0.312 0.162,0.6 0.162,0.864l-0,0.768l-4.8,-0Zm1.992,-2.544c-0.264,-0 -0.51,0.042 -0.738,0.126c-0.228,0.084 -0.428,0.202 -0.6,0.354c-0.172,0.152 -0.312,0.33 -0.42,0.534c-0.108,0.204 -0.178,0.426 -0.21,0.666l3.84,-0c-0.016,-0.256 -0.078,-0.488 -0.186,-0.696c-0.108,-0.208 -0.248,-0.384 -0.42,-0.528c-0.172,-0.144 -0.368,-0.256 -0.588,-0.336c-0.22,-0.08 -0.446,-0.12 -0.678,-0.12Z" style="fill-rule:nonzero;"/><path d="M76.73,99.61l1.872,-0l-0,-2.448l0.936,-0l-0,2.448l2.304,-0l-0,0.864l-2.304,-0l-0,3.864c-0,0.24 0.108,0.36 0.324,0.36l1.692,-0l-0,0.864l-2.028,-0c-0.272,-0 -0.494,-0.088 -0.666,-0.264c-0.172,-0.176 -0.258,-0.4 -0.258,-0.672l-0,-4.152l-1.872,-0l-0,-0.864Z" style="fill-rule:nonzero;"/><path d="M89.846,103.45c-0.064,0.328 -0.174,0.632 -0.33,0.912c-0.156,0.28 -0.354,0.522 -0.594,0.726c-0.24,0.204 -0.52,0.362 -0.84,0.474c-0.32,0.112 -0.676,0.168 -1.068,0.168c-0.416,-0 -0.81,-0.068 -1.182,-0.204c-0.372,-0.136 -0.698,-0.334 -0.978,-0.594c-0.28,-0.26 -0.502,-0.578 -0.666,-0.954c-0.164,-0.376 -0.246,-0.808 -0.246,-1.296l-0,-0.144c-0,-0.48 0.082,-0.912 0.246,-1.296c0.164,-0.384 0.386,-0.708 0.666,-0.972c0.28,-0.264 0.606,-0.468 0.978,-0.612c0.372,-0.144 0.766,-0.216 1.182,-0.216c0.376,-0 0.724,0.056 1.044,0.168c0.32,0.112 0.602,0.27 0.846,0.474c0.244,0.204 0.444,0.446 0.6,0.726c0.156,0.28 0.262,0.584 0.318,0.912l-0.936,0.216c-0.024,-0.208 -0.082,-0.41 -0.174,-0.606c-0.092,-0.196 -0.216,-0.368 -0.372,-0.516c-0.156,-0.148 -0.346,-0.266 -0.57,-0.354c-0.224,-0.088 -0.484,-0.132 -0.78,-0.132c-0.288,-0 -0.558,0.054 -0.81,0.162c-0.252,0.108 -0.474,0.26 -0.666,0.456c-0.192,0.196 -0.342,0.43 -0.45,0.702c-0.108,0.272 -0.162,0.568 -0.162,0.888l-0,0.144c-0,0.336 0.054,0.638 0.162,0.906c0.108,0.268 0.258,0.494 0.45,0.678c0.192,0.184 0.416,0.326 0.672,0.426c0.256,0.1 0.532,0.15 0.828,0.15c0.296,-0 0.554,-0.046 0.774,-0.138c0.22,-0.092 0.408,-0.212 0.564,-0.36c0.156,-0.148 0.28,-0.318 0.372,-0.51c0.092,-0.192 0.154,-0.392 0.186,-0.6l0.936,0.216Z" style="fill-rule:nonzero;"/><path d="M92.558,105.562l-0.936,-0l-0,-8.4l0.936,-0l-0,3.528l0.144,-0c0.184,-0.384 0.442,-0.688 0.774,-0.912c0.332,-0.224 0.738,-0.336 1.218,-0.336c0.648,-0 1.174,0.214 1.578,0.642c0.404,0.428 0.606,1.07 0.606,1.926l-0,3.552l-0.936,-0l-0,-3.36c-0,-0.624 -0.14,-1.092 -0.42,-1.404c-0.28,-0.312 -0.66,-0.468 -1.14,-0.468c-0.568,-0 -1.014,0.194 -1.338,0.582c-0.324,0.388 -0.486,0.906 -0.486,1.554l-0,3.096Z" style="fill-rule:nonzero;"/></g></g><path d="M152.062,92.062l50,-0l10,10l-10,10l-50,-0l-0,-20Z" style="fill:#fff;fill-rule:nonzero;stroke:#000;stroke-width:1px;stroke-miterlimit:10;"/><g><g><path d="M161.91,99.61l2.16,-0l-0,0.792l0.144,-0c0.152,-0.328 0.368,-0.57 0.648,-0.726c0.28,-0.156 0.6,-0.234 0.96,-0.234c0.6,-0 1.084,0.196 1.452,0.588c0.368,0.392 0.564,0.964 0.588,1.716l-0.984,0.144c-0,-0.552 -0.132,-0.95 -0.396,-1.194c-0.264,-0.244 -0.588,-0.366 -0.972,-0.366c-0.248,-0 -0.462,0.048 -0.642,0.144c-0.18,0.096 -0.33,0.228 -0.45,0.396c-0.12,0.168 -0.208,0.364 -0.264,0.588c-0.056,0.224 -0.084,0.464 -0.084,0.72l-0,2.52l1.512,-0l-0,0.864l-3.816,-0l-0,-0.864l1.368,-0l-0,-4.224l-1.224,-0l-0,-0.864Z" style="fill-rule:nonzero;"/><path d="M170.274,102.874c0.024,0.592 0.208,1.068 0.552,1.428c0.344,0.36 0.824,0.54 1.44,0.54c0.28,-0 0.524,-0.032 0.732,-0.096c0.208,-0.064 0.386,-0.152 0.534,-0.264c0.148,-0.112 0.268,-0.242 0.36,-0.39c0.092,-0.148 0.166,-0.306 0.222,-0.474l0.888,0.24c-0.168,0.552 -0.478,1.002 -0.93,1.35c-0.452,0.348 -1.062,0.522 -1.83,0.522c-0.424,-0 -0.814,-0.074 -1.17,-0.222c-0.356,-0.148 -0.662,-0.358 -0.918,-0.63c-0.256,-0.272 -0.456,-0.596 -0.6,-0.972c-0.144,-0.376 -0.216,-0.792 -0.216,-1.248l-0,-0.288c-0,-0.416 0.074,-0.804 0.222,-1.164c0.148,-0.36 0.354,-0.67 0.618,-0.93c0.264,-0.26 0.574,-0.464 0.93,-0.612c0.356,-0.148 0.742,-0.222 1.158,-0.222c0.488,-0 0.91,0.09 1.266,0.27c0.356,0.18 0.648,0.402 0.876,0.666c0.228,0.264 0.396,0.552 0.504,0.864c0.108,0.312 0.162,0.6 0.162,0.864l-0,0.768l-4.8,-0Zm1.992,-2.544c-0.264,-0 -0.51,0.042 -0.738,0.126c-0.228,0.084 -0.428,0.202 -0.6,0.354c-0.172,0.152 -0.312,0.33 -0.42,0.534c-0.108,0.204 -0.178,0.426 -0.21,0.666l3.84,-0c-0.016,-0.256 -0.078,-0.488 -0.186,-0.696c-0.108,-0.208 -0.248,-0.384 -0.42,-0.528c-0.172,-0.144 -0.368,-0.256 -0.588,-0.336c-0.22,-0.08 -0.446,-0.12 -0.678,-0.12Z" style="fill-rule:nonzero;"/><path d="M178.17,101.146c-0,0.288 0.122,0.508 0.366,0.66c0.244,0.152 0.69,0.252 1.338,0.3c0.696,0.056 1.226,0.222 1.59,0.498c0.364,0.276 0.546,0.678 0.546,1.206l-0,0.072c-0,0.288 -0.058,0.546 -0.174,0.774c-0.116,0.228 -0.276,0.422 -0.48,0.582c-0.204,0.16 -0.452,0.282 -0.744,0.366c-0.292,0.084 -0.61,0.126 -0.954,0.126c-0.464,-0 -0.862,-0.062 -1.194,-0.186c-0.332,-0.124 -0.608,-0.288 -0.828,-0.492c-0.22,-0.204 -0.386,-0.436 -0.498,-0.696c-0.112,-0.26 -0.176,-0.522 -0.192,-0.786l0.888,-0.216c0.04,0.456 0.216,0.822 0.528,1.098c0.312,0.276 0.728,0.414 1.248,0.414c0.44,-0 0.794,-0.086 1.062,-0.258c0.268,-0.172 0.402,-0.414 0.402,-0.726c-0,-0.336 -0.132,-0.576 -0.396,-0.72c-0.264,-0.144 -0.692,-0.236 -1.284,-0.276c-0.688,-0.048 -1.216,-0.208 -1.584,-0.48c-0.368,-0.272 -0.552,-0.668 -0.552,-1.188l-0,-0.072c-0,-0.28 0.06,-0.526 0.18,-0.738c0.12,-0.212 0.282,-0.39 0.486,-0.534c0.204,-0.144 0.434,-0.252 0.69,-0.324c0.256,-0.072 0.524,-0.108 0.804,-0.108c0.392,-0 0.736,0.054 1.032,0.162c0.296,0.108 0.544,0.248 0.744,0.42c0.2,0.172 0.354,0.37 0.462,0.594c0.108,0.224 0.178,0.448 0.21,0.672l-0.888,0.216c-0.04,-0.384 -0.194,-0.684 -0.462,-0.9c-0.268,-0.216 -0.618,-0.324 -1.05,-0.324c-0.168,-0 -0.33,0.018 -0.486,0.054c-0.156,0.036 -0.294,0.09 -0.414,0.162c-0.12,0.072 -0.216,0.162 -0.288,0.27c-0.072,0.108 -0.108,0.234 -0.108,0.378Z" style="fill-rule:nonzero;"/><path d="M184.962,102.874c0.024,0.592 0.208,1.068 0.552,1.428c0.344,0.36 0.824,0.54 1.44,0.54c0.28,-0 0.524,-0.032 0.732,-0.096c0.208,-0.064 0.386,-0.152 0.534,-0.264c0.148,-0.112 0.268,-0.242 0.36,-0.39c0.092,-0.148 0.166,-0.306 0.222,-0.474l0.888,0.24c-0.168,0.552 -0.478,1.002 -0.93,1.35c-0.452,0.348 -1.062,0.522 -1.83,0.522c-0.424,-0 -0.814,-0.074 -1.17,-0.222c-0.356,-0.148 -0.662,-0.358 -0.918,-0.63c-0.256,-0.272 -0.456,-0.596 -0.6,-0.972c-0.144,-0.376 -0.216,-0.792 -0.216,-1.248l-0,-0.288c-0,-0.416 0.074,-0.804 0.222,-1.164c0.148,-0.36 0.354,-0.67 0.618,-0.93c0.264,-0.26 0.574,-0.464 0.93,-0.612c0.356,-0.148 0.742,-0.222 1.158,-0.222c0.488,-0 0.91,0.09 1.266,0.27c0.356,0.18 0.648,0.402 0.876,0.666c0.228,0.264 0.396,0.552 0.504,0.864c0.108,0.312 0.162,0.6 0.162,0.864l-0,0.768l-4.8,-0Zm1.992,-2.544c-0.264,-0 -0.51,0.042 -0.738,0.126c-0.228,0.084 -0.428,0.202 -0.6,0.354c-0.172,0.152 -0.312,0.33 -0.42,0.534c-0.108,0.204 -0.178,0.426 -0.21,0.666l3.84,-0c-0.016,-0.256 -0.078,-0.488 -0.186,-0.696c-0.108,-0.208 -0.248,-0.384 -0.42,-0.528c-0.172,-0.144 -0.368,-0.256 -0.588,-0.336c-0.22,-0.08 -0.446,-0.12 -0.678,-0.12Z" style="fill-rule:nonzero;"/><path d="M191.418,99.61l1.872,-0l-0,-2.448l0.936,-0l-0,2.448l2.304,-0l-0,0.864l-2.304,-0l-0,3.864c-0,0.24 0.108,0.36 0.324,0.36l1.692,-0l-0,0.864l-2.028,-0c-0.272,-0 -0.494,-0.088 -0.666,-0.264c-0.172,-0.176 -0.258,-0.4 -0.258,-0.672l-0,-4.152l-1.872,-0l-0,-0.864Z" style="fill-rule:nonzero;"/></g></g><path d="M121.062,141.062l-70,-0l-10,-10l10,-10l70,-0l-0,20Z" style="fill:#fff;fill-rule:nonzero;stroke:#000;stroke-width:1px;stroke-miterlimit:10;stroke-dasharray:3,3;"/><g><g><path d="M63.238,129.61l2.16,-0l-0,0.792l0.144,-0c0.152,-0.328 0.368,-0.57 0.648,-0.726c0.28,-0.156 0.6,-0.234 0.96,-0.234c0.6,-0 1.084,0.196 1.452,0.588c0.368,0.392 0.564,0.964 0.588,1.716l-0.984,0.144c-0,-0.552 -0.132,-0.95 -0.396,-1.194c-0.264,-0.244 -0.588,-0.366 -0.972,-0.366c-0.248,-0 -0.462,0.048 -0.642,0.144c-0.18,0.096 -0.33,0.228 -0.45,0.396c-0.12,0.168 -0.208,0.364 -0.264,0.588c-0.056,0.224 -0.084,0.464 -0.084,0.72l-0,2.52l1.512,-0l-0,0.864l-3.816,-0l-0,-0.864l1.368,-0l-0,-4.224l-1.224,-0l-0,-0.864Z" style="fill-rule:nonzero;"/><path d="M71.602,132.874c0.024,0.592 0.208,1.068 0.552,1.428c0.344,0.36 0.824,0.54 1.44,0.54c0.28,-0 0.524,-0.032 0.732,-0.096c0.208,-0.064 0.386,-0.152 0.534,-0.264c0.148,-0.112 0.268,-0.242 0.36,-0.39c0.092,-0.148 0.166,-0.306 0.222,-0.474l0.888,0.24c-0.168,0.552 -0.478,1.002 -0.93,1.35c-0.452,0.348 -1.062,0.522 -1.83,0.522c-0.424,-0 -0.814,-0.074 -1.17,-0.222c-0.356,-0.148 -0.662,-0.358 -0.918,-0.63c-0.256,-0.272 -0.456,-0.596 -0.6,-0.972c-0.144,-0.376 -0.216,-0.792 -0.216,-1.248l-0,-0.288c-0,-0.416 0.074,-0.804 0.222,-1.164c0.148,-0.36 0.354,-0.67 0.618,-0.93c0.264,-0.26 0.574,-0.464 0.93,-0.612c0.356,-0.148 0.742,-0.222 1.158,-0.222c0.488,-0 0.91,0.09 1.266,0.27c0.356,0.18 0.648,0.402 0.876,0.666c0.228,0.264 0.396,0.552 0.504,0.864c0.108,0.312 0.162,0.6 0.162,0.864l-0,0.768l-4.8,-0Zm1.992,-2.544c-0.264,-0 -0.51,0.042 -0.738,0.126c-0.228,0.084 -0.428,0.202 -0.6,0.354c-0.172,0.152 -0.312,0.33 -0.42,0.534c-0.108,0.204 -0.178,0.426 -0.21,0.666l3.84,-0c-0.016,-0.256 -0.078,-0.488 -0.186,-0.696c-0.108,-0.208 -0.248,-0.384 -0.42,-0.528c-0.172,-0.144 -0.368,-0.256 -0.588,-0.336c-0.22,-0.08 -0.446,-0.12 -0.678,-0.12Z" style="fill-rule:nonzero;"/><path d="M83.986,135.562l-0.936,-0l-0,-4.272c-0,-0.28 -0.064,-0.51 -0.192,-0.69c-0.128,-0.18 -0.332,-0.27 -0.612,-0.27c-0.264,-0 -0.478,0.098 -0.642,0.294c-0.164,0.196 -0.246,0.498 -0.246,0.906l-0,4.032l-0.936,-0l-0,-4.32c-0,-0.264 -0.072,-0.482 -0.216,-0.654c-0.144,-0.172 -0.336,-0.258 -0.576,-0.258c-0.288,-0 -0.51,0.104 -0.666,0.312c-0.156,0.208 -0.234,0.48 -0.234,0.816l-0,4.104l-0.936,-0l-0,-5.952l0.936,-0l-0,0.648l0.144,-0c0.104,-0.28 0.256,-0.486 0.456,-0.618c0.2,-0.132 0.436,-0.198 0.708,-0.198c0.288,-0 0.526,0.076 0.714,0.228c0.188,0.152 0.318,0.348 0.39,0.588l0.144,-0c0.272,-0.544 0.704,-0.816 1.296,-0.816c0.448,-0 0.794,0.142 1.038,0.426c0.244,0.284 0.366,0.654 0.366,1.11l-0,4.584Z" style="fill-rule:nonzero;"/><path d="M91.222,132.658c-0,0.496 -0.082,0.934 -0.246,1.314c-0.164,0.38 -0.382,0.7 -0.654,0.96c-0.272,0.26 -0.59,0.458 -0.954,0.594c-0.364,0.136 -0.742,0.204 -1.134,0.204c-0.4,-0 -0.78,-0.068 -1.14,-0.204c-0.36,-0.136 -0.676,-0.334 -0.948,-0.594c-0.272,-0.26 -0.49,-0.58 -0.654,-0.96c-0.164,-0.38 -0.246,-0.818 -0.246,-1.314l-0,-0.144c-0,-0.488 0.082,-0.922 0.246,-1.302c0.164,-0.38 0.384,-0.702 0.66,-0.966c0.276,-0.264 0.594,-0.464 0.954,-0.6c0.36,-0.136 0.736,-0.204 1.128,-0.204c0.392,-0 0.768,0.068 1.128,0.204c0.36,0.136 0.678,0.336 0.954,0.6c0.276,0.264 0.496,0.586 0.66,0.966c0.164,0.38 0.246,0.814 0.246,1.302l-0,0.144Zm-2.988,2.184c0.288,-0 0.554,-0.05 0.798,-0.15c0.244,-0.1 0.458,-0.246 0.642,-0.438c0.184,-0.192 0.328,-0.422 0.432,-0.69c0.104,-0.268 0.156,-0.57 0.156,-0.906l-0,-0.144c-0,-0.32 -0.052,-0.614 -0.156,-0.882c-0.104,-0.268 -0.248,-0.498 -0.432,-0.69c-0.184,-0.192 -0.4,-0.342 -0.648,-0.45c-0.248,-0.108 -0.512,-0.162 -0.792,-0.162c-0.28,-0 -0.544,0.054 -0.792,0.162c-0.248,0.108 -0.464,0.258 -0.648,0.45c-0.184,0.192 -0.328,0.422 -0.432,0.69c-0.104,0.268 -0.156,0.562 -0.156,0.882l-0,0.144c-0,0.336 0.052,0.638 0.156,0.906c0.104,0.268 0.248,0.498 0.432,0.69c0.184,0.192 0.398,0.338 0.642,0.438c0.244,0.1 0.51,0.15 0.798,0.15Z" style="fill-rule:nonzero;"/><path d="M92.746,129.61l1.872,-0l-0,-2.448l0.936,-0l-0,2.448l2.304,-0l-0,0.864l-2.304,-0l-0,3.864c-0,0.24 0.108,0.36 0.324,0.36l1.692,-0l-0,0.864l-2.028,-0c-0.272,-0 -0.494,-0.088 -0.666,-0.264c-0.172,-0.176 -0.258,-0.4 -0.258,-0.672l-0,-4.152l-1.872,-0l-0,-0.864Z" style="fill-rule:nonzero;"/><path d="M100.978,132.874c0.024,0.592 0.208,1.068 0.552,1.428c0.344,0.36 0.824,0.54 1.44,0.54c0.28,-0 0.524,-0.032 0.732,-0.096c0.208,-0.064 0.386,-0.152 0.534,-0.264c0.148,-0.112 0.268,-0.242 0.36,-0.39c0.092,-0.148 0.166,-0.306 0.222,-0.474l0.888,0.24c-0.168,0.552 -0.478,1.002 -0.93,1.35c-0.452,0.348 -1.062,0.522 -1.83,0.522c-0.424,-0 -0.814,-0.074 -1.17,-0.222c-0.356,-0.148 -0.662,-0.358 -0.918,-0.63c-0.256,-0.272 -0.456,-0.596 -0.6,-0.972c-0.144,-0.376 -0.216,-0.792 -0.216,-1.248l-0,-0.288c-0,-0.416 0.074,-0.804 0.222,-1.164c0.148,-0.36 0.354,-0.67 0.618,-0.93c0.264,-0.26 0.574,-0.464 0.93,-0.612c0.356,-0.148 0.742,-0.222 1.158,-0.222c0.488,-0 0.91,0.09 1.266,0.27c0.356,0.18 0.648,0.402 0.876,0.666c0.228,0.264 0.396,0.552 0.504,0.864c0.108,0.312 0.162,0.6 0.162,0.864l-0,0.768l-4.8,-0Zm1.992,-2.544c-0.264,-0 -0.51,0.042 -0.738,0.126c-0.228,0.084 -0.428,0.202 -0.6,0.354c-0.172,0.152 -0.312,0.33 -0.42,0.534c-0.108,0.204 -0.178,0.426 -0.21,0.666l3.84,-0c-0.016,-0.256 -0.078,-0.488 -0.186,-0.696c-0.108,-0.208 -0.248,-0.384 -0.42,-0.528c-0.172,-0.144 -0.368,-0.256 -0.588,-0.336c-0.22,-0.08 -0.446,-0.12 -0.678,-0.12Z" style="fill-rule:nonzero;"/></g></g><path d="M211.062,81.062l-60,-0l-10,-10l10,-10l60,-0l-0,20Z" style="fill:#fff;fill-rule:nonzero;stroke:#000;stroke-width:1px;stroke-miterlimit:10;stroke-dasharray:3,3;"/><g><g><rect x="155.73" y="72.01" width="3.6" height="0.864" style="fill-rule:nonzero;"/><rect x="163.074" y="72.01" width="3.6" height="0.864" style="fill-rule:nonzero;"/><path d="M169.386,69.61l1.872,-0l-0,-2.448l0.936,-0l-0,2.448l2.304,-0l-0,0.864l-2.304,-0l-0,3.864c-0,0.24 0.108,0.36 0.324,0.36l1.692,-0l-0,0.864l-2.028,-0c-0.272,-0 -0.494,-0.088 -0.666,-0.264c-0.172,-0.176 -0.258,-0.4 -0.258,-0.672l-0,-4.152l-1.872,-0l-0,-0.864Z" style="fill-rule:nonzero;"/><path d="M176.598,69.61l2.16,-0l-0,0.792l0.144,-0c0.152,-0.328 0.368,-0.57 0.648,-0.726c0.28,-0.156 0.6,-0.234 0.96,-0.234c0.6,-0 1.084,0.196 1.452,0.588c0.368,0.392 0.564,0.964 0.588,1.716l-0.984,0.144c-0,-0.552 -0.132,-0.95 -0.396,-1.194c-0.264,-0.244 -0.588,-0.366 -0.972,-0.366c-0.248,-0 -0.462,0.048 -0.642,0.144c-0.18,0.096 -0.33,0.228 -0.45,0.396c-0.12,0.168 -0.208,0.364 -0.264,0.588c-0.056,0.224 -0.084,0.464 -0.084,0.72l-0,2.52l1.512,-0l-0,0.864l-3.816,-0l-0,-0.864l1.368,-0l-0,-4.224l-1.224,-0l-0,-0.864Z" style="fill-rule:nonzero;"/><path d="M188.598,74.554l-0.144,-0c-0.192,0.4 -0.458,0.696 -0.798,0.888c-0.34,0.192 -0.698,0.288 -1.074,0.288c-0.392,-0 -0.756,-0.066 -1.092,-0.198c-0.336,-0.132 -0.63,-0.328 -0.882,-0.588c-0.252,-0.26 -0.45,-0.578 -0.594,-0.954c-0.144,-0.376 -0.216,-0.812 -0.216,-1.308l-0,-0.192c-0,-0.488 0.072,-0.92 0.216,-1.296c0.144,-0.376 0.342,-0.694 0.594,-0.954c0.252,-0.26 0.546,-0.458 0.882,-0.594c0.336,-0.136 0.692,-0.204 1.068,-0.204c0.408,-0 0.778,0.09 1.11,0.27c0.332,0.18 0.594,0.458 0.786,0.834l0.144,-0l-0,-0.936l0.936,-0l-0,4.728c-0,0.24 0.108,0.36 0.324,0.36l0.3,-0l-0,0.864l-0.636,-0c-0.272,-0 -0.494,-0.088 -0.666,-0.264c-0.172,-0.176 -0.258,-0.4 -0.258,-0.672l-0,-0.072Zm-1.92,0.288c0.28,-0 0.538,-0.052 0.774,-0.156c0.236,-0.104 0.438,-0.252 0.606,-0.444c0.168,-0.192 0.3,-0.422 0.396,-0.69c0.096,-0.268 0.144,-0.566 0.144,-0.894l-0,-0.144c-0,-0.32 -0.048,-0.614 -0.144,-0.882c-0.096,-0.268 -0.23,-0.498 -0.402,-0.69c-0.172,-0.192 -0.376,-0.342 -0.612,-0.45c-0.236,-0.108 -0.49,-0.162 -0.762,-0.162c-0.28,-0 -0.536,0.052 -0.768,0.156c-0.232,0.104 -0.434,0.25 -0.606,0.438c-0.172,0.188 -0.306,0.416 -0.402,0.684c-0.096,0.268 -0.144,0.562 -0.144,0.882l-0,0.192c-0,0.68 0.178,1.21 0.534,1.59c0.356,0.38 0.818,0.57 1.386,0.57Z" style="fill-rule:nonzero;"/><path d="M197.19,73.45c-0.064,0.328 -0.174,0.632 -0.33,0.912c-0.156,0.28 -0.354,0.522 -0.594,0.726c-0.24,0.204 -0.52,0.362 -0.84,0.474c-0.32,0.112 -0.676,0.168 -1.068,0.168c-0.416,-0 -0.81,-0.068 -1.182,-0.204c-0.372,-0.136 -0.698,-0.334 -0.978,-0.594c-0.28,-0.26 -0.502,-0.578 -0.666,-0.954c-0.164,-0.376 -0.246,-0.808 -0.246,-1.296l-0,-0.144c-0,-0.48 0.082,-0.912 0.246,-1.296c0.164,-0.384 0.386,-0.708 0.666,-0.972c0.28,-0.264 0.606,-0.468 0.978,-0.612c0.372,-0.144 0.766,-0.216 1.182,-0.216c0.376,-0 0.724,0.056 1.044,0.168c0.32,0.112 0.602,0.27 0.846,0.474c0.244,0.204 0.444,0.446 0.6,0.726c0.156,0.28 0.262,0.584 0.318,0.912l-0.936,0.216c-0.024,-0.208 -0.082,-0.41 -0.174,-0.606c-0.092,-0.196 -0.216,-0.368 -0.372,-0.516c-0.156,-0.148 -0.346,-0.266 -0.57,-0.354c-0.224,-0.088 -0.484,-0.132 -0.78,-0.132c-0.288,-0 -0.558,0.054 -0.81,0.162c-0.252,0.108 -0.474,0.26 -0.666,0.456c-0.192,0.196 -0.342,0.43 -0.45,0.702c-0.108,0.272 -0.162,0.568 -0.162,0.888l-0,0.144c-0,0.336 0.054,0.638 0.162,0.906c0.108,0.268 0.258,0.494 0.45,0.678c0.192,0.184 0.416,0.326 0.672,0.426c0.256,0.1 0.532,0.15 0.828,0.15c0.296,-0 0.554,-0.046 0.774,-0.138c0.22,-0.092 0.408,-0.212 0.564,-0.36c0.156,-0.148 0.28,-0.318 0.372,-0.51c0.092,-0.192 0.154,-0.392 0.186,-0.6l0.936,0.216Z" style="fill-rule:nonzero;"/><path d="M200.502,72.082l0.204,-0l2.268,-2.472l1.152,-0l-0,0.072l-2.472,2.724l-0,0.216l2.76,2.868l-0,0.072l-1.152,-0l-2.532,-2.616l-0.228,-0l-0,2.616l-0.936,-0l-0,-8.4l0.936,-0l-0,4.92Z" style="fill-rule:nonzero;"/></g></g><rect x="152.062" y="122.062" width="40" height="20" style="fill:#fff;fill-rule:nonzero;"/><path d="M152.062,122.062l-0,20l40,-0l-0,-20l-40,-0" style="fill:none;fill-rule:nonzero;"/><rect x="152.062" y="122.062" width="40" height="20" style="fill:none;fill-rule:nonzero;stroke:#000;stroke-width:1px;stroke-miterlimit:10;stroke-dasharray:3,3;"/><path d="M192.062,122.062l100,-0l10,10l-10,10l-100,-0l-0,-20Z" style="fill:#fff;fill-rule:nonzero;stroke:#000;stroke-width:1px;stroke-miterlimit:10;"/><g><g><path d="M201.206,129.61l2.16,-0l-0,0.792l0.144,-0c0.152,-0.328 0.368,-0.57 0.648,-0.726c0.28,-0.156 0.6,-0.234 0.96,-0.234c0.6,-0 1.084,0.196 1.452,0.588c0.368,0.392 0.564,0.964 0.588,1.716l-0.984,0.144c-0,-0.552 -0.132,-0.95 -0.396,-1.194c-0.264,-0.244 -0.588,-0.366 -0.972,-0.366c-0.248,-0 -0.462,0.048 -0.642,0.144c-0.18,0.096 -0.33,0.228 -0.45,0.396c-0.12,0.168 -0.208,0.364 -0.264,0.588c-0.056,0.224 -0.084,0.464 -0.084,0.72l-0,2.52l1.512,-0l-0,0.864l-3.816,-0l-0,-0.864l1.368,-0l-0,-4.224l-1.224,-0l-0,-0.864Z" style="fill-rule:nonzero;"/><path d="M209.57,132.874c0.024,0.592 0.208,1.068 0.552,1.428c0.344,0.36 0.824,0.54 1.44,0.54c0.28,-0 0.524,-0.032 0.732,-0.096c0.208,-0.064 0.386,-0.152 0.534,-0.264c0.148,-0.112 0.268,-0.242 0.36,-0.39c0.092,-0.148 0.166,-0.306 0.222,-0.474l0.888,0.24c-0.168,0.552 -0.478,1.002 -0.93,1.35c-0.452,0.348 -1.062,0.522 -1.83,0.522c-0.424,-0 -0.814,-0.074 -1.17,-0.222c-0.356,-0.148 -0.662,-0.358 -0.918,-0.63c-0.256,-0.272 -0.456,-0.596 -0.6,-0.972c-0.144,-0.376 -0.216,-0.792 -0.216,-1.248l-0,-0.288c-0,-0.416 0.074,-0.804 0.222,-1.164c0.148,-0.36 0.354,-0.67 0.618,-0.93c0.264,-0.26 0.574,-0.464 0.93,-0.612c0.356,-0.148 0.742,-0.222 1.158,-0.222c0.488,-0 0.91,0.09 1.266,0.27c0.356,0.18 0.648,0.402 0.876,0.666c0.228,0.264 0.396,0.552 0.504,0.864c0.108,0.312 0.162,0.6 0.162,0.864l-0,0.768l-4.8,-0Zm1.992,-2.544c-0.264,-0 -0.51,0.042 -0.738,0.126c-0.228,0.084 -0.428,0.202 -0.6,0.354c-0.172,0.152 -0.312,0.33 -0.42,0.534c-0.108,0.204 -0.178,0.426 -0.21,0.666l3.84,-0c-0.016,-0.256 -0.078,-0.488 -0.186,-0.696c-0.108,-0.208 -0.248,-0.384 -0.42,-0.528c-0.172,-0.144 -0.368,-0.256 -0.588,-0.336c-0.22,-0.08 -0.446,-0.12 -0.678,-0.12Z" style="fill-rule:nonzero;"/><path d="M217.466,131.146c-0,0.288 0.122,0.508 0.366,0.66c0.244,0.152 0.69,0.252 1.338,0.3c0.696,0.056 1.226,0.222 1.59,0.498c0.364,0.276 0.546,0.678 0.546,1.206l-0,0.072c-0,0.288 -0.058,0.546 -0.174,0.774c-0.116,0.228 -0.276,0.422 -0.48,0.582c-0.204,0.16 -0.452,0.282 -0.744,0.366c-0.292,0.084 -0.61,0.126 -0.954,0.126c-0.464,-0 -0.862,-0.062 -1.194,-0.186c-0.332,-0.124 -0.608,-0.288 -0.828,-0.492c-0.22,-0.204 -0.386,-0.436 -0.498,-0.696c-0.112,-0.26 -0.176,-0.522 -0.192,-0.786l0.888,-0.216c0.04,0.456 0.216,0.822 0.528,1.098c0.312,0.276 0.728,0.414 1.248,0.414c0.44,-0 0.794,-0.086 1.062,-0.258c0.268,-0.172 0.402,-0.414 0.402,-0.726c-0,-0.336 -0.132,-0.576 -0.396,-0.72c-0.264,-0.144 -0.692,-0.236 -1.284,-0.276c-0.688,-0.048 -1.216,-0.208 -1.584,-0.48c-0.368,-0.272 -0.552,-0.668 -0.552,-1.188l-0,-0.072c-0,-0.28 0.06,-0.526 0.18,-0.738c0.12,-0.212 0.282,-0.39 0.486,-0.534c0.204,-0.144 0.434,-0.252 0.69,-0.324c0.256,-0.072 0.524,-0.108 0.804,-0.108c0.392,-0 0.736,0.054 1.032,0.162c0.296,0.108 0.544,0.248 0.744,0.42c0.2,0.172 0.354,0.37 0.462,0.594c0.108,0.224 0.178,0.448 0.21,0.672l-0.888,0.216c-0.04,-0.384 -0.194,-0.684 -0.462,-0.9c-0.268,-0.216 -0.618,-0.324 -1.05,-0.324c-0.168,-0 -0.33,0.018 -0.486,0.054c-0.156,0.036 -0.294,0.09 -0.414,0.162c-0.12,0.072 -0.216,0.162 -0.288,0.27c-0.072,0.108 -0.108,0.234 -0.108,0.378Z" style="fill-rule:nonzero;"/><path d="M224.258,132.874c0.024,0.592 0.208,1.068 0.552,1.428c0.344,0.36 0.824,0.54 1.44,0.54c0.28,-0 0.524,-0.032 0.732,-0.096c0.208,-0.064 0.386,-0.152 0.534,-0.264c0.148,-0.112 0.268,-0.242 0.36,-0.39c0.092,-0.148 0.166,-0.306 0.222,-0.474l0.888,0.24c-0.168,0.552 -0.478,1.002 -0.93,1.35c-0.452,0.348 -1.062,0.522 -1.83,0.522c-0.424,-0 -0.814,-0.074 -1.17,-0.222c-0.356,-0.148 -0.662,-0.358 -0.918,-0.63c-0.256,-0.272 -0.456,-0.596 -0.6,-0.972c-0.144,-0.376 -0.216,-0.792 -0.216,-1.248l-0,-0.288c-0,-0.416 0.074,-0.804 0.222,-1.164c0.148,-0.36 0.354,-0.67 0.618,-0.93c0.264,-0.26 0.574,-0.464 0.93,-0.612c0.356,-0.148 0.742,-0.222 1.158,-0.222c0.488,-0 0.91,0.09 1.266,0.27c0.356,0.18 0.648,0.402 0.876,0.666c0.228,0.264 0.396,0.552 0.504,0.864c0.108,0.312 0.162,0.6 0.162,0.864l-0,0.768l-4.8,-0Zm1.992,-2.544c-0.264,-0 -0.51,0.042 -0.738,0.126c-0.228,0.084 -0.428,0.202 -0.6,0.354c-0.172,0.152 -0.312,0.33 -0.42,0.534c-0.108,0.204 -0.178,0.426 -0.21,0.666l3.84,-0c-0.016,-0.256 -0.078,-0.488 -0.186,-0.696c-0.108,-0.208 -0.248,-0.384 -0.42,-0.528c-0.172,-0.144 -0.368,-0.256 -0.588,-0.336c-0.22,-0.08 -0.446,-0.12 -0.678,-0.12Z" style="fill-rule:nonzero;"/><path d="M230.714,129.61l1.872,-0l-0,-2.448l0.936,-0l-0,2.448l2.304,-0l-0,0.864l-2.304,-0l-0,3.864c-0,0.24 0.108,0.36 0.324,0.36l1.692,-0l-0,0.864l-2.028,-0c-0.272,-0 -0.494,-0.088 -0.666,-0.264c-0.172,-0.176 -0.258,-0.4 -0.258,-0.672l-0,-4.152l-1.872,-0l-0,-0.864Z" style="fill-rule:nonzero;"/><rect x="246.434" y="132.01" width="3.6" height="0.864" style="fill-rule:nonzero;"/><rect x="253.778" y="132.01" width="3.6" height="0.864" style="fill-rule:nonzero;"/><path d="M261.23,135.562l-0.936,-0l-0,-8.4l0.936,-0l-0,3.528l0.144,-0c0.184,-0.384 0.442,-0.688 0.774,-0.912c0.332,-0.224 0.738,-0.336 1.218,-0.336c0.648,-0 1.174,0.214 1.578,0.642c0.404,0.428 0.606,1.07 0.606,1.926l-0,3.552l-0.936,-0l-0,-3.36c-0,-0.624 -0.14,-1.092 -0.42,-1.404c-0.28,-0.312 -0.66,-0.468 -1.14,-0.468c-0.568,-0 -1.014,0.194 -1.338,0.582c-0.324,0.388 -0.486,0.906 -0.486,1.554l-0,3.096Z" style="fill-rule:nonzero;"/><path d="M271.958,134.554l-0.144,-0c-0.192,0.4 -0.458,0.696 -0.798,0.888c-0.34,0.192 -0.698,0.288 -1.074,0.288c-0.392,-0 -0.756,-0.066 -1.092,-0.198c-0.336,-0.132 -0.63,-0.328 -0.882,-0.588c-0.252,-0.26 -0.45,-0.578 -0.594,-0.954c-0.144,-0.376 -0.216,-0.812 -0.216,-1.308l-0,-0.192c-0,-0.488 0.072,-0.92 0.216,-1.296c0.144,-0.376 0.342,-0.694 0.594,-0.954c0.252,-0.26 0.546,-0.458 0.882,-0.594c0.336,-0.136 0.692,-0.204 1.068,-0.204c0.408,-0 0.778,0.09 1.11,0.27c0.332,0.18 0.594,0.458 0.786,0.834l0.144,-0l-0,-0.936l0.936,-0l-0,4.728c-0,0.24 0.108,0.36 0.324,0.36l0.3,-0l-0,0.864l-0.636,-0c-0.272,-0 -0.494,-0.088 -0.666,-0.264c-0.172,-0.176 -0.258,-0.4 -0.258,-0.672l-0,-0.072Zm-1.92,0.288c0.28,-0 0.538,-0.052 0.774,-0.156c0.236,-0.104 0.438,-0.252 0.606,-0.444c0.168,-0.192 0.3,-0.422 0.396,-0.69c0.096,-0.268 0.144,-0.566 0.144,-0.894l-0,-0.144c-0,-0.32 -0.048,-0.614 -0.144,-0.882c-0.096,-0.268 -0.23,-0.498 -0.402,-0.69c-0.172,-0.192 -0.376,-0.342 -0.612,-0.45c-0.236,-0.108 -0.49,-0.162 -0.762,-0.162c-0.28,-0 -0.536,0.052 -0.768,0.156c-0.232,0.104 -0.434,0.25 -0.606,0.438c-0.172,0.188 -0.306,0.416 -0.402,0.684c-0.096,0.268 -0.144,0.562 -0.144,0.882l-0,0.192c-0,0.68 0.178,1.21 0.534,1.59c0.356,0.38 0.818,0.57 1.386,0.57Z" style="fill-rule:nonzero;"/><path d="M274.646,129.61l2.16,-0l-0,0.792l0.144,-0c0.152,-0.328 0.368,-0.57 0.648,-0.726c0.28,-0.156 0.6,-0.234 0.96,-0.234c0.6,-0 1.084,0.196 1.452,0.588c0.368,0.392 0.564,0.964 0.588,1.716l-0.984,0.144c-0,-0.552 -0.132,-0.95 -0.396,-1.194c-0.264,-0.244 -0.588,-0.366 -0.972,-0.366c-0.248,-0 -0.462,0.048 -0.642,0.144c-0.18,0.096 -0.33,0.228 -0.45,0.396c-0.12,0.168 -0.208,0.364 -0.264,0.588c-0.056,0.224 -0.084,0.464 -0.084,0.72l-0,2.52l1.512,-0l-0,0.864l-3.816,-0l-0,-0.864l1.368,-0l-0,-4.224l-1.224,-0l-0,-0.864Z" style="fill-rule:nonzero;"/><path d="M286.934,134.65l-0.144,-0c-0.096,0.184 -0.218,0.344 -0.366,0.48c-0.148,0.136 -0.308,0.248 -0.48,0.336c-0.172,0.088 -0.354,0.154 -0.546,0.198c-0.192,0.044 -0.376,0.066 -0.552,0.066c-0.4,-0 -0.772,-0.068 -1.116,-0.204c-0.344,-0.136 -0.646,-0.332 -0.906,-0.588c-0.26,-0.256 -0.464,-0.574 -0.612,-0.954c-0.148,-0.38 -0.222,-0.814 -0.222,-1.302l-0,-0.192c-0,-0.48 0.076,-0.91 0.228,-1.29c0.152,-0.38 0.356,-0.7 0.612,-0.96c0.256,-0.26 0.556,-0.458 0.9,-0.594c0.344,-0.136 0.708,-0.204 1.092,-0.204c0.408,-0 0.79,0.09 1.146,0.27c0.356,0.18 0.63,0.458 0.822,0.834l0.144,-0l-0,-3.384l0.936,-0l-0,8.4l-0.936,-0l-0,-0.912Zm-1.992,0.192c0.28,-0 0.54,-0.052 0.78,-0.156c0.24,-0.104 0.45,-0.252 0.63,-0.444c0.18,-0.192 0.322,-0.422 0.426,-0.69c0.104,-0.268 0.156,-0.566 0.156,-0.894l-0,-0.144c-0,-0.32 -0.052,-0.614 -0.156,-0.882c-0.104,-0.268 -0.246,-0.498 -0.426,-0.69c-0.18,-0.192 -0.392,-0.342 -0.636,-0.45c-0.244,-0.108 -0.502,-0.162 -0.774,-0.162c-0.28,-0 -0.542,0.052 -0.786,0.156c-0.244,0.104 -0.456,0.252 -0.636,0.444c-0.18,0.192 -0.32,0.42 -0.42,0.684c-0.1,0.264 -0.15,0.556 -0.15,0.876l-0,0.192c-0,0.336 0.05,0.636 0.15,0.9c0.1,0.264 0.24,0.49 0.42,0.678c0.18,0.188 0.39,0.332 0.63,0.432c0.24,0.1 0.504,0.15 0.792,0.15Z" style="fill-rule:nonzero;"/></g></g><path d="M131.062,201.062l-80,-0l-10,-10l10,-10l80,-0l-0,20Z" style="fill:#dae8fc;fill-rule:nonzero;stroke:#6c8ebf;stroke-width:1px;stroke-miterlimit:10;"/><g><g><path d="M76.638,197.962l-0.936,-0l-0,-8.352l0.936,-0l-0,0.936l0.144,-0c0.208,-0.36 0.496,-0.634 0.864,-0.822c0.368,-0.188 0.768,-0.282 1.2,-0.282c0.368,-0 0.716,0.068 1.044,0.204c0.328,0.136 0.618,0.332 0.87,0.588c0.252,0.256 0.452,0.572 0.6,0.948c0.148,0.376 0.222,0.804 0.222,1.284l-0,0.24c-0,0.488 -0.072,0.92 -0.216,1.296c-0.144,0.376 -0.342,0.692 -0.594,0.948c-0.252,0.256 -0.546,0.45 -0.882,0.582c-0.336,0.132 -0.692,0.198 -1.068,0.198c-0.192,-0 -0.388,-0.022 -0.588,-0.066c-0.2,-0.044 -0.39,-0.112 -0.57,-0.204c-0.18,-0.092 -0.346,-0.204 -0.498,-0.336c-0.152,-0.132 -0.28,-0.29 -0.384,-0.474l-0.144,-0l-0,3.312Zm1.992,-3.12c0.288,-0 0.552,-0.05 0.792,-0.15c0.24,-0.1 0.45,-0.242 0.63,-0.426c0.18,-0.184 0.32,-0.408 0.42,-0.672c0.1,-0.264 0.15,-0.56 0.15,-0.888l-0,-0.24c-0,-0.32 -0.05,-0.61 -0.15,-0.87c-0.1,-0.26 -0.24,-0.484 -0.42,-0.672c-0.18,-0.188 -0.392,-0.334 -0.636,-0.438c-0.244,-0.104 -0.506,-0.156 -0.786,-0.156c-0.28,-0 -0.54,0.054 -0.78,0.162c-0.24,0.108 -0.45,0.258 -0.63,0.45c-0.18,0.192 -0.322,0.422 -0.426,0.69c-0.104,0.268 -0.156,0.562 -0.156,0.882l-0,0.144c-0,0.328 0.052,0.626 0.156,0.894c0.104,0.268 0.246,0.498 0.426,0.69c0.18,0.192 0.39,0.34 0.63,0.444c0.24,0.104 0.5,0.156 0.78,0.156Z" style="fill-rule:nonzero;"/><path d="M87.51,189.61l0.936,-0l-0,5.952l-0.936,-0l-0,-1.08l-0.144,-0c-0.192,0.384 -0.444,0.688 -0.756,0.912c-0.312,0.224 -0.708,0.336 -1.188,0.336c-0.328,-0 -0.63,-0.054 -0.906,-0.162c-0.276,-0.108 -0.512,-0.27 -0.708,-0.486c-0.196,-0.216 -0.348,-0.484 -0.456,-0.804c-0.108,-0.32 -0.162,-0.692 -0.162,-1.116l-0,-3.552l0.936,-0l-0,3.432c-0,0.624 0.128,1.08 0.384,1.368c0.256,0.288 0.648,0.432 1.176,0.432c0.568,-0 1.014,-0.194 1.338,-0.582c0.324,-0.388 0.486,-0.906 0.486,-1.554l-0,-3.096Z" style="fill-rule:nonzero;"/><path d="M91.842,191.146c-0,0.288 0.122,0.508 0.366,0.66c0.244,0.152 0.69,0.252 1.338,0.3c0.696,0.056 1.226,0.222 1.59,0.498c0.364,0.276 0.546,0.678 0.546,1.206l-0,0.072c-0,0.288 -0.058,0.546 -0.174,0.774c-0.116,0.228 -0.276,0.422 -0.48,0.582c-0.204,0.16 -0.452,0.282 -0.744,0.366c-0.292,0.084 -0.61,0.126 -0.954,0.126c-0.464,-0 -0.862,-0.062 -1.194,-0.186c-0.332,-0.124 -0.608,-0.288 -0.828,-0.492c-0.22,-0.204 -0.386,-0.436 -0.498,-0.696c-0.112,-0.26 -0.176,-0.522 -0.192,-0.786l0.888,-0.216c0.04,0.456 0.216,0.822 0.528,1.098c0.312,0.276 0.728,0.414 1.248,0.414c0.44,-0 0.794,-0.086 1.062,-0.258c0.268,-0.172 0.402,-0.414 0.402,-0.726c-0,-0.336 -0.132,-0.576 -0.396,-0.72c-0.264,-0.144 -0.692,-0.236 -1.284,-0.276c-0.688,-0.048 -1.216,-0.208 -1.584,-0.48c-0.368,-0.272 -0.552,-0.668 -0.552,-1.188l-0,-0.072c-0,-0.28 0.06,-0.526 0.18,-0.738c0.12,-0.212 0.282,-0.39 0.486,-0.534c0.204,-0.144 0.434,-0.252 0.69,-0.324c0.256,-0.072 0.524,-0.108 0.804,-0.108c0.392,-0 0.736,0.054 1.032,0.162c0.296,0.108 0.544,0.248 0.744,0.42c0.2,0.172 0.354,0.37 0.462,0.594c0.108,0.224 0.178,0.448 0.21,0.672l-0.888,0.216c-0.04,-0.384 -0.194,-0.684 -0.462,-0.9c-0.268,-0.216 -0.618,-0.324 -1.05,-0.324c-0.168,-0 -0.33,0.018 -0.486,0.054c-0.156,0.036 -0.294,0.09 -0.414,0.162c-0.12,0.072 -0.216,0.162 -0.288,0.27c-0.072,0.108 -0.108,0.234 -0.108,0.378Z" style="fill-rule:nonzero;"/><path d="M98.886,195.562l-0.936,-0l-0,-8.4l0.936,-0l-0,3.528l0.144,-0c0.184,-0.384 0.442,-0.688 0.774,-0.912c0.332,-0.224 0.738,-0.336 1.218,-0.336c0.648,-0 1.174,0.214 1.578,0.642c0.404,0.428 0.606,1.07 0.606,1.926l-0,3.552l-0.936,-0l-0,-3.36c-0,-0.624 -0.14,-1.092 -0.42,-1.404c-0.28,-0.312 -0.66,-0.468 -1.14,-0.468c-0.568,-0 -1.014,0.194 -1.338,0.582c-0.324,0.388 -0.486,0.906 -0.486,1.554l-0,3.096Z" style="fill-rule:nonzero;"/></g></g><path d="M361.062,231.062l-120,-0l-10,-10l10,-10l120,-0l-0,20Z" style="fill:#fff;fill-rule:nonzero;stroke:#000;stroke-width:1px;stroke-miterlimit:10;"/><g><g><path d="M270.126,223.45c-0.064,0.328 -0.174,0.632 -0.33,0.912c-0.156,0.28 -0.354,0.522 -0.594,0.726c-0.24,0.204 -0.52,0.362 -0.84,0.474c-0.32,0.112 -0.676,0.168 -1.068,0.168c-0.416,-0 -0.81,-0.068 -1.182,-0.204c-0.372,-0.136 -0.698,-0.334 -0.978,-0.594c-0.28,-0.26 -0.502,-0.578 -0.666,-0.954c-0.164,-0.376 -0.246,-0.808 -0.246,-1.296l-0,-0.144c-0,-0.48 0.082,-0.912 0.246,-1.296c0.164,-0.384 0.386,-0.708 0.666,-0.972c0.28,-0.264 0.606,-0.468 0.978,-0.612c0.372,-0.144 0.766,-0.216 1.182,-0.216c0.376,-0 0.724,0.056 1.044,0.168c0.32,0.112 0.602,0.27 0.846,0.474c0.244,0.204 0.444,0.446 0.6,0.726c0.156,0.28 0.262,0.584 0.318,0.912l-0.936,0.216c-0.024,-0.208 -0.082,-0.41 -0.174,-0.606c-0.092,-0.196 -0.216,-0.368 -0.372,-0.516c-0.156,-0.148 -0.346,-0.266 -0.57,-0.354c-0.224,-0.088 -0.484,-0.132 -0.78,-0.132c-0.288,-0 -0.558,0.054 -0.81,0.162c-0.252,0.108 -0.474,0.26 -0.666,0.456c-0.192,0.196 -0.342,0.43 -0.45,0.702c-0.108,0.272 -0.162,0.568 -0.162,0.888l-0,0.144c-0,0.336 0.054,0.638 0.162,0.906c0.108,0.268 0.258,0.494 0.45,0.678c0.192,0.184 0.416,0.326 0.672,0.426c0.256,0.1 0.532,0.15 0.828,0.15c0.296,-0 0.554,-0.046 0.774,-0.138c0.22,-0.092 0.408,-0.212 0.564,-0.36c0.156,-0.148 0.28,-0.318 0.372,-0.51c0.092,-0.192 0.154,-0.392 0.186,-0.6l0.936,0.216Z" style="fill-rule:nonzero;"/><path d="M277.518,222.658c-0,0.496 -0.082,0.934 -0.246,1.314c-0.164,0.38 -0.382,0.7 -0.654,0.96c-0.272,0.26 -0.59,0.458 -0.954,0.594c-0.364,0.136 -0.742,0.204 -1.134,0.204c-0.4,-0 -0.78,-0.068 -1.14,-0.204c-0.36,-0.136 -0.676,-0.334 -0.948,-0.594c-0.272,-0.26 -0.49,-0.58 -0.654,-0.96c-0.164,-0.38 -0.246,-0.818 -0.246,-1.314l-0,-0.144c-0,-0.488 0.082,-0.922 0.246,-1.302c0.164,-0.38 0.384,-0.702 0.66,-0.966c0.276,-0.264 0.594,-0.464 0.954,-0.6c0.36,-0.136 0.736,-0.204 1.128,-0.204c0.392,-0 0.768,0.068 1.128,0.204c0.36,0.136 0.678,0.336 0.954,0.6c0.276,0.264 0.496,0.586 0.66,0.966c0.164,0.38 0.246,0.814 0.246,1.302l-0,0.144Zm-2.988,2.184c0.288,-0 0.554,-0.05 0.798,-0.15c0.244,-0.1 0.458,-0.246 0.642,-0.438c0.184,-0.192 0.328,-0.422 0.432,-0.69c0.104,-0.268 0.156,-0.57 0.156,-0.906l-0,-0.144c-0,-0.32 -0.052,-0.614 -0.156,-0.882c-0.104,-0.268 -0.248,-0.498 -0.432,-0.69c-0.184,-0.192 -0.4,-0.342 -0.648,-0.45c-0.248,-0.108 -0.512,-0.162 -0.792,-0.162c-0.28,-0 -0.544,0.054 -0.792,0.162c-0.248,0.108 -0.464,0.258 -0.648,0.45c-0.184,0.192 -0.328,0.422 -0.432,0.69c-0.104,0.268 -0.156,0.562 -0.156,0.882l-0,0.144c-0,0.336 0.052,0.638 0.156,0.906c0.104,0.268 0.248,0.498 0.432,0.69c0.184,0.192 0.398,0.338 0.642,0.438c0.244,0.1 0.51,0.15 0.798,0.15Z" style="fill-rule:nonzero;"/><path d="M284.97,225.562l-0.936,-0l-0,-4.272c-0,-0.28 -0.064,-0.51 -0.192,-0.69c-0.128,-0.18 -0.332,-0.27 -0.612,-0.27c-0.264,-0 -0.478,0.098 -0.642,0.294c-0.164,0.196 -0.246,0.498 -0.246,0.906l-0,4.032l-0.936,-0l-0,-4.32c-0,-0.264 -0.072,-0.482 -0.216,-0.654c-0.144,-0.172 -0.336,-0.258 -0.576,-0.258c-0.288,-0 -0.51,0.104 -0.666,0.312c-0.156,0.208 -0.234,0.48 -0.234,0.816l-0,4.104l-0.936,-0l-0,-5.952l0.936,-0l-0,0.648l0.144,-0c0.104,-0.28 0.256,-0.486 0.456,-0.618c0.2,-0.132 0.436,-0.198 0.708,-0.198c0.288,-0 0.526,0.076 0.714,0.228c0.188,0.152 0.318,0.348 0.39,0.588l0.144,-0c0.272,-0.544 0.704,-0.816 1.296,-0.816c0.448,-0 0.794,0.142 1.038,0.426c0.244,0.284 0.366,0.654 0.366,1.11l-0,4.584Z" style="fill-rule:nonzero;"/><path d="M292.314,225.562l-0.936,-0l-0,-4.272c-0,-0.28 -0.064,-0.51 -0.192,-0.69c-0.128,-0.18 -0.332,-0.27 -0.612,-0.27c-0.264,-0 -0.478,0.098 -0.642,0.294c-0.164,0.196 -0.246,0.498 -0.246,0.906l-0,4.032l-0.936,-0l-0,-4.32c-0,-0.264 -0.072,-0.482 -0.216,-0.654c-0.144,-0.172 -0.336,-0.258 -0.576,-0.258c-0.288,-0 -0.51,0.104 -0.666,0.312c-0.156,0.208 -0.234,0.48 -0.234,0.816l-0,4.104l-0.936,-0l-0,-5.952l0.936,-0l-0,0.648l0.144,-0c0.104,-0.28 0.256,-0.486 0.456,-0.618c0.2,-0.132 0.436,-0.198 0.708,-0.198c0.288,-0 0.526,0.076 0.714,0.228c0.188,0.152 0.318,0.348 0.39,0.588l0.144,-0c0.272,-0.544 0.704,-0.816 1.296,-0.816c0.448,-0 0.794,0.142 1.038,0.426c0.244,0.284 0.366,0.654 0.366,1.11l-0,4.584Z" style="fill-rule:nonzero;"/><path d="M295.782,217.834c-0,-0.232 0.082,-0.43 0.246,-0.594c0.164,-0.164 0.362,-0.246 0.594,-0.246c0.232,-0 0.43,0.082 0.594,0.246c0.164,0.164 0.246,0.362 0.246,0.594c-0,0.232 -0.082,0.43 -0.246,0.594c-0.164,0.164 -0.362,0.246 -0.594,0.246c-0.232,-0 -0.43,-0.082 -0.594,-0.246c-0.164,-0.164 -0.246,-0.362 -0.246,-0.594Zm-1.704,6.864l2.088,-0l-0,-4.224l-1.872,-0l-0,-0.864l2.808,-0l-0,5.088l1.944,-0l-0,0.864l-4.968,-0l-0,-0.864Z" style="fill-rule:nonzero;"/><path d="M301.074,219.61l1.872,-0l-0,-2.448l0.936,-0l-0,2.448l2.304,-0l-0,0.864l-2.304,-0l-0,3.864c-0,0.24 0.108,0.36 0.324,0.36l1.692,-0l-0,0.864l-2.028,-0c-0.272,-0 -0.494,-0.088 -0.666,-0.264c-0.172,-0.176 -0.258,-0.4 -0.258,-0.672l-0,-4.152l-1.872,-0l-0,-0.864Z" style="fill-rule:nonzero;"/><rect x="316.794" y="222.01" width="3.6" height="0.864" style="fill-rule:nonzero;"/><path d="M327.63,224.554l-0.144,-0c-0.192,0.4 -0.458,0.696 -0.798,0.888c-0.34,0.192 -0.698,0.288 -1.074,0.288c-0.392,-0 -0.756,-0.066 -1.092,-0.198c-0.336,-0.132 -0.63,-0.328 -0.882,-0.588c-0.252,-0.26 -0.45,-0.578 -0.594,-0.954c-0.144,-0.376 -0.216,-0.812 -0.216,-1.308l-0,-0.192c-0,-0.488 0.072,-0.92 0.216,-1.296c0.144,-0.376 0.342,-0.694 0.594,-0.954c0.252,-0.26 0.546,-0.458 0.882,-0.594c0.336,-0.136 0.692,-0.204 1.068,-0.204c0.408,-0 0.778,0.09 1.11,0.27c0.332,0.18 0.594,0.458 0.786,0.834l0.144,-0l-0,-0.936l0.936,-0l-0,4.728c-0,0.24 0.108,0.36 0.324,0.36l0.3,-0l-0,0.864l-0.636,-0c-0.272,-0 -0.494,-0.088 -0.666,-0.264c-0.172,-0.176 -0.258,-0.4 -0.258,-0.672l-0,-0.072Zm-1.92,0.288c0.28,-0 0.538,-0.052 0.774,-0.156c0.236,-0.104 0.438,-0.252 0.606,-0.444c0.168,-0.192 0.3,-0.422 0.396,-0.69c0.096,-0.268 0.144,-0.566 0.144,-0.894l-0,-0.144c-0,-0.32 -0.048,-0.614 -0.144,-0.882c-0.096,-0.268 -0.23,-0.498 -0.402,-0.69c-0.172,-0.192 -0.376,-0.342 -0.612,-0.45c-0.236,-0.108 -0.49,-0.162 -0.762,-0.162c-0.28,-0 -0.536,0.052 -0.768,0.156c-0.232,0.104 -0.434,0.25 -0.606,0.438c-0.172,0.188 -0.306,0.416 -0.402,0.684c-0.096,0.268 -0.144,0.562 -0.144,0.882l-0,0.192c-0,0.68 0.178,1.21 0.534,1.59c0.356,0.38 0.818,0.57 1.386,0.57Z" style="fill-rule:nonzero;"/></g></g><path d="M291.062,201.062l-50,-0l-10,-10l10,-10l50,-0l-0,20Z" style="fill:#dae8fc;fill-rule:nonzero;stroke:#6c8ebf;stroke-width:1px;stroke-miterlimit:10;"/><g><g><path d="M249.142,193.45c-0.064,0.328 -0.174,0.632 -0.33,0.912c-0.156,0.28 -0.354,0.522 -0.594,0.726c-0.24,0.204 -0.52,0.362 -0.84,0.474c-0.32,0.112 -0.676,0.168 -1.068,0.168c-0.416,-0 -0.81,-0.068 -1.182,-0.204c-0.372,-0.136 -0.698,-0.334 -0.978,-0.594c-0.28,-0.26 -0.502,-0.578 -0.666,-0.954c-0.164,-0.376 -0.246,-0.808 -0.246,-1.296l-0,-0.144c-0,-0.48 0.082,-0.912 0.246,-1.296c0.164,-0.384 0.386,-0.708 0.666,-0.972c0.28,-0.264 0.606,-0.468 0.978,-0.612c0.372,-0.144 0.766,-0.216 1.182,-0.216c0.376,-0 0.724,0.056 1.044,0.168c0.32,0.112 0.602,0.27 0.846,0.474c0.244,0.204 0.444,0.446 0.6,0.726c0.156,0.28 0.262,0.584 0.318,0.912l-0.936,0.216c-0.024,-0.208 -0.082,-0.41 -0.174,-0.606c-0.092,-0.196 -0.216,-0.368 -0.372,-0.516c-0.156,-0.148 -0.346,-0.266 -0.57,-0.354c-0.224,-0.088 -0.484,-0.132 -0.78,-0.132c-0.288,-0 -0.558,0.054 -0.81,0.162c-0.252,0.108 -0.474,0.26 -0.666,0.456c-0.192,0.196 -0.342,0.43 -0.45,0.702c-0.108,0.272 -0.162,0.568 -0.162,0.888l-0,0.144c-0,0.336 0.054,0.638 0.162,0.906c0.108,0.268 0.258,0.494 0.45,0.678c0.192,0.184 0.416,0.326 0.672,0.426c0.256,0.1 0.532,0.15 0.828,0.15c0.296,-0 0.554,-0.046 0.774,-0.138c0.22,-0.092 0.408,-0.212 0.564,-0.36c0.156,-0.148 0.28,-0.318 0.372,-0.51c0.092,-0.192 0.154,-0.392 0.186,-0.6l0.936,0.216Z" style="fill-rule:nonzero;"/><path d="M256.534,192.658c-0,0.496 -0.082,0.934 -0.246,1.314c-0.164,0.38 -0.382,0.7 -0.654,0.96c-0.272,0.26 -0.59,0.458 -0.954,0.594c-0.364,0.136 -0.742,0.204 -1.134,0.204c-0.4,-0 -0.78,-0.068 -1.14,-0.204c-0.36,-0.136 -0.676,-0.334 -0.948,-0.594c-0.272,-0.26 -0.49,-0.58 -0.654,-0.96c-0.164,-0.38 -0.246,-0.818 -0.246,-1.314l-0,-0.144c-0,-0.488 0.082,-0.922 0.246,-1.302c0.164,-0.38 0.384,-0.702 0.66,-0.966c0.276,-0.264 0.594,-0.464 0.954,-0.6c0.36,-0.136 0.736,-0.204 1.128,-0.204c0.392,-0 0.768,0.068 1.128,0.204c0.36,0.136 0.678,0.336 0.954,0.6c0.276,0.264 0.496,0.586 0.66,0.966c0.164,0.38 0.246,0.814 0.246,1.302l-0,0.144Zm-2.988,2.184c0.288,-0 0.554,-0.05 0.798,-0.15c0.244,-0.1 0.458,-0.246 0.642,-0.438c0.184,-0.192 0.328,-0.422 0.432,-0.69c0.104,-0.268 0.156,-0.57 0.156,-0.906l-0,-0.144c-0,-0.32 -0.052,-0.614 -0.156,-0.882c-0.104,-0.268 -0.248,-0.498 -0.432,-0.69c-0.184,-0.192 -0.4,-0.342 -0.648,-0.45c-0.248,-0.108 -0.512,-0.162 -0.792,-0.162c-0.28,-0 -0.544,0.054 -0.792,0.162c-0.248,0.108 -0.464,0.258 -0.648,0.45c-0.184,0.192 -0.328,0.422 -0.432,0.69c-0.104,0.268 -0.156,0.562 -0.156,0.882l-0,0.144c-0,0.336 0.052,0.638 0.156,0.906c0.104,0.268 0.248,0.498 0.432,0.69c0.184,0.192 0.398,0.338 0.642,0.438c0.244,0.1 0.51,0.15 0.798,0.15Z" style="fill-rule:nonzero;"/><path d="M263.986,195.562l-0.936,-0l-0,-4.272c-0,-0.28 -0.064,-0.51 -0.192,-0.69c-0.128,-0.18 -0.332,-0.27 -0.612,-0.27c-0.264,-0 -0.478,0.098 -0.642,0.294c-0.164,0.196 -0.246,0.498 -0.246,0.906l-0,4.032l-0.936,-0l-0,-4.32c-0,-0.264 -0.072,-0.482 -0.216,-0.654c-0.144,-0.172 -0.336,-0.258 -0.576,-0.258c-0.288,-0 -0.51,0.104 -0.666,0.312c-0.156,0.208 -0.234,0.48 -0.234,0.816l-0,4.104l-0.936,-0l-0,-5.952l0.936,-0l-0,0.648l0.144,-0c0.104,-0.28 0.256,-0.486 0.456,-0.618c0.2,-0.132 0.436,-0.198 0.708,-0.198c0.288,-0 0.526,0.076 0.714,0.228c0.188,0.152 0.318,0.348 0.39,0.588l0.144,-0c0.272,-0.544 0.704,-0.816 1.296,-0.816c0.448,-0 0.794,0.142 1.038,0.426c0.244,0.284 0.366,0.654 0.366,1.11l-0,4.584Z" style="fill-rule:nonzero;"/><path d="M271.33,195.562l-0.936,-0l-0,-4.272c-0,-0.28 -0.064,-0.51 -0.192,-0.69c-0.128,-0.18 -0.332,-0.27 -0.612,-0.27c-0.264,-0 -0.478,0.098 -0.642,0.294c-0.164,0.196 -0.246,0.498 -0.246,0.906l-0,4.032l-0.936,-0l-0,-4.32c-0,-0.264 -0.072,-0.482 -0.216,-0.654c-0.144,-0.172 -0.336,-0.258 -0.576,-0.258c-0.288,-0 -0.51,0.104 -0.666,0.312c-0.156,0.208 -0.234,0.48 -0.234,0.816l-0,4.104l-0.936,-0l-0,-5.952l0.936,-0l-0,0.648l0.144,-0c0.104,-0.28 0.256,-0.486 0.456,-0.618c0.2,-0.132 0.436,-0.198 0.708,-0.198c0.288,-0 0.526,0.076 0.714,0.228c0.188,0.152 0.318,0.348 0.39,0.588l0.144,-0c0.272,-0.544 0.704,-0.816 1.296,-0.816c0.448,-0 0.794,0.142 1.038,0.426c0.244,0.284 0.366,0.654 0.366,1.11l-0,4.584Z" style="fill-rule:nonzero;"/><path d="M274.798,187.834c-0,-0.232 0.082,-0.43 0.246,-0.594c0.164,-0.164 0.362,-0.246 0.594,-0.246c0.232,-0 0.43,0.082 0.594,0.246c0.164,0.164 0.246,0.362 0.246,0.594c-0,0.232 -0.082,0.43 -0.246,0.594c-0.164,0.164 -0.362,0.246 -0.594,0.246c-0.232,-0 -0.43,-0.082 -0.594,-0.246c-0.164,-0.164 -0.246,-0.362 -0.246,-0.594Zm-1.704,6.864l2.088,-0l-0,-4.224l-1.872,-0l-0,-0.864l2.808,-0l-0,5.088l1.944,-0l-0,0.864l-4.968,-0l-0,-0.864Z" style="fill-rule:nonzero;"/><path d="M280.09,189.61l1.872,-0l-0,-2.448l0.936,-0l-0,2.448l2.304,-0l-0,0.864l-2.304,-0l-0,3.864c-0,0.24 0.108,0.36 0.324,0.36l1.692,-0l-0,0.864l-2.028,-0c-0.272,-0 -0.494,-0.088 -0.666,-0.264c-0.172,-0.176 -0.258,-0.4 -0.258,-0.672l-0,-4.152l-1.872,-0l-0,-0.864Z" style="fill-rule:nonzero;"/></g></g><path d="M361.062,201.062l-30,-0l-10,-10l10,-10l30,-0l-0,20Z" style="fill:#dae8fc;fill-rule:nonzero;stroke:#6c8ebf;stroke-width:1px;stroke-miterlimit:10;"/><g><g><path d="M338.91,194.554l-0.144,-0c-0.192,0.4 -0.458,0.696 -0.798,0.888c-0.34,0.192 -0.698,0.288 -1.074,0.288c-0.392,-0 -0.756,-0.066 -1.092,-0.198c-0.336,-0.132 -0.63,-0.328 -0.882,-0.588c-0.252,-0.26 -0.45,-0.578 -0.594,-0.954c-0.144,-0.376 -0.216,-0.812 -0.216,-1.308l-0,-0.192c-0,-0.488 0.072,-0.92 0.216,-1.296c0.144,-0.376 0.342,-0.694 0.594,-0.954c0.252,-0.26 0.546,-0.458 0.882,-0.594c0.336,-0.136 0.692,-0.204 1.068,-0.204c0.408,-0 0.778,0.09 1.11,0.27c0.332,0.18 0.594,0.458 0.786,0.834l0.144,-0l-0,-0.936l0.936,-0l-0,4.728c-0,0.24 0.108,0.36 0.324,0.36l0.3,-0l-0,0.864l-0.636,-0c-0.272,-0 -0.494,-0.088 -0.666,-0.264c-0.172,-0.176 -0.258,-0.4 -0.258,-0.672l-0,-0.072Zm-1.92,0.288c0.28,-0 0.538,-0.052 0.774,-0.156c0.236,-0.104 0.438,-0.252 0.606,-0.444c0.168,-0.192 0.3,-0.422 0.396,-0.69c0.096,-0.268 0.144,-0.566 0.144,-0.894l-0,-0.144c-0,-0.32 -0.048,-0.614 -0.144,-0.882c-0.096,-0.268 -0.23,-0.498 -0.402,-0.69c-0.172,-0.192 -0.376,-0.342 -0.612,-0.45c-0.236,-0.108 -0.49,-0.162 -0.762,-0.162c-0.28,-0 -0.536,0.052 -0.768,0.156c-0.232,0.104 -0.434,0.25 -0.606,0.438c-0.172,0.188 -0.306,0.416 -0.402,0.684c-0.096,0.268 -0.144,0.562 -0.144,0.882l-0,0.192c-0,0.68 0.178,1.21 0.534,1.59c0.356,0.38 0.818,0.57 1.386,0.57Z" style="fill-rule:nonzero;"/><path d="M346.542,194.65l-0.144,-0c-0.096,0.184 -0.218,0.344 -0.366,0.48c-0.148,0.136 -0.308,0.248 -0.48,0.336c-0.172,0.088 -0.354,0.154 -0.546,0.198c-0.192,0.044 -0.376,0.066 -0.552,0.066c-0.4,-0 -0.772,-0.068 -1.116,-0.204c-0.344,-0.136 -0.646,-0.332 -0.906,-0.588c-0.26,-0.256 -0.464,-0.574 -0.612,-0.954c-0.148,-0.38 -0.222,-0.814 -0.222,-1.302l-0,-0.192c-0,-0.48 0.076,-0.91 0.228,-1.29c0.152,-0.38 0.356,-0.7 0.612,-0.96c0.256,-0.26 0.556,-0.458 0.9,-0.594c0.344,-0.136 0.708,-0.204 1.092,-0.204c0.408,-0 0.79,0.09 1.146,0.27c0.356,0.18 0.63,0.458 0.822,0.834l0.144,-0l-0,-3.384l0.936,-0l-0,8.4l-0.936,-0l-0,-0.912Zm-1.992,0.192c0.28,-0 0.54,-0.052 0.78,-0.156c0.24,-0.104 0.45,-0.252 0.63,-0.444c0.18,-0.192 0.322,-0.422 0.426,-0.69c0.104,-0.268 0.156,-0.566 0.156,-0.894l-0,-0.144c-0,-0.32 -0.052,-0.614 -0.156,-0.882c-0.104,-0.268 -0.246,-0.498 -0.426,-0.69c-0.18,-0.192 -0.392,-0.342 -0.636,-0.45c-0.244,-0.108 -0.502,-0.162 -0.774,-0.162c-0.28,-0 -0.542,0.052 -0.786,0.156c-0.244,0.104 -0.456,0.252 -0.636,0.444c-0.18,0.192 -0.32,0.42 -0.42,0.684c-0.1,0.264 -0.15,0.556 -0.15,0.876l-0,0.192c-0,0.336 0.05,0.636 0.15,0.9c0.1,0.264 0.24,0.49 0.42,0.678c0.18,0.188 0.39,0.332 0.63,0.432c0.24,0.1 0.504,0.15 0.792,0.15Z" style="fill-rule:nonzero;"/><path d="M353.886,194.65l-0.144,-0c-0.096,0.184 -0.218,0.344 -0.366,0.48c-0.148,0.136 -0.308,0.248 -0.48,0.336c-0.172,0.088 -0.354,0.154 -0.546,0.198c-0.192,0.044 -0.376,0.066 -0.552,0.066c-0.4,-0 -0.772,-0.068 -1.116,-0.204c-0.344,-0.136 -0.646,-0.332 -0.906,-0.588c-0.26,-0.256 -0.464,-0.574 -0.612,-0.954c-0.148,-0.38 -0.222,-0.814 -0.222,-1.302l-0,-0.192c-0,-0.48 0.076,-0.91 0.228,-1.29c0.152,-0.38 0.356,-0.7 0.612,-0.96c0.256,-0.26 0.556,-0.458 0.9,-0.594c0.344,-0.136 0.708,-0.204 1.092,-0.204c0.408,-0 0.79,0.09 1.146,0.27c0.356,0.18 0.63,0.458 0.822,0.834l0.144,-0l-0,-3.384l0.936,-0l-0,8.4l-0.936,-0l-0,-0.912Zm-1.992,0.192c0.28,-0 0.54,-0.052 0.78,-0.156c0.24,-0.104 0.45,-0.252 0.63,-0.444c0.18,-0.192 0.322,-0.422 0.426,-0.69c0.104,-0.268 0.156,-0.566 0.156,-0.894l-0,-0.144c-0,-0.32 -0.052,-0.614 -0.156,-0.882c-0.104,-0.268 -0.246,-0.498 -0.426,-0.69c-0.18,-0.192 -0.392,-0.342 -0.636,-0.45c-0.244,-0.108 -0.502,-0.162 -0.774,-0.162c-0.28,-0 -0.542,0.052 -0.786,0.156c-0.244,0.104 -0.456,0.252 -0.636,0.444c-0.18,0.192 -0.32,0.42 -0.42,0.684c-0.1,0.264 -0.15,0.556 -0.15,0.876l-0,0.192c-0,0.336 0.05,0.636 0.15,0.9c0.1,0.264 0.24,0.49 0.42,0.678c0.18,0.188 0.39,0.332 0.63,0.432c0.24,0.1 0.504,0.15 0.792,0.15Z" style="fill-rule:nonzero;"/></g></g></svg>