                                                                        S      1
,,,9Hplane_cut,22HAutoCAD 2018 - English,62HAutodesk Translation FramewoG      1
rk DWG producer (atf_dwg_producer),32,38,7,99,15,,1.,2,2HMM,1,0.08,15H20G      2
190820.150220,0.01,10000.,,7Hunknown,11,0,15H20190820.141805;           G      3
     186       1                       0                        00000000D      1
     186            -239       1       0                               0D      2
     186       2                       0                        00000000D      3
     186            -239       1       0                               0D      4
     514       3                                                00010000D      5
     514                       1       1                               0D      6
     514       4                                                00010000D      7
     514                       1       1                               0D      8
     510       5                                                00010000D      9
     510            -239       1       1                               0D     10
     510       6                                                00010000D     11
     510            -239       1       1                               0D     12
     510       7                                                00010000D     13
     510            -239       1       1                               0D     14
     510       8                                                00010000D     15
     510            -239       1       1                               0D     16
     510       9                                                00010000D     17
     510            -239       1       1                               0D     18
     510      10                                                00010000D     19
     510            -239       1       1                               0D     20
     510      11                                                00010000D     21
     510            -239       1       1                               0D     22
     510      12                                                00010000D     23
     510            -239       1       1                               0D     24
     510      13                                                00010000D     25
     510            -239       1       1                               0D     26
     510      14                                                00010000D     27
     510            -239       1       1                               0D     28
     510      15                                                00010000D     29
     510            -239       1       1                               0D     30
     510      16                                                00010000D     31
     510            -239       1       1                               0D     32
     510      17                                                00010000D     33
     510            -239       1       1                               0D     34
     510      18                                                00010000D     35
     510            -239       1       1                               0D     36
     510      19                                                00010000D     37
     510            -239       1       1                               0D     38
     510      20                                                00010000D     39
     510            -239       1       1                               0D     40
     510      21                                                00010000D     41
     510            -239       1       1                               0D     42
     510      22                                                00010000D     43
     510            -239       1       1                               0D     44
     510      23                                                00010000D     45
     510            -239       1       1                               0D     46
     510      24                                                00010000D     47
     510            -239       1       1                               0D     48
     508      25                                                00010000D     49
     508                       1       1                               0D     50
     508      26                                                00010000D     51
     508                       1       1                               0D     52
     508      27                                                00010000D     53
     508                       1       1                               0D     54
     508      28                                                00010000D     55
     508                       1       1                               0D     56
     508      29                                                00010000D     57
     508                       1       1                               0D     58
     508      30                                                00010000D     59
     508                       1       1                               0D     60
     508      31                                                00010000D     61
     508                       1       1                               0D     62
     508      32                                                00010000D     63
     508                       1       1                               0D     64
     508      33                                                00010000D     65
     508                       2       1                               0D     66
     508      35                                                00010000D     67
     508                       2       1                               0D     68
     508      37                                                00010000D     69
     508                       1       1                               0D     70
     508      38                                                00010000D     71
     508                       1       1                               0D     72
     508      39                                                00010000D     73
     508                       1       1                               0D     74
     508      40                                                00010000D     75
     508                       1       1                               0D     76
     508      41                                                00010000D     77
     508                       1       1                               0D     78
     508      42                                                00010000D     79
     508                       1       1                               0D     80
     508      43                                                00010000D     81
     508                       1       1                               0D     82
     508      44                                                00010000D     83
     508                       1       1                               0D     84
     508      45                                                00010000D     85
     508                       2       1                               0D     86
     508      47                                                00010000D     87
     508                       2       1                               0D     88
     126      49                                                00010000D     89
     126       0               3       0                               0D     90
     126      52                                                00010000D     91
     126       0               3       0                               0D     92
     126      55                                                00010000D     93
     126       0               2       0                               0D     94
     126      57                                                00010000D     95
     126       0               2       0                               0D     96
     126      59                                                00010000D     97
     126       0               2       0                               0D     98
     126      61                                                00010000D     99
     126       0               2       0                               0D    100
     126      63                                                00010000D    101
     126       0               2       0                               0D    102
     126      65                                                00010000D    103
     126       0               3       0                               0D    104
     126      68                                                00010000D    105
     126       0               2       0                               0D    106
     126      70                                                00010000D    107
     126       0               2       0                               0D    108
     126      72                                                00010000D    109
     126       0               3       0                               0D    110
     126      75                                                00010000D    111
     126       0               2       0                               0D    112
     126      77                                                00010000D    113
     126       0               2       0                               0D    114
     126      79                                                00010000D    115
     126       0               3       0                               0D    116
     126      82                                                00010000D    117
     126       0               2       0                               0D    118
     126      84                                                00010000D    119
     126       0               2       0                               0D    120
     126      86                                                00010000D    121
     126       0               3       0                               0D    122
     126      89                                                00010000D    123
     126       0               2       0                               0D    124
     126      91                                                00010000D    125
     126       0               2       0                               0D    126
     126      93                                                00010000D    127
     126       0               3       0                               0D    128
     126      96                                                00010000D    129
     126       0               2       0                               0D    130
     126      98                                                00010000D    131
     126       0               2       0                               0D    132
     126     100                                                00010000D    133
     126       0               3       0                               0D    134
     126     103                                                00010000D    135
     126       0               2       0                               0D    136
     126     105                                                00010000D    137
     126       0               2       0                               0D    138
     126     107                                                00010000D    139
     126       0               2       0                               0D    140
     126     109                                                00010000D    141
     126       0               2       0                               0D    142
     126     111                                                00010000D    143
     126       0               2       0                               0D    144
     126     113                                                00010000D    145
     126       0               2       0                               0D    146
     126     115                                                00010000D    147
     126       0               2       0                               0D    148
     126     117                                                00010000D    149
     126       0               2       0                               0D    150
     126     119                                                00010000D    151
     126       0               2       0                               0D    152
     126     121                                                00010000D    153
     126       0               2       0                               0D    154
     126     123                                                00010000D    155
     126       0               2       0                               0D    156
     126     125                                                00010000D    157
     126       0               2       0                               0D    158
     126     127                                                00010000D    159
     126       0               2       0                               0D    160
     126     129                                                00010000D    161
     126       0               2       0                               0D    162
     126     131                                                00010000D    163
     126       0               2       0                               0D    164
     126     133                                                00010000D    165
     126       0               2       0                               0D    166
     126     135                                                00010000D    167
     126       0               2       0                               0D    168
     126     137                                                00010000D    169
     126       0               2       0                               0D    170
     126     139                                                00010000D    171
     126       0               2       0                               0D    172
     126     141                                                00010000D    173
     126       0               2       0                               0D    174
     126     143                                                00010000D    175
     126       0               2       0                               0D    176
     126     145                                                00010000D    177
     126       0               3       0                               0D    178
     126     148                                                00010000D    179
     126       0               2       0                               0D    180
     126     150                                                00010000D    181
     126       0               3       0                               0D    182
     126     153                                                00010000D    183
     126       0               3       0                               0D    184
     128     156                                                00010000D    185
     128       0    -239       4       0                               0D    186
     128     160                                                00010000D    187
     128       0    -239       5       0                               0D    188
     128     165                                                00010000D    189
     128       0    -239       4       0                               0D    190
     128     169                                                00010000D    191
     128       0    -239       5       0                               0D    192
     128     174                                                00010000D    193
     128       0    -239       4       0                               0D    194
     128     178                                                00010000D    195
     128       0    -239       4       0                               0D    196
     128     182                                                00010000D    197
     128       0    -239       5       0                               0D    198
     128     187                                                00010000D    199
     128       0    -239       5       0                               0D    200
     128     192                                                00010000D    201
     128       0    -239       8       0                               0D    202
     128     200                                                00010000D    203
     128       0    -239       6       0                               0D    204
     128     206                                                00010000D    205
     128       0    -239       4       0                               0D    206
     128     210                                                00010000D    207
     128       0    -239       4       0                               0D    208
     128     214                                                00010000D    209
     128       0    -239       4       0                               0D    210
     128     218                                                00010000D    211
     128       0    -239       4       0                               0D    212
     128     222                                                00010000D    213
     128       0    -239       4       0                               0D    214
     128     226                                                00010000D    215
     128       0    -239       5       0                               0D    216
     128     231                                                00010000D    217
     128       0    -239       4       0                               0D    218
     128     235                                                00010000D    219
     128       0    -239       5       0                               0D    220
     128     240                                                00010000D    221
     128       0    -239       6       0                               0D    222
     128     246                                                00010000D    223
     128       0    -239       5       0                               0D    224
     502     251                                                00010000D    225
     502                       7       1                               0D    226
     502     258                                                00010000D    227
     502                       6       1                               0D    228
     504     264                                                00010001D    229
     504                       7       1                               0D    230
     504     271                                                00010001D    231
     504                       7       1                               0D    232
     406     278                                                00000000D    233
     406                       1      15                               0D    234
     406     279                                                00000000D    235
     406                       1      15                               0D    236
     406     280                       0                        00000000D    237
     406                       1       3                               0D    238
     314     281                                                00000200D    239
     314                       1       0                               0D    240
186,5,1,0,0,1,233;                                                     1P      1
186,7,1,0,0,1,235;                                                     3P      2
514,10,9,1,11,1,13,1,15,1,17,1,19,1,21,1,23,1,25,1,27,1;               5P      3
514,10,29,1,31,1,33,1,35,1,37,1,39,1,41,1,43,1,45,1,47,1;              7P      4
510,185,1,1,49;                                                        9P      5
510,187,1,1,51;                                                       11P      6
510,189,1,1,53;                                                       13P      7
510,191,1,1,55;                                                       15P      8
510,193,1,1,57;                                                       17P      9
510,195,1,1,59;                                                       19P     10
510,197,1,1,61;                                                       21P     11
510,199,1,1,63;                                                       23P     12
510,201,1,1,65;                                                       25P     13
510,203,1,1,67;                                                       27P     14
510,205,1,1,69;                                                       29P     15
510,207,1,1,71;                                                       31P     16
510,209,1,1,73;                                                       33P     17
510,211,1,1,75;                                                       35P     18
510,213,1,1,77;                                                       37P     19
510,215,1,1,79;                                                       39P     20
510,217,1,1,81;                                                       41P     21
510,219,1,1,83;                                                       43P     22
510,221,1,1,85;                                                       45P     23
510,223,1,1,87;                                                       47P     24
508,4,0,229,1,0,0,0,229,2,1,0,0,229,3,0,0,0,229,4,0,0;                49P     25
508,4,0,229,5,0,0,0,229,4,1,0,0,229,6,0,0,0,229,7,0,0;                51P     26
508,4,0,229,8,0,0,0,229,7,1,0,0,229,9,0,0,0,229,10,0,0;               53P     27
508,4,0,229,11,0,0,0,229,10,1,0,0,229,12,0,0,0,229,13,0,0;            55P     28
508,4,0,229,14,0,0,0,229,13,1,0,0,229,15,0,0,0,229,16,0,0;            57P     29
508,4,0,229,17,0,0,0,229,16,1,0,0,229,18,0,0,0,229,19,0,0;            59P     30
508,4,0,229,20,0,0,0,229,19,1,0,0,229,21,0,0,0,229,22,0,0;            61P     31
508,4,0,229,23,0,0,0,229,22,1,0,0,229,24,0,0,0,229,2,0,0;             63P     32
508,8,0,229,23,1,0,0,229,1,1,0,0,229,5,1,0,0,229,8,1,0,0,229,11,      65P     33
1,0,0,229,14,1,0,0,229,17,1,0,0,229,20,1,0;                           65P     34
508,8,0,229,24,1,0,0,229,21,1,0,0,229,18,1,0,0,229,15,1,0,0,229,      67P     35
12,1,0,0,229,9,1,0,0,229,6,1,0,0,229,3,1,0;                           67P     36
508,4,0,231,1,0,0,0,231,2,1,0,0,231,3,0,0,0,231,4,0,0;                69P     37
508,4,0,231,5,0,0,0,231,4,1,0,0,231,6,0,0,0,231,7,0,0;                71P     38
508,4,0,231,8,0,0,0,231,7,1,0,0,231,9,0,0,0,231,10,0,0;               73P     39
508,4,0,231,11,0,0,0,231,10,1,0,0,231,12,0,0,0,231,13,0,0;            75P     40
508,4,0,231,14,0,0,0,231,13,1,0,0,231,15,0,0,0,231,16,0,0;            77P     41
508,4,0,231,17,0,0,0,231,16,1,0,0,231,18,0,0,0,231,19,0,0;            79P     42
508,4,0,231,20,0,0,0,231,19,1,0,0,231,21,0,0,0,231,22,0,0;            81P     43
508,4,0,231,23,0,0,0,231,22,1,0,0,231,24,0,0,0,231,2,0,0;             83P     44
508,8,0,231,23,1,0,0,231,1,1,0,0,231,5,1,0,0,231,8,1,0,0,231,11,      85P     45
1,0,0,231,14,1,0,0,231,17,1,0,0,231,20,1,0;                           85P     46
508,8,0,231,24,1,0,0,231,21,1,0,0,231,18,1,0,0,231,15,1,0,0,231,      87P     47
12,1,0,0,231,9,1,0,0,231,6,1,0,0,231,3,1,0;                           87P     48
126,1,1,0,0,1,0,-40.,-40.,0.,0.,1.,1.,40.,-4.92334642205295D-15,      89P     49
3.5527136788005D-15,40.,40.,3.5527136788005D-15,-40.,0.,0.,0.,        89P     50
0.;                                                                   89P     51
126,1,1,0,0,1,0,0.,0.,20.,20.,1.,1.,40.,-4.92334642205295D-15,        91P     52
3.5527136788005D-15,40.,-4.92334642205295D-15,20.,0.,20.,0.,0.,       91P     53
0.;                                                                   91P     54
126,1,1,0,0,1,0,0.,0.,40.,40.,1.,1.,40.,40.,20.,40.,                  93P     55
-4.92334642205295D-15,20.,0.,40.,0.,0.,0.;                            93P     56
126,1,1,0,0,1,0,0.,0.,20.,20.,1.,1.,40.,40.,3.5527136788005D-15,      95P     57
40.,40.,20.,0.,20.,0.,0.,0.;                                          95P     58
126,1,1,0,0,1,0,-40.,-40.,0.,0.,1.,1.,40.,40.,                        97P     59
3.5527136788005D-15,0.,40.,3.5527136788005D-15,-40.,0.,0.,0.,0.;      97P     60
126,1,1,0,0,1,0,0.,0.,40.,40.,1.,1.,0.,40.,20.,40.,40.,20.,0.,        99P     61
40.,0.,0.,0.;                                                         99P     62
126,1,1,0,0,1,0,0.,0.,20.,20.,1.,1.,0.,40.,3.5527136788005D-15,      101P     63
0.,40.,20.,0.,20.,0.,0.,0.;                                          101P     64
126,1,1,0,0,1,0,-840.,-840.,0.,0.,1.,1.,0.,40.,                      103P     65
3.5527136788005D-15,0.,880.,3.5527136788005D-15,-840.,0.,0.,0.,      103P     66
0.;                                                                  103P     67
126,1,1,0,0,1,0,0.,0.,840.,840.,1.,1.,0.,880.,20.,0.,40.,20.,0.,     105P     68
840.,0.,0.,0.;                                                       105P     69
126,1,1,0,0,1,0,0.,0.,20.,20.,1.,1.,0.,880.,3.5527136788005D-15,     107P     70
0.,880.,20.,0.,20.,0.,0.,0.;                                         107P     71
126,1,1,0,0,1,0,-40.,-40.,0.,0.,1.,1.,0.,880.,                       109P     72
3.5527136788005D-15,40.,880.,3.5527136788005D-15,-40.,0.,0.,0.,      109P     73
0.;                                                                  109P     74
126,1,1,0,0,1,0,0.,0.,40.,40.,1.,1.,40.,880.,20.,0.,880.,20.,0.,     111P     75
40.,0.,0.,0.;                                                        111P     76
126,1,1,0,0,1,0,0.,0.,20.,20.,1.,1.,40.,880.,                        113P     77
3.5527136788005D-15,40.,880.,20.,0.,20.,0.,0.,0.;                    113P     78
126,1,1,0,0,1,0,-40.,-40.,0.,0.,1.,1.,40.,880.,                      115P     79
3.5527136788005D-15,40.,920.,3.5527136788005D-15,-40.,0.,0.,0.,      115P     80
0.;                                                                  115P     81
126,1,1,0,0,1,0,0.,0.,40.,40.,1.,1.,40.,920.,20.,40.,880.,20.,       117P     82
0.,40.,0.,0.,0.;                                                     117P     83
126,1,1,0,0,1,0,0.,0.,20.,20.,1.,1.,40.,920.,                        119P     84
3.5527136788005D-15,40.,920.,20.,0.,20.,0.,0.,0.;                    119P     85
126,1,1,0,0,1,0,-400.,-400.,0.,0.,1.,1.,40.,920.,                    121P     86
3.5527136788005D-15,440.,920.,3.5527136788005D-15,-400.,0.,0.,       121P     87
0.,0.;                                                               121P     88
126,1,1,0,0,1,0,0.,0.,400.,400.,1.,1.,440.,920.,20.,40.,920.,        123P     89
20.,0.,400.,0.,0.,0.;                                                123P     90
126,1,1,0,0,1,0,0.,0.,20.,20.,1.,1.,440.,920.,                       125P     91
3.5527136788005D-15,440.,920.,20.,0.,20.,0.,0.,0.;                   125P     92
126,1,1,0,0,1,0,-920.,-920.,0.,0.,1.,1.,440.,920.,                   127P     93
3.5527136788005D-15,440.,-2.9416282405D-14,3.5527136788005D-15,      127P     94
-920.,0.,0.,0.,0.;                                                   127P     95
126,1,1,0,0,1,0,0.,0.,920.,920.,1.,1.,440.,-2.9416282405D-14,        129P     96
20.,440.,920.,20.,0.,920.,0.,0.,0.;                                  129P     97
126,1,1,0,0,1,0,0.,0.,20.,20.,1.,1.,440.,-2.9416282405D-14,          131P     98
3.5527136788005D-15,440.,-2.9416282405D-14,20.,0.,20.,0.,0.,0.;      131P     99
126,1,1,0,0,1,0,-400.,-400.,0.,0.,1.,1.,440.,-2.9416282405D-14,      133P    100
3.5527136788005D-15,40.,-4.92334642205295D-15,                       133P    101
3.5527136788005D-15,-400.,0.,0.,0.,0.;                               133P    102
126,1,1,0,0,1,0,0.,0.,400.,400.,1.,1.,40.,-4.92334642205295D-15,     135P    103
20.,440.,-2.9416282405D-14,20.,0.,400.,0.,0.,0.;                     135P    104
126,1,1,0,0,1,0,0.,0.,920.,920.,1.,1.,680.,                          137P    105
-4.41120439947682D-14,0.,680.,920.,0.,0.,920.,0.,0.,0.;              137P    106
126,1,1,0,0,1,0,0.,0.,20.,20.,1.,1.,680.,-4.41120439947682D-14,      139P    107
0.,680.,-4.41120439947682D-14,20.,0.,20.,0.,0.,0.;                   139P    108
126,1,1,0,0,1,0,-920.,-920.,0.,0.,1.,1.,680.,920.,20.,680.,          141P    109
-4.41120439947682D-14,20.,-920.,0.,0.,0.,0.;                         141P    110
126,1,1,0,0,1,0,0.,0.,20.,20.,1.,1.,680.,920.,0.,680.,920.,20.,      143P    111
0.,20.,0.,0.,0.;                                                     143P    112
126,1,1,0,0,1,0,0.,0.,400.,400.,1.,1.,680.,920.,0.,1080.,920.,       145P    113
0.,0.,400.,0.,0.,0.;                                                 145P    114
126,1,1,0,0,1,0,-400.,-400.,0.,0.,1.,1.,1080.,920.,20.,680.,         147P    115
920.,20.,-400.,0.,0.,0.,0.;                                          147P    116
126,1,1,0,0,1,0,0.,0.,20.,20.,1.,1.,1080.,920.,0.,1080.,920.,        149P    117
20.,0.,20.,0.,0.,0.;                                                 149P    118
126,1,1,0,0,1,0,0.,0.,40.,40.,1.,1.,1080.,920.,0.,1080.,880.,0.,     151P    119
0.,40.,0.,0.,0.;                                                     151P    120
126,1,1,0,0,1,0,-40.,-40.,0.,0.,1.,1.,1080.,880.,20.,1080.,920.,     153P    121
20.,-40.,0.,0.,0.,0.;                                                153P    122
126,1,1,0,0,1,0,0.,0.,20.,20.,1.,1.,1080.,880.,0.,1080.,880.,        155P    123
20.,0.,20.,0.,0.,0.;                                                 155P    124
126,1,1,0,0,1,0,0.,0.,40.,40.,1.,1.,1080.,880.,0.,1120.,880.,0.,     157P    125
0.,40.,0.,0.,0.;                                                     157P    126
126,1,1,0,0,1,0,-40.,-40.,0.,0.,1.,1.,1120.,880.,20.,1080.,880.,     159P    127
20.,-40.,0.,0.,0.,0.;                                                159P    128
126,1,1,0,0,1,0,0.,0.,20.,20.,1.,1.,1120.,880.,0.,1120.,880.,        161P    129
20.,0.,20.,0.,0.,0.;                                                 161P    130
126,1,1,0,0,1,0,0.,0.,840.,840.,1.,1.,1120.,880.,0.,1120.,           163P    131
39.9999999999999,0.,0.,840.,0.,0.,0.;                                163P    132
126,1,1,0,0,1,0,-840.,-840.,0.,0.,1.,1.,1120.,39.9999999999999,      165P    133
20.,1120.,880.,20.,-840.,0.,0.,0.,0.;                                165P    134
126,1,1,0,0,1,0,0.,0.,20.,20.,1.,1.,1120.,39.9999999999999,0.,       167P    135
1120.,39.9999999999999,20.,0.,20.,0.,0.,0.;                          167P    136
126,1,1,0,0,1,0,0.,0.,40.,40.,1.,1.,1120.,39.9999999999999,0.,       169P    137
1080.,39.9999999999999,0.,0.,40.,0.,0.,0.;                           169P    138
126,1,1,0,0,1,0,-40.,-40.,0.,0.,1.,1.,1080.,39.9999999999999,        171P    139
20.,1120.,39.9999999999999,20.,-40.,0.,0.,0.,0.;                     171P    140
126,1,1,0,0,1,0,0.,0.,20.,20.,1.,1.,1080.,39.9999999999999,0.,       173P    141
1080.,39.9999999999999,20.,0.,20.,0.,0.,0.;                          173P    142
126,1,1,0,0,1,0,0.,0.,40.,40.,1.,1.,1080.,39.9999999999999,0.,       175P    143
1080.,-6.86049799777153D-14,0.,0.,40.,0.,0.,0.;                      175P    144
126,1,1,0,0,1,0,-40.,-40.,0.,0.,1.,1.,1080.,                         177P    145
-6.86049799777153D-14,20.,1080.,39.9999999999999,20.,-40.,0.,0.,     177P    146
0.,0.;                                                               177P    147
126,1,1,0,0,1,0,0.,0.,20.,20.,1.,1.,1080.,-6.86049799777153D-14,     179P    148
0.,1080.,-6.86049799777153D-14,20.,0.,20.,0.,0.,0.;                  179P    149
126,1,1,0,0,1,0,0.,0.,400.,400.,1.,1.,1080.,                         181P    150
-6.86049799777153D-14,0.,680.,-4.41120439947682D-14,0.,0.,400.,      181P    151
0.,0.,0.;                                                            181P    152
126,1,1,0,0,1,0,-400.,-400.,0.,0.,1.,1.,680.,                        183P    153
-4.41120439947682D-14,20.,1080.,-6.86049799777153D-14,20.,-400.,     183P    154
0.,0.,0.,0.;                                                         183P    155
128,1,1,1,1,0,0,1,0,0,-0.001,-0.001,40.001,40.001,-0.001,-0.001,     185P    156
20.001,20.001,1.,1.,1.,1.,40.,40.001,-0.000999999999996447,40.,      185P    157
-0.00100000000000259,-0.000999999999996447,40.,40.001,20.001,        185P    158
40.,-0.00100000000000259,20.001,-0.001,40.001,-0.001,20.001;         185P    159
128,1,1,1,1,0,0,1,0,0,-0.001,-0.001,40.001,40.001,-0.001,-0.001,     187P    160
20.001,20.001,1.,1.,1.,1.,-0.000999999999976353,40.,                 187P    161
-0.000999999999996447,40.001,40.,-0.000999999999996447,              187P    162
-0.000999999999976353,40.,20.001,40.001,40.,20.001,-0.001,           187P    163
40.001,-0.001,20.001;                                                187P    164
128,1,1,1,1,0,0,1,0,0,-0.001,-0.001,840.001,840.001,-0.001,          189P    165
-0.001,20.001,20.001,1.,1.,1.,1.,0.,880.001,                         189P    166
-0.000999999999996447,0.,39.999,-0.000999999999996447,0.,            189P    167
880.001,20.001,0.,39.999,20.001,-0.001,840.001,-0.001,20.001;        189P    168
128,1,1,1,1,0,0,1,0,0,-0.001,-0.001,40.001,40.001,-0.001,-0.001,     191P    169
20.001,20.001,1.,1.,1.,1.,40.001,880.,-0.000999999999996447,         191P    170
-0.000999999999976353,880.,-0.000999999999996447,40.001,880.,        191P    171
20.001,-0.000999999999976353,880.,20.001,-0.001,40.001,-0.001,       191P    172
20.001;                                                              191P    173
128,1,1,1,1,0,0,1,0,0,-0.001,-0.001,40.001,40.001,-0.001,-0.001,     193P    174
20.001,20.001,1.,1.,1.,1.,40.,920.001,-0.000999999999996447,40.,     193P    175
879.999,-0.000999999999996447,40.,920.001,20.001,40.,879.999,        193P    176
20.001,-0.001,40.001,-0.001,20.001;                                  193P    177
128,1,1,1,1,0,0,1,0,0,-0.001,-0.001,400.001,400.001,-0.001,          195P    178
-0.001,20.001,20.001,1.,1.,1.,1.,440.001,920.,                       195P    179
-0.000999999999996447,39.999,920.,-0.000999999999996447,440.001,     195P    180
920.,20.001,39.999,920.,20.001,-0.001,400.001,-0.001,20.001;         195P    181
128,1,1,1,1,0,0,1,0,0,-0.001,-0.001,920.001,920.001,-0.001,          197P    182
-0.001,20.001,20.001,1.,1.,1.,1.,440.,-0.00100000000002942,          197P    183
-0.000999999999996447,440.,920.001,-0.000999999999996447,440.,       197P    184
-0.00100000000002942,20.001,440.,920.001,20.001,-0.001,920.001,      197P    185
-0.001,20.001;                                                       197P    186
128,1,1,1,1,0,0,1,0,0,-0.001,-0.001,400.001,400.001,-0.001,          199P    187
-0.001,20.001,20.001,1.,1.,1.,1.,39.999,-4.923285189713D-15,         199P    188
-0.000999999999996447,440.001,-2.941634363734D-14,                   199P    189
-0.000999999999996447,39.999,-4.923285189713D-15,20.001,440.001,     199P    190
-2.941634363734D-14,20.001,-0.001,400.001,-0.001,20.001;             199P    191
128,1,1,1,1,0,0,1,0,0,-460.001,-460.001,460.001,460.001,             201P    192
-218.824529411765,-218.824529411765,221.177470588235,                201P    193
221.177470588235,1.,1.,1.,1.,440.001,920.001,                        201P    194
3.5527136788005D-15,440.001,-0.00100000000000577,                    201P    195
3.5527136788005D-15,-0.000999999999976353,920.001,                   201P    196
3.5527136788005D-15,-0.000999999999976353,-0.000999999999978827,     201P    197
3.5527136788005D-15,-460.001,460.001,-218.824529411765,              201P    198
221.177470588235;                                                    201P    199
128,1,1,1,1,0,0,1,0,0,-460.001,-460.001,460.001,460.001,             203P    200
-218.824529411765,-218.824529411765,221.177470588235,                203P    201
221.177470588235,1.,1.,1.,1.,440.001,-0.00100000000000577,20.,       203P    202
440.001,920.001,20.,-0.000999999999976353,-0.000999999999978827,     203P    203
20.,-0.000999999999976353,920.001,20.,-460.001,460.001,              203P    204
-218.824529411765,221.177470588235;                                  203P    205
128,1,1,1,1,0,0,1,0,0,-0.001,-0.001,920.001,920.001,-0.001,          205P    206
-0.001,20.001,20.001,1.,1.,1.,1.,680.,920.001,-0.001,680.,           205P    207
-0.00100000000002047,-0.001,680.,920.001,20.001,680.,                205P    208
-0.00100000000002047,20.001,-0.001,920.001,-0.001,20.001;            205P    209
128,1,1,1,1,0,0,1,0,0,-0.001,-0.001,400.001,400.001,-0.001,          207P    210
-0.001,20.001,20.001,1.,1.,1.,1.,1080.001,920.,-0.001,679.999,       207P    211
920.,-0.001,1080.001,920.,20.001,679.999,920.,20.001,-0.001,         207P    212
400.001,-0.001,20.001;                                               207P    213
128,1,1,1,1,0,0,1,0,0,-0.001,-0.001,40.001,40.001,-0.001,-0.001,     209P    214
20.001,20.001,1.,1.,1.,1.,1080.,879.999,-0.001,1080.,920.001,        209P    215
-0.001,1080.,879.999,20.001,1080.,920.001,20.001,-0.001,40.001,      209P    216
-0.001,20.001;                                                       209P    217
128,1,1,1,1,0,0,1,0,0,-0.001,-0.001,40.001,40.001,-0.001,-0.001,     211P    218
20.001,20.001,1.,1.,1.,1.,1120.001,880.,-0.001,1079.999,880.,        211P    219
-0.001,1120.001,880.,20.001,1079.999,880.,20.001,-0.001,40.001,      211P    220
-0.001,20.001;                                                       211P    221
128,1,1,1,1,0,0,1,0,0,-0.001,-0.001,840.001,840.001,-0.001,          213P    222
-0.001,20.001,20.001,1.,1.,1.,1.,1120.,39.9989999999999,-0.001,      213P    223
1120.,880.001,-0.001,1120.,39.9989999999999,20.001,1120.,            213P    224
880.001,20.001,-0.001,840.001,-0.001,20.001;                         213P    225
128,1,1,1,1,0,0,1,0,0,-0.001,-0.001,40.001,40.001,-0.001,-0.001,     215P    226
20.001,20.001,1.,1.,1.,1.,1079.999,39.9999999999999,-0.001,          215P    227
1120.001,39.9999999999999,-0.001,1079.999,39.9999999999999,          215P    228
20.001,1120.001,39.9999999999999,20.001,-0.001,40.001,-0.001,        215P    229
20.001;                                                              215P    230
128,1,1,1,1,0,0,1,0,0,-0.001,-0.001,40.001,40.001,-0.001,-0.001,     217P    231
20.001,20.001,1.,1.,1.,1.,1080.,-0.00100000000006861,-0.001,         217P    232
1080.,40.0009999999999,-0.001,1080.,-0.00100000000006861,20.001,     217P    233
1080.,40.0009999999999,20.001,-0.001,40.001,-0.001,20.001;           217P    234
128,1,1,1,1,0,0,1,0,0,-0.001,-0.001,400.001,400.001,-0.001,          219P    235
-0.001,20.001,20.001,1.,1.,1.,1.,679.999,-4.41119827624283D-14,      219P    236
-0.001,1080.001,-6.86050412100553D-14,-0.001,679.999,                219P    237
-4.41119827624283D-14,20.001,1080.001,-6.86050412100553D-14,         219P    238
20.001,-0.001,400.001,-0.001,20.001;                                 219P    239
128,1,1,1,1,0,0,1,0,0,-460.001,-460.001,460.001,460.001,             221P    240
-221.177470588235,-221.177470588235,218.824529411765,                221P    241
218.824529411765,1.,1.,1.,1.,1120.001,920.001,0.,1120.001,           221P    242
-0.00100000000004741,0.,679.999,920.001,0.,679.999,                  221P    243
-0.00100000000002047,0.,-460.001,460.001,-221.177470588235,          221P    244
218.824529411765;                                                    221P    245
128,1,1,1,1,0,0,1,0,0,-460.001,-460.001,460.001,460.001,             223P    246
-221.177470588235,-221.177470588235,218.824529411765,                223P    247
218.824529411765,1.,1.,1.,1.,1120.001,-0.00100000000004741,20.,      223P    248
1120.001,920.001,20.,679.999,-0.00100000000002047,20.,679.999,       223P    249
920.001,20.,-460.001,460.001,-221.177470588235,218.824529411765;     223P    250
502,16,40.,-4.92334642205295D-15,3.5527136788005D-15,40.,40.,        225P    251
3.5527136788005D-15,40.,-4.92334642205295D-15,20.,40.,40.,20.,       225P    252
0.,40.,3.5527136788005D-15,0.,40.,20.,0.,880.,                       225P    253
3.5527136788005D-15,0.,880.,20.,40.,880.,3.5527136788005D-15,        225P    254
40.,880.,20.,40.,920.,3.5527136788005D-15,40.,920.,20.,440.,         225P    255
920.,3.5527136788005D-15,440.,920.,20.,440.,-2.9416282405D-14,       225P    256
3.5527136788005D-15,440.,-2.9416282405D-14,20.;                      225P    257
502,16,680.,-4.41120439947682D-14,0.,680.,920.,0.,680.,              227P    258
-4.41120439947682D-14,20.,680.,920.,20.,1080.,920.,0.,1080.,         227P    259
920.,20.,1080.,880.,0.,1080.,880.,20.,1120.,880.,0.,1120.,880.,      227P    260
20.,1120.,39.9999999999999,0.,1120.,39.9999999999999,20.,1080.,      227P    261
39.9999999999999,0.,1080.,39.9999999999999,20.,1080.,                227P    262
-6.86049799777153D-14,0.,1080.,-6.86049799777153D-14,20.;            227P    263
504,24,89,225,1,225,2,91,225,1,225,3,93,225,4,225,3,95,225,2,        229P    264
225,4,97,225,2,225,5,99,225,6,225,4,101,225,5,225,6,103,225,5,       229P    265
225,7,105,225,8,225,6,107,225,7,225,8,109,225,7,225,9,111,225,       229P    266
10,225,8,113,225,9,225,10,115,225,9,225,11,117,225,12,225,10,        229P    267
119,225,11,225,12,121,225,11,225,13,123,225,14,225,12,125,225,       229P    268
13,225,14,127,225,13,225,15,129,225,16,225,14,131,225,15,225,16,     229P    269
133,225,15,225,1,135,225,3,225,16;                                   229P    270
504,24,137,227,1,227,2,139,227,1,227,3,141,227,4,227,3,143,227,      231P    271
2,227,4,145,227,2,227,5,147,227,6,227,4,149,227,5,227,6,151,227,     231P    272
5,227,7,153,227,8,227,6,155,227,7,227,8,157,227,7,227,9,159,227,     231P    273
10,227,8,161,227,9,227,10,163,227,9,227,11,165,227,12,227,10,        231P    274
167,227,11,227,12,169,227,11,227,13,171,227,14,227,12,173,227,       231P    275
13,227,14,175,227,13,227,15,177,227,16,227,14,179,227,15,227,16,     231P    276
181,227,15,227,1,183,227,3,227,16;                                   231P    277
406,1,2H59;                                                          233P    278
406,1,2H5D;                                                          235P    279
406,2,0,1H0;                                                         237P    280
314,100.,100.,100.,;                                                 239P    281
S      1G      3D    240P    281                                        T      1
