                                                                        S      1
,,,7Hgripper,22HAutoCAD 2018 - English,62HAutodesk Translation FrameworkG      1
 DWG producer (atf_dwg_producer),32,38,7,99,15,,1.,2,2HMM,1,0.08,15H2019G      2
1010.165730,0.01,10000.,,7Hunknown,11,0,15H20191010.164336;             G      3
     124       1                                                00000000D      1
     124                       1       0                               0D      2
     100       2                       0               1        00000000D      3
     100       0    -115       2       0                               0D      4
     186       4                       0                        00000000D      5
     186            -115       1       0                               0D      6
     186       5                       0                        00000000D      7
     186            -115       1       0                               0D      8
     186       6                       0                        00000000D      9
     186            -115       1       0                               0D     10
     514       7                                                00010000D     11
     514                       1       1                               0D     12
     514       8                                                00010000D     13
     514                       1       1                               0D     14
     514       9                                                00010000D     15
     514                       1       1                               0D     16
     510      10                                                00010000D     17
     510            -115       1       1                               0D     18
     510      11                                                00010000D     19
     510            -115       1       1                               0D     20
     510      12                                                00010000D     21
     510            -115       1       1                               0D     22
     510      13                                                00010000D     23
     510            -115       1       1                               0D     24
     510      14                                                00010000D     25
     510            -115       1       1                               0D     26
     510      15                                                00010000D     27
     510            -115       1       1                               0D     28
     510      16                                                00010000D     29
     510            -115       1       1                               0D     30
     510      17                                                00010000D     31
     510            -115       1       1                               0D     32
     510      18                                                00010000D     33
     510            -115       1       1                               0D     34
     508      19                                                00010000D     35
     508                       1       1                               0D     36
     508      20                                                00010000D     37
     508                       2       1                               0D     38
     508      22                                                00010000D     39
     508                       1       1                               0D     40
     508      23                                                00010000D     41
     508                       1       1                               0D     42
     508      24                                                00010000D     43
     508                       1       1                               0D     44
     508      25                                                00010000D     45
     508                       1       1                               0D     46
     508      26                                                00010000D     47
     508                       1       1                               0D     48
     508      27                                                00010000D     49
     508                       1       1                               0D     50
     508      28                                                00010000D     51
     508                       1       1                               0D     52
     126      29                                                00010000D     53
     126       0               6       0                               0D     54
     126      35                                                00010000D     55
     126       0               8       0                               0D     56
     126      43                                                00010000D     57
     126       0               4       0                               0D     58
     126      47                                                00010000D     59
     126       0               6       0                               0D     60
     126      53                                                00010000D     61
     126       0               7       0                               0D     62
     126      60                                                00010000D     63
     126       0              10       0                               0D     64
     126      70                                                00010000D     65
     126       0               2       0                               0D     66
     126      72                                                00010000D     67
     126       0              10       0                               0D     68
     126      82                                                00010000D     69
     126       0              10       0                               0D     70
     126      92                                                00010000D     71
     126       0               2       0                               0D     72
     126      94                                                00010000D     73
     126       0              10       0                               0D     74
     128     104                                                00010000D     75
     128       0    -115       4       0                               0D     76
     128     108                                                00010000D     77
     128       0    -115      18       0                               0D     78
     128     126                                                00010000D     79
     128       0    -115       4       0                               0D     80
     128     130                                                00010000D     81
     128       0    -115      11       0                               0D     82
     128     141                                                00010000D     83
     128       0    -115       4       0                               0D     84
     128     145                                                00010000D     85
     128       0    -115       4       0                               0D     86
     128     149                                                00010000D     87
     128       0    -115      11       0                               0D     88
     128     160                                                00010000D     89
     128       0    -115       4       0                               0D     90
     128     164                                                00010000D     91
     128       0    -115       4       0                               0D     92
     502     168                                                00010000D     93
     502                       3       1                               0D     94
     502     171                                                00010000D     95
     502                       1       1                               0D     96
     502     172                                                00010000D     97
     502                       1       1                               0D     98
     504     173                                                00010001D     99
     504                       2       1                               0D    100
     504     175                                                00010001D    101
     504                       1       1                               0D    102
     504     176                                                00010001D    103
     504                       1       1                               0D    104
     406     177                                                00000000D    105
     406                       1      15                               0D    106
     406     178                                                00000000D    107
     406                       1      15                               0D    108
     406     179                                                00000000D    109
     406                       1      15                               0D    110
     406     180                                                00000000D    111
     406                       1      15                               0D    112
     406     181                       0                        00000000D    113
     406                       1       3                               0D    114
     314     182                                                00000200D    115
     314                       1       0                               0D    116
124,-1.,0.,0.,0.,0.,-1.,0.,0.,0.,0.,1.,0.;                             1P      1
100,0.,0.,0.,-15.,-1.83697019872103D-15,-15.,                          3P      2
-1.83697019872103D-15,0,1,111;                                         3P      3
186,11,1,0,0,1,105;                                                    5P      4
186,13,1,0,0,1,107;                                                    7P      5
186,15,1,0,0,1,109;                                                    9P      6
514,3,17,1,19,1,21,1;                                                 11P      7
514,3,23,1,25,1,27,1;                                                 13P      8
514,3,29,1,31,1,33,1;                                                 15P      9
510,75,1,1,35;                                                        17P     10
510,77,1,1,37;                                                        19P     11
510,79,1,1,39;                                                        21P     12
510,81,1,1,41;                                                        23P     13
510,83,1,1,43;                                                        25P     14
510,85,1,1,45;                                                        27P     15
510,87,1,1,47;                                                        29P     16
510,89,1,1,49;                                                        31P     17
510,91,1,1,51;                                                        33P     18
508,2,0,99,1,0,0,0,99,2,0,0;                                          35P     19
508,6,0,99,1,1,0,0,99,3,1,0,0,99,4,0,0,0,99,5,0,0,0,99,3,0,0,0,       37P     20
99,2,1,0;                                                             37P     21
508,2,0,99,4,1,0,0,99,5,1,0;                                          39P     22
508,4,0,101,1,0,0,0,101,2,1,0,0,101,3,1,0,0,101,2,0,0;                41P     23
508,1,0,101,1,1,0;                                                    43P     24
508,1,0,101,3,0,0;                                                    45P     25
508,4,0,103,1,0,0,0,103,2,1,0,0,103,3,1,0,0,103,2,0,0;                47P     26
508,1,0,103,1,1,0;                                                    49P     27
508,1,0,103,3,0,0;                                                    51P     28
126,4,2,0,0,0,0,0.,0.,0.,1.5707963267949,1.5707963267949,             53P     29
3.14159265358979,3.14159265358979,3.14159265358979,1.,                53P     30
0.707106781186548,1.,0.707106781186548,1.,10.,                        53P     31
1.45170164149888D-14,40.,10.,10.,40.,1.48231781147757D-14,10.,        53P     32
40.,-9.99999999999998,10.,40.,-9.99999999999999,                      53P     33
1.57416632141362D-14,40.,0.,3.14159265358979,0.,0.,0.;                53P     34
126,4,2,0,0,0,0,3.14159265358979,3.14159265358979,                    55P     35
3.14159265358979,4.71238898038469,4.71238898038469,                   55P     36
6.28318530717959,6.28318530717959,6.28318530717959,1.,                55P     37
0.707106781186548,1.,0.707106781186548,1.,-9.99999999999999,          55P     38
1.57416632141362D-14,40.,-9.99999999999999,-9.99999999999998,         55P     39
40.,1.2373884516481D-14,-9.99999999999999,40.,10.,                    55P     40
-9.99999999999999,40.,10.,1.20677228166941D-14,40.,                   55P     41
3.14159265358979,6.28318530717959,0.,0.,0.;                           55P     42
126,1,1,0,0,1,0,0.471404520791032,0.471404520791032,                  57P     43
1.4142135623731,1.4142135623731,1.,1.,-9.99999999999998,              57P     44
1.45170164149888D-14,40.,-15.,1.51293398145625D-14,45.,               57P     45
0.471404520791032,1.4142135623731,0.,0.,0.;                           57P     46
126,4,2,0,0,0,0,0.,0.,0.,1.5707963267949,1.5707963267949,             59P     47
3.14159265358979,3.14159265358979,3.14159265358979,1.,                59P     48
0.707106781186548,1.,0.707106781186547,1.,15.,                        59P     49
1.51293398145625D-14,45.,15.,15.,45.,1.51293398145625D-14,15.,        59P     50
45.,-15.,15.,45.,-15.,1.69663100132835D-14,45.,0.,                    59P     51
3.14159265358979,0.,0.,0.;                                            59P     52
126,4,2,0,0,0,0,3.14159265358979,3.14159265358979,                    61P     53
3.14159265358979,4.71238898038469,4.71238898038469,                   61P     54
6.28318530717959,6.28318530717959,6.28318530717959,1.,                61P     55
0.707106781186548,1.,0.707106781186547,1.,-15.,                       61P     56
1.69663100132835D-14,45.,-15.,-15.,45.,1.14553994171205D-14,          61P     57
-15.,45.,15.,-15.,45.,15.,1.14553994171205D-14,45.,                   61P     58
3.14159265358979,6.28318530717959,0.,0.,0.;                           61P     59
126,8,2,0,1,0,0,-3.14159265358979,-3.14159265358979,                  63P     60
-3.14159265358979,-1.5707963267949,-1.5707963267949,0.,0.,            63P     61
1.5707963267949,1.5707963267949,3.14159265358979,                     63P     62
3.14159265358979,3.14159265358979,1.,0.707106781186548,1.,            63P     63
0.707106781186548,1.,0.707106781186548,1.,0.707106781186548,1.,       63P     64
10.,1.22464679914735D-15,40.,10.,10.,40.,-6.12323399573677D-16,       63P     65
10.,40.,-10.,10.,40.,-10.,0.,40.,-10.,-10.,40.,                       63P     66
-6.12323399573677D-16,-10.,40.,10.,-10.,40.,10.,                      63P     67
-1.22464679914735D-15,40.,-3.14159265358979,3.14159265358979,0.,      63P     68
0.,0.;                                                                63P     69
126,1,1,0,0,1,0,-3.5,-3.5,0.,0.,1.,1.,10.,0.,40.,10.,0.,5.,-3.5,      65P     70
0.,0.,0.,0.;                                                          65P     71
126,8,2,0,1,0,0,-3.14159265358979,-3.14159265358979,                  67P     72
-3.14159265358979,-1.5707963267949,-1.5707963267949,0.,0.,            67P     73
1.5707963267949,1.5707963267949,3.14159265358979,                     67P     74
3.14159265358979,3.14159265358979,1.,0.707106781186548,1.,            67P     75
0.707106781186548,1.,0.707106781186548,1.,0.707106781186548,1.,       67P     76
10.,1.22464679914735D-15,5.,10.,10.,5.,-6.12323399573677D-16,         67P     77
10.,5.,-10.,10.,5.,-10.,0.,5.,-10.,-10.,5.,                           67P     78
-6.12323399573677D-16,-10.,5.,10.,-10.,5.,10.,                        67P     79
-1.22464679914735D-15,5.,-3.14159265358979,3.14159265358979,0.,       67P     80
0.,0.;                                                                67P     81
126,8,2,0,1,0,0,-3.14159265358979,-3.14159265358979,                  69P     82
-3.14159265358979,-1.5707963267949,-1.5707963267949,0.,0.,            69P     83
1.5707963267949,1.5707963267949,3.14159265358979,                     69P     84
3.14159265358979,3.14159265358979,1.,0.707106781186548,1.,            69P     85
0.707106781186548,1.,0.707106781186548,1.,0.707106781186548,1.,       69P     86
20.,2.44929359829471D-15,5.,20.,20.,5.,-1.22464679914735D-15,         69P     87
20.,5.,-20.,20.,5.,-20.,0.,5.,-20.,-20.,5.,                           69P     88
-1.22464679914735D-15,-20.,5.,20.,-20.,5.,20.,                        69P     89
-2.44929359829471D-15,5.,-3.14159265358979,3.14159265358979,0.,       69P     90
0.,0.;                                                                69P     91
126,1,1,0,0,1,0,-0.25,-0.25,0.,0.,1.,1.,20.,0.,5.,20.,0.,0.,          71P     92
-0.25,0.,0.,0.,0.;                                                    71P     93
126,8,2,0,1,0,0,-3.14159265358979,-3.14159265358979,                  73P     94
-3.14159265358979,-1.5707963267949,-1.5707963267949,0.,0.,            73P     95
1.5707963267949,1.5707963267949,3.14159265358979,                     73P     96
3.14159265358979,3.14159265358979,1.,0.707106781186548,1.,            73P     97
0.707106781186548,1.,0.707106781186548,1.,0.707106781186548,1.,       73P     98
20.,2.44929359829471D-15,0.,20.,20.,0.,-1.22464679914735D-15,         73P     99
20.,0.,-20.,20.,0.,-20.,0.,0.,-20.,-20.,0.,                           73P    100
-1.22464679914735D-15,-20.,0.,20.,-20.,0.,20.,                        73P    101
-2.44929359829471D-15,0.,-3.14159265358979,3.14159265358979,0.,       73P    102
0.,0.;                                                                73P    103
128,1,1,1,1,0,0,1,0,0,-10.001,-10.001,10.001,10.001,-10.001,          75P    104
-10.001,10.001,10.001,1.,1.,1.,1.,-10.001,10.001,40.,10.001,          75P    105
10.001,40.,-10.001,-10.001,40.,10.001,-10.001,40.,-10.001,            75P    106
10.001,-10.001,10.001;                                                75P    107
128,1,8,1,2,0,1,0,0,1,-1.4142135623731,-1.4142135623731,              77P    108
-0.471404520791032,-0.471404520791032,-3.14159265358979,              77P    109
-3.14159265358979,-3.14159265358979,-1.5707963267949,                 77P    110
-1.5707963267949,0.,0.,1.5707963267949,1.5707963267949,               77P    111
3.14159265358979,3.14159265358979,3.14159265358979,1.,1.,             77P    112
0.707106781186548,0.707106781186548,1.,1.,0.707106781186548,          77P    113
0.707106781186548,1.,1.,0.707106781186548,0.707106781186548,1.,       77P    114
1.,0.707106781186548,0.707106781186548,1.,1.,-9.99999999999998,       77P    115
1.45170164149888D-14,40.,-15.,1.51293398145625D-14,45.,               77P    116
-9.99999999999998,10.,40.,-15.,15.,45.,1.4210854715202D-14,10.,       77P    117
40.,1.4210854715202D-14,15.,45.,10.,10.,40.,15.,15.,45.,10.,          77P    118
1.45170164149888D-14,40.,15.,1.51293398145625D-14,45.,10.,            77P    119
-9.99999999999998,40.,15.,-15.,45.,1.4210854715202D-14,               77P    120
-9.99999999999998,40.,1.4210854715202D-14,-15.,45.,                   77P    121
-9.99999999999998,-9.99999999999998,40.,-15.,-15.,45.,                77P    122
-9.99999999999998,1.45170164149888D-14,40.,-15.,                      77P    123
1.51293398145625D-14,45.,-1.4142135623731,-0.471404520791032,         77P    124
-3.14159265358979,3.14159265358979;                                   77P    125
128,1,1,1,1,0,0,1,0,0,-15.001,-15.001,15.001,15.001,-15.001,          79P    126
-15.001,15.001,15.001,1.,1.,1.,1.,15.001,15.001,45.,-15.001,          79P    127
15.001,45.,15.001,-15.001,45.,-15.001,-15.001,45.,-15.001,            79P    128
15.001,-15.001,15.001;                                                79P    129
128,1,8,1,2,0,1,0,0,1,0.,0.,3.5,3.5,-3.14159265358979,                81P    130
-3.14159265358979,-3.14159265358979,-1.5707963267949,                 81P    131
-1.5707963267949,0.,0.,1.5707963267949,1.5707963267949,               81P    132
3.14159265358979,3.14159265358979,3.14159265358979,1.,1.,             81P    133
0.707106781186548,0.707106781186548,1.,1.,0.707106781186548,          81P    134
0.707106781186548,1.,1.,0.707106781186548,0.707106781186548,1.,       81P    135
1.,0.707106781186548,0.707106781186548,1.,1.,10.,0.,40.,10.,0.,       81P    136
5.,10.,10.,40.,10.,10.,5.,0.,10.,40.,0.,10.,5.,-10.,10.,40.,          81P    137
-10.,10.,5.,-10.,0.,40.,-10.,0.,5.,-10.,-10.,40.,-10.,-10.,5.,        81P    138
0.,-10.,40.,0.,-10.,5.,10.,-10.,40.,10.,-10.,5.,10.,0.,40.,10.,       81P    139
0.,5.,0.,3.5,-3.14159265358979,3.14159265358979;                      81P    140
128,1,1,1,1,0,0,1,0,0,-10.001,-10.001,10.001,10.001,-10.001,          83P    141
-10.001,10.001,10.001,1.,1.,1.,1.,-10.001,-10.001,40.,10.001,         83P    142
-10.001,40.,-10.001,10.001,40.,10.001,10.001,40.,-10.001,10.001,      83P    143
-10.001,10.001;                                                       83P    144
128,1,1,1,1,0,0,1,0,0,-10.001,-10.001,10.001,10.001,-10.001,          85P    145
-10.001,10.001,10.001,1.,1.,1.,1.,10.001,-10.001,5.,-10.001,          85P    146
-10.001,5.,10.001,10.001,5.,-10.001,10.001,5.,-10.001,10.001,         85P    147
-10.001,10.001;                                                       85P    148
128,1,8,1,2,0,1,0,0,1,0.,0.,0.25,0.25,-3.14159265358979,              87P    149
-3.14159265358979,-3.14159265358979,-1.5707963267949,                 87P    150
-1.5707963267949,0.,0.,1.5707963267949,1.5707963267949,               87P    151
3.14159265358979,3.14159265358979,3.14159265358979,1.,1.,             87P    152
0.707106781186548,0.707106781186548,1.,1.,0.707106781186548,          87P    153
0.707106781186548,1.,1.,0.707106781186548,0.707106781186548,1.,       87P    154
1.,0.707106781186548,0.707106781186548,1.,1.,20.,0.,5.,20.,0.,        87P    155
0.,20.,20.,5.,20.,20.,0.,0.,20.,5.,0.,20.,0.,-20.,20.,5.,-20.,        87P    156
20.,0.,-20.,0.,5.,-20.,0.,0.,-20.,-20.,5.,-20.,-20.,0.,0.,-20.,       87P    157
5.,0.,-20.,0.,20.,-20.,5.,20.,-20.,0.,20.,0.,5.,20.,0.,0.,0.,         87P    158
0.25,-3.14159265358979,3.14159265358979;                              87P    159
128,1,1,1,1,0,0,1,0,0,-20.001,-20.001,20.001,20.001,-20.001,          89P    160
-20.001,20.001,20.001,1.,1.,1.,1.,-20.001,-20.001,5.,20.001,          89P    161
-20.001,5.,-20.001,20.001,5.,20.001,20.001,5.,-20.001,20.001,         89P    162
-20.001,20.001;                                                       89P    163
128,1,1,1,1,0,0,1,0,0,-20.001,-20.001,20.001,20.001,-20.001,          91P    164
-20.001,20.001,20.001,1.,1.,1.,1.,20.001,-20.001,0.,-20.001,          91P    165
-20.001,0.,20.001,20.001,0.,-20.001,20.001,0.,-20.001,20.001,         91P    166
-20.001,20.001;                                                       91P    167
502,4,10.,1.45170164149888D-14,40.,-9.99999999999998,                 93P    168
1.45170164149888D-14,40.,-15.,1.51293398145625D-14,45.,15.,           93P    169
1.51293398145625D-14,45.;                                             93P    170
502,2,10.,1.22464679914735D-15,40.,10.,1.22464679914735D-15,5.;       95P    171
502,2,20.,2.44929359829471D-15,5.,20.,2.44929359829471D-15,0.;        97P    172
504,5,53,93,1,93,2,55,93,2,93,1,57,93,2,93,3,59,93,4,93,3,61,93,      99P    173
3,93,4;                                                               99P    174
504,3,63,95,1,95,1,65,95,1,95,2,67,95,2,95,2;                        101P    175
504,3,69,97,1,97,1,71,97,1,97,2,73,97,2,97,2;                        103P    176
406,1,2H58;                                                          105P    177
406,1,2H5B;                                                          107P    178
406,1,2H5F;                                                          109P    179
406,1,2H63;                                                          111P    180
406,2,0,1H0;                                                         113P    181
314,100.,100.,100.,;                                                 115P    182
S      1G      3D    116P    182                                        T      1
