<?xml version="1.0" encoding="ISO-8859-1" standalone="yes"?>
<!DOCTYPE svg PUBLIC "-//W3C//DTD SVG 20010904//EN"
  "http://www.w3.org/TR/2001/REC-SVG-20010904/DTD/svg10.dtd">
<svg width="26.3471cm" height="7.4221cm" viewBox="280.9453 1233 3734.2344 1051.9453" version="1.0"
    xmlns="http://www.w3.org/2000/svg"
    xmlns:xlink="http://www.w3.org/1999/xlink">
<desc>
  Exported by the ArtWorks SVGExport module.
  Source document: SCSI::Develop.$.Develop.Web.!WebXpress.^.Input.cm.Pages.crypto.enigma.i.artwork.i_schema
</desc>
<g transform="matrix(1 0 0 -1 0 3517.9453)" stroke-miterlimit="16" fill-rule="evenodd" clip-rule="evenodd" stroke-linejoin="bevel" stroke-linecap="butt">
<path d="M1771.5547 1530.6172 1672.3438 1502.2734 1693.5469 1530.5625 1672.3438 1558.9609 1771.5547 1530.6172 Z" fill="#82bae6"/>
<path d="M1672.3516 1403.0625 1771.5625 1374.7188 1750.2344 1403.0156 1771.5625 1431.4063 1672.3516 1403.0625 Z" fill="#fca8a6"/>
<path d="M2451.8047 1658.1641 2352.5938 1629.8203 2373.7969 1658.1094 2352.5938 1686.5078 2451.8047 1658.1641 Z" fill="#82bae6"/>
<path d="M2295.9141 1403.0625 2395.125 1374.7188 2373.7969 1403.0156 2395.125 1431.4063 2295.9141 1403.0625 Z" fill="#fca8a6"/>
<rect x="2437.6563" y="1332.1563" width="177.0625" height="155.8906" fill="#fcd9d9"/>
<defs>
<radialGradient id="_Fill0" gradientUnits="userSpaceOnUse" cx="3132.0078" cy="1998.25" r="213.7266" spreadMethod="pad">
<stop offset="0" stop-color="#fcff8f"/>
<stop offset="1" stop-color="#ffffff"/>
</radialGradient>
</defs>
<circle cx="3132.0078" cy="1998.25" r="209.2422" fill="url(#_Fill0)"/>
<rect x="1814.0703" y="1247.1719" width="425.1641" height="878.6797" stroke="#000000" stroke-width="5" stroke-linejoin="miter" fill="#e6e6e6"/>
<path d="M1927.4453 1658.1641 1998.3047 1658.1641 1998.3047 1629.8203 2054.9922 1558.9609 2054.9922 1530.6172 2125.8594 1530.6172" stroke="#ffffff" stroke-width="35" fill="none"/>
<rect x="283.4453" y="1247.1719" width="212.5859" height="878.6797" stroke="#000000" stroke-width="5" stroke-linejoin="miter" fill="#e6e6e6"/>
<rect x="566.8984" y="1247.1719" width="212.5781" height="878.6797" stroke="#000000" stroke-width="5" stroke-linejoin="miter" fill="#fcff8f"/>
<rect x="850.3516" y="1247.1719" width="212.5781" height="878.6797" stroke="#000000" stroke-width="5" stroke-linejoin="miter" fill="#fcff8f"/>
<rect x="1133.7969" y="1247.1719" width="212.5781" height="878.6797" stroke="#000000" stroke-width="5" stroke-linejoin="miter" fill="#fcff8f"/>
<rect x="1417.25" y="1247.1719" width="212.5703" height="878.6797" stroke="#000000" stroke-width="5" stroke-linejoin="miter" fill="#e6e6e6"/>
<path d="M1318.0234 1403.0625 1289.6797 1403.0625 1232.9922 1530.6172 1204.6484 1530.6172" stroke="#ff0000" stroke-width="7.5" stroke-linejoin="miter" fill="none"/>
<path transform="matrix(-0.0833 0 0 -0.0833 1204.6484 1530.6172)" stroke="none" fill="#ff0000" d="M-90 -180 360 0 -90 180 0 0 -90 -180 Z"/>
<path d="M751.1328 1658.1641 722.7891 1658.1641 666.1016 2040.8203 637.75 2040.8203" stroke="#ff0000" stroke-width="7.5" stroke-linejoin="miter" fill="none"/>
<path transform="matrix(-0.0833 0 0 -0.0833 637.75 2040.8203)" stroke="none" fill="#ff0000" d="M-90 -180 360 0 -90 180 0 0 -90 -180 Z"/>
<path d="M467.6953 2040.8203 382.6563 2040.8203 382.6563 1530.6172 439.3516 1530.6172" stroke="#ff0000" stroke-width="7.5" stroke-linejoin="miter" fill="none"/>
<path transform="matrix(0.0833 0 0 0.0833 439.3516 1530.6172)" stroke="none" fill="#ff0000" d="M-90 -180 360 0 -90 180 0 0 -90 -180 Z"/>
<path d="M609.4141 1530.6172 651.9297 1530.6172 694.4453 1403.0625 722.7891 1403.0625" stroke="#0000ff" stroke-width="7.5" stroke-linejoin="miter" fill="none"/>
<path transform="matrix(0.0833 0 0 0.0833 722.7891 1403.0625)" stroke="none" fill="#0000ff" d="M-90 -180 360 0 -90 180 0 0 -90 -180 Z"/>
<path d="M892.8594 1403.0625 977.8906 1403.0625 977.8906 1913.2656 1006.2344 1913.2656" stroke="#0000ff" stroke-width="7.5" stroke-linejoin="miter" fill="none"/>
<path transform="matrix(0.0833 0 0 0.0833 1006.2344 1913.2656)" stroke="none" fill="#0000ff" d="M-90 -180 360 0 -90 180 0 0 -90 -180 Z"/>
<path d="M1176.3047 1913.2656 1204.6484 1913.2656 1261.3438 1530.6172 1289.6875 1530.6172" stroke="#0000ff" stroke-width="7.5" stroke-linejoin="miter" fill="none"/>
<path transform="matrix(0.0833 0 0 0.0833 1289.6875 1530.6172)" stroke="none" fill="#0000ff" d="M-90 -180 360 0 -90 180 0 0 -90 -180 Z"/>
<g>
<rect x="1318.0234" y="1743.2031" width="28.3516" height="85.0313" stroke="#000000" stroke-width="5" stroke-linejoin="miter" fill="#d9aa0f"/>
<path d="M1346.375 1814.0625 1387.6953 1814.0625 C1404.0078 1814.0625 1417.2266 1801.375 1417.2266 1785.7188 L1417.2266 1785.7188 C1417.2266 1770.0625 1404.0078 1757.375 1387.6953 1757.375 L1346.375 1757.375 1346.375 1814.0625 Z" stroke="#000000" stroke-width="5" stroke-linejoin="miter" fill="#d9aa0f"/>
</g>
<g>
<rect x="1417.2422" y="1743.2031" width="14.1719" height="85.0313" stroke="#000000" stroke-width="5" stroke-linejoin="miter" fill="#d9aa0f"/>
<rect x="1431.4141" y="1757.375" width="28.3438" height="56.6875" stroke="#000000" stroke-width="5" stroke-linejoin="miter" fill="#d9aa0f"/>
</g>
<g>
<rect x="1318.0234" y="1615.6484" width="28.3516" height="85.0313" stroke="#000000" stroke-width="5" stroke-linejoin="miter" fill="#d9aa0f"/>
<path d="M1346.375 1686.5078 1387.6953 1686.5078 C1404.0078 1686.5078 1417.2266 1673.8203 1417.2266 1658.1641 L1417.2266 1658.1641 C1417.2266 1642.5078 1404.0078 1629.8203 1387.6953 1629.8203 L1346.375 1629.8203 1346.375 1686.5078 Z" stroke="#000000" stroke-width="5" stroke-linejoin="miter" fill="#d9aa0f"/>
</g>
<g>
<rect x="1417.2422" y="1615.6484" width="14.1719" height="85.0313" stroke="#000000" stroke-width="5" stroke-linejoin="miter" fill="#d9aa0f"/>
<rect x="1431.4141" y="1629.8203" width="28.3438" height="56.6875" stroke="#000000" stroke-width="5" stroke-linejoin="miter" fill="#d9aa0f"/>
</g>
<g>
<rect x="1318.0234" y="1488.1016" width="28.3516" height="85.0313" stroke="#000000" stroke-width="5" stroke-linejoin="miter" fill="#d9aa0f"/>
<path d="M1346.375 1558.9609 1387.6953 1558.9609 C1404.0078 1558.9609 1417.2266 1546.2734 1417.2266 1530.6172 L1417.2266 1530.6172 C1417.2266 1514.9609 1404.0078 1502.2734 1387.6953 1502.2734 L1346.375 1502.2734 1346.375 1558.9609 Z" stroke="#000000" stroke-width="5" stroke-linejoin="miter" fill="#d9aa0f"/>
</g>
<g>
<rect x="1417.2422" y="1488.1016" width="14.1719" height="85.0313" stroke="#000000" stroke-width="5" stroke-linejoin="miter" fill="#d9aa0f"/>
<rect x="1431.4141" y="1502.2734" width="28.3438" height="56.6875" stroke="#000000" stroke-width="5" stroke-linejoin="miter" fill="#d9aa0f"/>
</g>
<g>
<rect x="1318.0234" y="1360.5469" width="28.3516" height="85.0313" stroke="#000000" stroke-width="5" stroke-linejoin="miter" fill="#d9aa0f"/>
<path d="M1346.375 1431.4063 1387.6953 1431.4063 C1404.0078 1431.4063 1417.2266 1418.7188 1417.2266 1403.0625 L1417.2266 1403.0625 C1417.2266 1387.4063 1404.0078 1374.7188 1387.6953 1374.7188 L1346.375 1374.7188 1346.375 1431.4063 Z" stroke="#000000" stroke-width="5" stroke-linejoin="miter" fill="#d9aa0f"/>
</g>
<g>
<rect x="1417.2422" y="1360.5469" width="14.1719" height="85.0313" stroke="#000000" stroke-width="5" stroke-linejoin="miter" fill="#d9aa0f"/>
<rect x="1431.4141" y="1374.7188" width="28.3438" height="56.6875" stroke="#000000" stroke-width="5" stroke-linejoin="miter" fill="#d9aa0f"/>
</g>
<g>
<path d="M1482.2188 2157 1482.2188 2161.1953 1455.6875 2161.1953 1455.6875 2181.0078 1480.1875 2181.0078 1480.1875 2185.2031 1455.6875 2185.2031 1455.6875 2203.3359 1481.1641 2203.3359 1481.1641 2207.5391 1451.1328 2207.5391 1451.1328 2157 1482.2188 2157 Z" fill="#000000"/>
<path d="M1504.3594 2157 1508.8359 2157 1508.9063 2203.3359 1524.9375 2203.3359 1524.9375 2207.5391 1487.9766 2207.5391 1487.9766 2203.3359 1504.2891 2203.3359 1504.3594 2157 Z" fill="#000000"/>
<path d="M1560.7891 2202.8438 1560.9297 2202.8438 1575.8359 2157 1582.0625 2157 1595.3672 2207.5391 1590.9531 2207.5391 1579.2656 2161.5469 1579.125 2161.5469 1563.7266 2207.5391 1558.1953 2207.5391 1543.4297 2161.5469 1543.2891 2161.5469 1531.5234 2207.5391 1526.6953 2207.5391 1539.8594 2157 1546.2969 2157 1560.7891 2202.8438 Z" fill="#000000"/>
</g>
<g>
<path d="M311.7891 2207.5391 311.7891 2174.7734 C311.9297 2163.9297 318.0156 2155.9453 330.2656 2155.9453 342.5156 2155.9453 348.6094 2163.9297 348.75 2174.7734 L348.75 2207.5391 344.1953 2207.5391 344.1953 2174.8438 C343.8438 2165.6797 338.5938 2160.1484 330.2656 2160.1484 321.9375 2160.1484 316.6875 2165.6797 316.3359 2174.8438 L316.3359 2207.5391 311.7891 2207.5391 Z" fill="#000000"/>
<path d="M366.8984 2157 366.9688 2183.3828 391.1875 2157 397.4141 2157 372.0078 2184.7188 395.3125 2207.5391 389.5781 2207.5391 366.9688 2185.2734 366.8984 2207.5391 362.4141 2207.5391 362.4141 2157 366.8984 2157 Z" fill="#000000"/>
<path d="M432.7891 2202.8438 432.9297 2202.8438 447.8359 2157 454.0625 2157 467.3672 2207.5391 462.9531 2207.5391 451.2656 2161.5469 451.125 2161.5469 435.7266 2207.5391 430.1953 2207.5391 415.4297 2161.5469 415.2891 2161.5469 403.5234 2207.5391 398.6953 2207.5391 411.8594 2157 418.2969 2157 432.7891 2202.8438 Z" fill="#000000"/>
</g>
<g>
<path d="M1232.1172 2195.2578 C1236.0391 2197.1484 1239.8125 2199.4531 1243.0391 2202.5391 L1243.0391 2159 1247.5859 2159 1247.5859 2207.4375 1243.25 2207.4375 C1240.0938 2204.2891 1236.25 2201.4844 1232.1172 2199.8047 L1232.1172 2195.2578 Z" fill="#000000"/>
</g>
<g>
<path d="M970.9453 2159 970.9453 2163.1953 945.9531 2163.1953 C953.4453 2170.4063 970.3125 2184.6172 970.3125 2195.9531 970.3125 2204.3594 963.5938 2208.4844 955.8281 2208.4844 947.4297 2208.4844 940.9844 2203.1641 940.9844 2194.625 L945.8828 2194.625 C945.8828 2200.2969 949.875 2204.2891 955.6875 2204.2891 960.9375 2204.2891 965.4141 2201.3438 965.4141 2195.6797 965.4141 2187 946.7969 2169.4297 940.5 2163.7578 L940.5 2159 970.9453 2159 Z" fill="#000000"/>
</g>
<g>
<path d="M669.75 2182.0234 C676.3984 2183.0078 683.8828 2180.2734 683.8828 2172.5078 683.8828 2165.5781 678.5625 2162.1484 672.125 2162.1484 666.5234 2162.1484 661.2031 2165.7891 661.1328 2171.8047 L656.2344 2171.8047 C656.5156 2162.5625 663.6563 2157.9453 672.1953 2157.9453 680.3125 2157.9453 688.7891 2162.8438 688.7891 2171.9453 688.7891 2178.4531 684.3047 2182.8672 678.1484 2184.1953 L678.1484 2184.3359 C683.5391 2185.4531 688.0156 2189.375 688.0156 2195.2578 688.0156 2204.6328 679.9688 2208.4844 671.7734 2208.4844 664.2188 2208.4844 656.9375 2203.6563 656.9375 2195.4688 L661.8359 2195.4688 C662.4688 2201.0625 666.25 2204.2891 672.4063 2204.2891 678.0781 2204.2891 683.1172 2201.1328 683.1172 2195.5391 683.1172 2188.2578 675.9766 2185.7344 669.75 2186.4375 L669.75 2182.0234 Z" fill="#000000"/>
</g>
<g>
<circle cx="2565.2031" cy="1998.2969" r="56.6875" stroke="#000000" stroke-width="5" fill="none"/>
<g>
<path d="M2525.1406 2038.3281 2605.3047 1958.1641" stroke="#000000" stroke-width="2.5" fill="none"/>
<path d="M2525.1406 1958.1641 2605.3047 2038.3281" stroke="#000000" stroke-width="2.5" fill="none"/>
</g>
</g>
<g>
<circle cx="2848.6563" cy="1998.2969" r="56.6875" stroke="#000000" stroke-width="5" fill="none"/>
<g>
<path d="M2808.5938 2038.3281 2888.7578 1958.1641" stroke="#000000" stroke-width="2.5" fill="none"/>
<path d="M2808.5938 1958.1641 2888.7578 2038.3281" stroke="#000000" stroke-width="2.5" fill="none"/>
</g>
</g>
<g>
<circle cx="3132.1016" cy="1998.2969" r="56.6875" stroke="#000000" stroke-width="5" fill="#ffdd00"/>
<g>
<path d="M3092.0391 2038.3281 3172.2031 1958.1641" stroke="#000000" stroke-width="2.5" fill="none"/>
<path d="M3092.0391 1958.1641 3172.2031 2038.3281" stroke="#000000" stroke-width="2.5" fill="none"/>
</g>
</g>
<g>
<circle cx="3415.5469" cy="1998.2969" r="56.6875" stroke="#000000" stroke-width="5" fill="none"/>
<g>
<path d="M3375.4844 2038.3281 3455.6484 1958.1641" stroke="#000000" stroke-width="2.5" fill="none"/>
<path d="M3375.4844 1958.1641 3455.6484 2038.3281" stroke="#000000" stroke-width="2.5" fill="none"/>
</g>
</g>
<path d="M2565.2031 2054.9922 2565.2031 2125.8516 3684.8203 2125.8516" stroke="#000000" stroke-width="5" stroke-linejoin="miter" fill="none"/>
<path d="M2565.1953 1360.5469 2565.1953 1247.1719 3755.6797 1247.1719 3755.6797 1346.375" stroke="#000000" stroke-width="5" stroke-linejoin="miter" fill="none"/>
<path d="M2154.2031 1403.0625 2480.1719 1403.0625" stroke="#000000" stroke-width="5" stroke-linejoin="miter" fill="none"/>
<path d="M2848.6484 2125.8516 2848.6484 2054.9922" stroke="#000000" stroke-width="5" stroke-linejoin="miter" fill="none"/>
<path d="M2565.2031 1941.6172 2565.1953 1445.5781" stroke="#000000" stroke-width="5" stroke-linejoin="miter" fill="none"/>
<path d="M2848.6484 1941.6172 2848.6484 1445.5781" stroke="#000000" stroke-width="5" stroke-linejoin="miter" fill="none"/>
<path d="M3132.1016 2125.8516 3132.1016 2054.9922" stroke="#000000" stroke-width="5" stroke-linejoin="miter" fill="none"/>
<path d="M3415.5469 2125.8516 3415.5469 2054.9922" stroke="#000000" stroke-width="5" stroke-linejoin="miter" fill="none"/>
<path d="M2154.2031 1658.1641 2962.0234 1658.1641 2962.0234 1403.0625 3047.0547 1403.0625" stroke="#000000" stroke-width="5" stroke-linejoin="miter" fill="none"/>
<path d="M2154.2031 1785.7188 3245.4688 1785.7188 3245.4688 1403.0625 3330.5 1403.0625" stroke="#000000" stroke-width="5" stroke-linejoin="miter" fill="none"/>
<path d="M3132.0938 1941.6172 3132.0938 1445.5781" stroke="#000000" stroke-width="5" stroke-linejoin="miter" fill="none"/>
<path d="M3415.5391 1941.6172 3415.5391 1445.5781" stroke="#000000" stroke-width="5" stroke-linejoin="miter" fill="none"/>
<g>
<path d="M2652.3984 1854.3984 C2655.0938 1852.0938 2656.8984 1851.1953 2659.0938 1851.1953 2662.5 1851.1953 2666 1853.9922 2666 1857.5 2666 1860.2969 2664.3984 1861.8984 2662.5 1863.5938 L2656.7969 1868.5 C2661.1953 1874.7969 2663.5 1882.7969 2663.5 1891.5938 2663.5 1911.8984 2649.1953 1928.3984 2629.0938 1928.3984 2608.6953 1928.3984 2594.6953 1912.3984 2594.6953 1891.5938 2594.6953 1870.8984 2608.7969 1854.7969 2629.0938 1854.7969 2635.8984 1854.7969 2641.7969 1856.3984 2646.6953 1859.1953 L2652.3984 1854.3984 Z M2640.5938 1882.6953 C2639.3984 1883.5 2638.1953 1884 2636.7969 1884 2632.6953 1884 2630 1880.6953 2630 1876.7969 2630 1875.3984 2630.7969 1873.7969 2631.8984 1872.7969 L2635.5 1869.2969 C2633.5 1868.8984 2631.3984 1868.5938 2629.0938 1868.5938 2616.3984 1868.5938 2610.2969 1879.3984 2610.2969 1891.5938 2610.2969 1903.6953 2616.5938 1914.5938 2629.0938 1914.5938 2641.5938 1914.5938 2647.8984 1903.5 2647.8984 1891.5938 2647.8984 1887 2647.1953 1882.5938 2645.5 1878.7969 L2640.5938 1882.6953 Z" fill="#000000"/>
</g>
<g>
<path d="M2890.8984 1863.1953 C2891.8984 1859 2895.1953 1855.3984 2900.7969 1855.3984 2905.6953 1855.3984 2909.5 1858.5938 2910.6953 1862.6953 L2922.2969 1901.2969 2922.5 1901.2969 2934.0938 1862.6953 C2935.2969 1858.5938 2939.0938 1855.3984 2944 1855.3984 2949.5938 1855.3984 2952.8984 1859 2953.8984 1863.1953 L2966.5938 1917.7969 C2966.8984 1919.0938 2967 1919.7969 2967 1921.1953 2967 1924.3984 2964.2969 1927.7969 2959.8984 1927.7969 2955.0938 1927.7969 2952.7969 1925 2951.8984 1920.5938 L2943.3984 1878.0938 2943.1953 1878.0938 2930.1953 1921.8984 C2929.0938 1925.5 2926.0938 1927.7969 2922.3984 1927.7969 2918.6953 1927.7969 2915.6953 1925.5 2914.5938 1921.8984 L2901.5938 1878.0938 2901.3984 1878.0938 2892.8984 1920.5938 C2892 1925 2889.6953 1927.7969 2884.8984 1927.7969 2880.5 1927.7969 2877.7969 1924.3984 2877.7969 1921.1953 2877.7969 1919.7969 2877.8984 1919.0938 2878.1953 1917.7969 L2890.8984 1863.1953 Z" fill="#000000"/>
</g>
<g>
<path d="M3164.5 1863.5 C3164.5 1859 3167.7969 1856 3172.1953 1856 L3198 1856 C3202.6953 1856 3205.0938 1859.5 3205.0938 1862.8984 3205.0938 1866.3984 3202.7969 1869.7969 3198 1869.7969 L3179.5 1869.7969 3179.5 1885 3195.8984 1885 C3200.6953 1885 3203.1953 1888.5 3203.1953 1891.8984 3203.1953 1895.3984 3200.7969 1898.7969 3195.8984 1898.7969 L3179.5 1898.7969 3179.5 1913.3984 3197.0938 1913.3984 C3201.7969 1913.3984 3204.1953 1916.8984 3204.1953 1920.2969 3204.1953 1923.7969 3201.8984 1927.1953 3197.0938 1927.1953 L3172.2969 1927.1953 C3167 1927.1953 3164.5 1923.5 3164.5 1918.5 L3164.5 1863.5 Z" fill="#000000"/>
</g>
<g>
<path d="M3447.5 1863.1953 C3447.5 1858.1953 3450.6953 1855.3984 3455 1855.3984 3459.2969 1855.3984 3462.5 1858.1953 3462.5 1863.1953 L3462.5 1884.8984 3462.6953 1884.8984 3484.8984 1858 C3486.5 1856.0938 3488.8984 1855.3984 3490.6953 1855.3984 3495.0938 1855.3984 3498.1953 1859.1953 3498.1953 1863.0938 3498.1953 1864.5 3497.5938 1866 3496.1953 1867.5 L3479.1953 1885.6953 C3489.3984 1887.2969 3497.6953 1893.5938 3497.6953 1904.5938 3497.6953 1920.2969 3488.1953 1927.1953 3472.7969 1927.1953 L3455.1953 1927.1953 C3450.1953 1927.1953 3447.5 1924.1953 3447.5 1919.3984 L3447.5 1863.1953 Z M3462.5 1913.3984 3472.7969 1913.3984 C3478.2969 1913.3984 3482.0938 1910.2969 3482.0938 1904.5938 3482.0938 1899 3478.2969 1895.6953 3472.7969 1895.6953 L3462.5 1895.6953 3462.5 1913.3984 Z" fill="#000000"/>
</g>
<path d="M2125.8594 1403.0625 1927.4453 1403.0625" stroke="#000000" stroke-width="15" fill="none"/>
<path d="M1927.4453 1658.1641 1998.3047 1658.1641 1998.3047 1629.8203 2054.9922 1558.9609 2054.9922 1530.6172 2125.8594 1530.6172" stroke="#000000" stroke-width="15" fill="none"/>
<path d="M2125.8516 1658.1641 2054.9922 1658.1641 2054.9922 1629.8203 1998.3047 1558.9609 1998.3047 1530.6172 1927.4453 1530.6172" stroke="#ffffff" stroke-width="35" fill="none"/>
<path d="M2125.8516 1658.1641 2054.9922 1658.1641 2054.9922 1629.8203 1998.3047 1558.9609 1998.3047 1530.6172 1927.4453 1530.6172" stroke="#000000" stroke-width="15" fill="none"/>
<path d="M1927.4453 2040.8203 2125.8516 2040.8203" stroke="#000000" stroke-width="15" fill="none"/>
<path d="M1927.4453 1913.2656 2125.8594 1913.2656" stroke="#000000" stroke-width="15" fill="none"/>
<path d="M1459.75 1785.7188 1899.0938 1785.7188" stroke="#000000" stroke-width="5" fill="none"/>
<path d="M1459.75 1658.1641 1899.0938 1658.1641" stroke="#000000" stroke-width="5" fill="none"/>
<path d="M1459.75 1530.6172 1899.0938 1530.6172" stroke="#000000" stroke-width="5" fill="none"/>
<path d="M1899.0938 1913.2656 1459.75 1913.2656" stroke="#000000" stroke-width="5" fill="none"/>
<path d="M1899.0938 2040.8203 1459.75 2040.8203" stroke="#000000" stroke-width="5" fill="none"/>
<g>
<rect x="1417.2422" y="1998.3047" width="14.1719" height="85.0313" stroke="#000000" stroke-width="5" stroke-linejoin="miter" fill="#d9aa0f"/>
<rect x="1431.4141" y="2012.4766" width="28.3438" height="56.6875" stroke="#000000" stroke-width="5" stroke-linejoin="miter" fill="#d9aa0f"/>
</g>
<g>
<rect x="1417.2422" y="1870.75" width="14.1719" height="85.0313" stroke="#000000" stroke-width="5" stroke-linejoin="miter" fill="#d9aa0f"/>
<rect x="1431.4141" y="1884.9219" width="28.3438" height="56.6875" stroke="#000000" stroke-width="5" stroke-linejoin="miter" fill="#d9aa0f"/>
</g>
<g>
<path d="M1944.7031 2171.2969 C1944.7031 2188.7266 1916.1484 2182.2188 1916.1484 2196.5625 1916.1484 2202.7266 1922.6563 2205.3828 1927.9063 2205.3828 1933.0859 2205.3828 1938.7578 2203.7734 1938.8984 2197.5469 L1943.7969 2197.5469 C1942.6797 2207.2734 1934 2209.5859 1927.3438 2209.5859 1919.3672 2209.5859 1911.25 2204.7578 1911.25 2195.9375 1911.25 2185.0156 1923.7031 2182.4297 1931.8984 2179.6953 1936.1641 2178.2969 1939.8047 2175.9141 1939.8047 2170.875 1939.8047 2164.4375 1933.2969 2161.1484 1927.625 2161.1484 1920.8359 2161.1484 1915.0938 2163.3828 1914.9531 2171.1563 L1910.0547 2171.1563 C1910.2656 2162.8281 1917.0547 2156.9453 1925.1094 2156.9453 1935.2578 2156.9453 1944.7031 2160.3047 1944.7031 2171.2969 L1944.7031 2171.2969 Z" fill="#000000"/>
<path d="M1957.6094 2167.375 C1957.6094 2162.6172 1957.1172 2156.9453 1966.0078 2156.9453 1967.4063 2156.9453 1968.9453 2157.2266 1970.2734 2157.5781 L1970.2734 2161.2188 C1969.1563 2160.8672 1967.8984 2160.7969 1966.6328 2160.7969 1963.4141 2160.7969 1961.7344 2162.5469 1961.8047 2165.7656 L1961.8047 2189.2891 1969.7891 2189.2891 1969.7891 2193.1328 1961.8047 2193.1328 1961.8047 2202.4453 1957.6094 2200.625 1957.6094 2193.1328 1950.6094 2193.1328 1950.6094 2189.2891 1957.6094 2189.2891 1957.6094 2167.375 Z" fill="#000000"/>
<path d="M2007.2031 2174.5859 C2007.2031 2185.5781 2002.9375 2194.1875 1991.1797 2194.1875 1980.75 2194.1875 1975.5 2185.0859 1975.5 2175.5625 1975.5 2165.9766 1980.3984 2156.9453 1990.8984 2156.9453 1999.3672 2156.9453 2004.6172 2160.7969 2006.7891 2169.1953 L2002.375 2169.1953 C2001.3281 2164.3672 1997.1953 2160.7969 1992.2266 2160.7969 1983.6172 2160.7969 1980.1875 2167.0938 1980.0469 2174.5859 L2007.2031 2174.5859 Z M1980.1875 2178.4375 C1980.75 2184.5938 1984.3828 2190.3359 1991.25 2190.3359 1998.5234 2190.3359 2002.1641 2185.2266 2002.6563 2178.4375 L1980.1875 2178.4375 Z" fill="#000000"/>
<path d="M2043.3359 2182.3594 C2042.9844 2189.8438 2037.1094 2194.1875 2029.8984 2194.1875 2019.4688 2194.1875 2014.2188 2185.0859 2014.2188 2175.5625 2014.2188 2165.9766 2019.1172 2156.9453 2029.6172 2156.9453 2037.5938 2156.9453 2042.2188 2160.9375 2043.3359 2168.9844 L2038.7891 2168.9844 C2038.4375 2164.1563 2034.6563 2160.7969 2029.1953 2160.7969 2022.7578 2160.7969 2018.7656 2167.5859 2018.7656 2175.6328 2018.7656 2183.6172 2022.7578 2190.3359 2029.1953 2190.3359 2035.0078 2190.3359 2038.4375 2187.75 2038.7891 2182.3594 L2043.3359 2182.3594 Z" fill="#000000"/>
<path d="M2056.2188 2208.5391 2052.0156 2208.5391 2052.0156 2158 2056.2188 2158 2056.2188 2177.0391 2074.6953 2158 2080.0156 2158 2060.8359 2177.9453 2078.6172 2193.1328 2073.2266 2193.1328 2056.2188 2178.7891 2056.2188 2208.5391 Z" fill="#000000"/>
<path d="M2116.2031 2174.5859 C2116.2031 2185.5781 2111.9375 2194.1875 2100.1797 2194.1875 2089.75 2194.1875 2084.5 2185.0859 2084.5 2175.5625 2084.5 2165.9766 2089.3984 2156.9453 2099.8984 2156.9453 2108.3672 2156.9453 2113.6172 2160.7969 2115.7891 2169.1953 L2111.375 2169.1953 C2110.3281 2164.3672 2106.1953 2160.7969 2101.2266 2160.7969 2092.6172 2160.7969 2089.1875 2167.0938 2089.0469 2174.5859 L2116.2031 2174.5859 Z M2089.1875 2178.4375 C2089.75 2184.5938 2093.3828 2190.3359 2100.25 2190.3359 2107.5234 2190.3359 2111.1641 2185.2266 2111.6563 2178.4375 L2089.1875 2178.4375 Z" fill="#000000"/>
<path d="M2129.7969 2179.1328 C2129.9375 2185.8594 2133.2266 2190.3359 2139.4531 2190.3359 2140.2969 2190.3359 2141.2031 2190.125 2142.0469 2190.0547 L2142.0469 2194.1172 C2140.6484 2194.1875 2139.25 2194.2578 2137.8438 2194.1875 2134.3438 2194.0469 2131.1953 2191.5234 2129.9375 2187.9531 L2129.7969 2187.9531 2129.5859 2193.1328 2125.25 2193.1328 C2125.3828 2190.7578 2125.6641 2187.9531 2125.5938 2185.2266 L2125.5938 2158 2129.7969 2158 2129.7969 2179.1328 Z" fill="#000000"/>
</g>
<path d="M2154.2031 1530.6172 2692.75 1530.6172 2692.75 1403.0625 2763.6094 1403.0625" stroke="#000000" stroke-width="5" stroke-linejoin="miter" fill="none"/>
<path d="M1459.75 1403.0625 1899.0938 1403.0625" stroke="#000000" stroke-width="5" fill="none"/>
<path d="M1927.4453 1785.7188 2125.8516 1785.7188" stroke="#000000" stroke-width="15" fill="none"/>
<g>
<rect x="1318.0234" y="1998.3047" width="28.3516" height="85.0313" stroke="#000000" stroke-width="5" stroke-linejoin="miter" fill="#d9aa0f"/>
<path d="M1346.375 2069.1641 1387.6953 2069.1641 C1404.0078 2069.1641 1417.2266 2056.4766 1417.2266 2040.8203 L1417.2266 2040.8203 C1417.2266 2025.1641 1404.0078 2012.4766 1387.6953 2012.4766 L1346.375 2012.4766 1346.375 2069.1641 Z" stroke="#000000" stroke-width="5" stroke-linejoin="miter" fill="#d9aa0f"/>
</g>
<g>
<rect x="1318.0234" y="1870.75" width="28.3516" height="85.0313" stroke="#000000" stroke-width="5" stroke-linejoin="miter" fill="#d9aa0f"/>
<path d="M1346.375 1941.6094 1387.6953 1941.6094 C1404.0078 1941.6094 1417.2266 1928.9219 1417.2266 1913.2656 L1417.2266 1913.2656 C1417.2266 1897.6094 1404.0078 1884.9219 1387.6953 1884.9219 L1346.375 1884.9219 1346.375 1941.6094 Z" stroke="#000000" stroke-width="5" stroke-linejoin="miter" fill="#d9aa0f"/>
</g>
<g>
<rect x="1034.5781" y="1743.2031" width="28.3516" height="85.0313" stroke="#000000" stroke-width="5" stroke-linejoin="miter" fill="#d9aa0f"/>
<path d="M1062.9297 1814.0625 1104.25 1814.0625 C1120.5625 1814.0625 1133.7813 1801.375 1133.7813 1785.7188 L1133.7813 1785.7188 C1133.7813 1770.0625 1120.5625 1757.375 1104.25 1757.375 L1062.9297 1757.375 1062.9297 1814.0625 Z" stroke="#000000" stroke-width="5" stroke-linejoin="miter" fill="#d9aa0f"/>
</g>
<g>
<rect x="1133.7969" y="1743.2031" width="14.1719" height="85.0313" stroke="#000000" stroke-width="5" stroke-linejoin="miter" fill="#d9aa0f"/>
<rect x="1147.9688" y="1757.375" width="28.3438" height="56.6875" stroke="#000000" stroke-width="5" stroke-linejoin="miter" fill="#d9aa0f"/>
</g>
<g>
<rect x="1034.5781" y="1615.6484" width="28.3516" height="85.0313" stroke="#000000" stroke-width="5" stroke-linejoin="miter" fill="#d9aa0f"/>
<path d="M1062.9297 1686.5078 1104.25 1686.5078 C1120.5625 1686.5078 1133.7813 1673.8203 1133.7813 1658.1641 L1133.7813 1658.1641 C1133.7813 1642.5078 1120.5625 1629.8203 1104.25 1629.8203 L1062.9297 1629.8203 1062.9297 1686.5078 Z" stroke="#000000" stroke-width="5" stroke-linejoin="miter" fill="#d9aa0f"/>
</g>
<g>
<rect x="1133.7969" y="1615.6484" width="14.1719" height="85.0313" stroke="#000000" stroke-width="5" stroke-linejoin="miter" fill="#d9aa0f"/>
<rect x="1147.9688" y="1629.8203" width="28.3438" height="56.6875" stroke="#000000" stroke-width="5" stroke-linejoin="miter" fill="#d9aa0f"/>
</g>
<g>
<rect x="1034.5781" y="1488.1016" width="28.3516" height="85.0313" stroke="#000000" stroke-width="5" stroke-linejoin="miter" fill="#d9aa0f"/>
<path d="M1062.9297 1558.9609 1104.25 1558.9609 C1120.5625 1558.9609 1133.7813 1546.2734 1133.7813 1530.6172 L1133.7813 1530.6172 C1133.7813 1514.9609 1120.5625 1502.2734 1104.25 1502.2734 L1062.9297 1502.2734 1062.9297 1558.9609 Z" stroke="#000000" stroke-width="5" stroke-linejoin="miter" fill="#d9aa0f"/>
</g>
<g>
<rect x="1133.7969" y="1488.1016" width="14.1719" height="85.0313" stroke="#000000" stroke-width="5" stroke-linejoin="miter" fill="#d9aa0f"/>
<rect x="1147.9688" y="1502.2734" width="28.3438" height="56.6875" stroke="#000000" stroke-width="5" stroke-linejoin="miter" fill="#d9aa0f"/>
</g>
<g>
<rect x="1034.5781" y="1360.5469" width="28.3516" height="85.0313" stroke="#000000" stroke-width="5" stroke-linejoin="miter" fill="#d9aa0f"/>
<path d="M1062.9297 1431.4063 1104.25 1431.4063 C1120.5625 1431.4063 1133.7813 1418.7188 1133.7813 1403.0625 L1133.7813 1403.0625 C1133.7813 1387.4063 1120.5625 1374.7188 1104.25 1374.7188 L1062.9297 1374.7188 1062.9297 1431.4063 Z" stroke="#000000" stroke-width="5" stroke-linejoin="miter" fill="#d9aa0f"/>
</g>
<g>
<rect x="1133.7969" y="1360.5469" width="14.1719" height="85.0313" stroke="#000000" stroke-width="5" stroke-linejoin="miter" fill="#d9aa0f"/>
<rect x="1147.9688" y="1374.7188" width="28.3438" height="56.6875" stroke="#000000" stroke-width="5" stroke-linejoin="miter" fill="#d9aa0f"/>
</g>
<g>
<rect x="1133.7969" y="1998.3047" width="14.1719" height="85.0313" stroke="#000000" stroke-width="5" stroke-linejoin="miter" fill="#d9aa0f"/>
<rect x="1147.9688" y="2012.4766" width="28.3438" height="56.6875" stroke="#000000" stroke-width="5" stroke-linejoin="miter" fill="#d9aa0f"/>
</g>
<g>
<rect x="1133.7969" y="1870.75" width="14.1719" height="85.0313" stroke="#000000" stroke-width="5" stroke-linejoin="miter" fill="#d9aa0f"/>
<rect x="1147.9688" y="1884.9219" width="28.3438" height="56.6875" stroke="#000000" stroke-width="5" stroke-linejoin="miter" fill="#d9aa0f"/>
</g>
<g>
<rect x="1034.5781" y="1998.3047" width="28.3516" height="85.0313" stroke="#000000" stroke-width="5" stroke-linejoin="miter" fill="#d9aa0f"/>
<path d="M1062.9297 2069.1641 1104.25 2069.1641 C1120.5625 2069.1641 1133.7813 2056.4766 1133.7813 2040.8203 L1133.7813 2040.8203 C1133.7813 2025.1641 1120.5625 2012.4766 1104.25 2012.4766 L1062.9297 2012.4766 1062.9297 2069.1641 Z" stroke="#000000" stroke-width="5" stroke-linejoin="miter" fill="#d9aa0f"/>
</g>
<g>
<rect x="1034.5781" y="1870.75" width="28.3516" height="85.0313" stroke="#000000" stroke-width="5" stroke-linejoin="miter" fill="#d9aa0f"/>
<path d="M1062.9297 1941.6094 1104.25 1941.6094 C1120.5625 1941.6094 1133.7813 1928.9219 1133.7813 1913.2656 L1133.7813 1913.2656 C1133.7813 1897.6094 1120.5625 1884.9219 1104.25 1884.9219 L1062.9297 1884.9219 1062.9297 1941.6094 Z" stroke="#000000" stroke-width="5" stroke-linejoin="miter" fill="#d9aa0f"/>
</g>
<g>
<rect x="751.1328" y="1743.2031" width="28.3516" height="85.0313" stroke="#000000" stroke-width="5" stroke-linejoin="miter" fill="#d9aa0f"/>
<path d="M779.4844 1814.0625 820.8047 1814.0625 C837.1172 1814.0625 850.3359 1801.375 850.3359 1785.7188 L850.3359 1785.7188 C850.3359 1770.0625 837.1172 1757.375 820.8047 1757.375 L779.4844 1757.375 779.4844 1814.0625 Z" stroke="#000000" stroke-width="5" stroke-linejoin="miter" fill="#d9aa0f"/>
</g>
<g>
<rect x="850.3516" y="1743.2031" width="14.1719" height="85.0313" stroke="#000000" stroke-width="5" stroke-linejoin="miter" fill="#d9aa0f"/>
<rect x="864.5234" y="1757.375" width="28.3438" height="56.6875" stroke="#000000" stroke-width="5" stroke-linejoin="miter" fill="#d9aa0f"/>
</g>
<g>
<rect x="751.1328" y="1615.6484" width="28.3516" height="85.0313" stroke="#000000" stroke-width="5" stroke-linejoin="miter" fill="#d9aa0f"/>
<path d="M779.4844 1686.5078 820.8047 1686.5078 C837.1172 1686.5078 850.3359 1673.8203 850.3359 1658.1641 L850.3359 1658.1641 C850.3359 1642.5078 837.1172 1629.8203 820.8047 1629.8203 L779.4844 1629.8203 779.4844 1686.5078 Z" stroke="#000000" stroke-width="5" stroke-linejoin="miter" fill="#d9aa0f"/>
</g>
<g>
<rect x="850.3516" y="1615.6484" width="14.1719" height="85.0313" stroke="#000000" stroke-width="5" stroke-linejoin="miter" fill="#d9aa0f"/>
<rect x="864.5234" y="1629.8203" width="28.3438" height="56.6875" stroke="#000000" stroke-width="5" stroke-linejoin="miter" fill="#d9aa0f"/>
</g>
<g>
<rect x="751.1328" y="1488.1016" width="28.3516" height="85.0313" stroke="#000000" stroke-width="5" stroke-linejoin="miter" fill="#d9aa0f"/>
<path d="M779.4844 1558.9609 820.8047 1558.9609 C837.1172 1558.9609 850.3359 1546.2734 850.3359 1530.6172 L850.3359 1530.6172 C850.3359 1514.9609 837.1172 1502.2734 820.8047 1502.2734 L779.4844 1502.2734 779.4844 1558.9609 Z" stroke="#000000" stroke-width="5" stroke-linejoin="miter" fill="#d9aa0f"/>
</g>
<g>
<rect x="850.3516" y="1488.1016" width="14.1719" height="85.0313" stroke="#000000" stroke-width="5" stroke-linejoin="miter" fill="#d9aa0f"/>
<rect x="864.5234" y="1502.2734" width="28.3438" height="56.6875" stroke="#000000" stroke-width="5" stroke-linejoin="miter" fill="#d9aa0f"/>
</g>
<g>
<rect x="751.1328" y="1360.5469" width="28.3516" height="85.0313" stroke="#000000" stroke-width="5" stroke-linejoin="miter" fill="#d9aa0f"/>
<path d="M779.4844 1431.4063 820.8047 1431.4063 C837.1172 1431.4063 850.3359 1418.7188 850.3359 1403.0625 L850.3359 1403.0625 C850.3359 1387.4063 837.1172 1374.7188 820.8047 1374.7188 L779.4844 1374.7188 779.4844 1431.4063 Z" stroke="#000000" stroke-width="5" stroke-linejoin="miter" fill="#d9aa0f"/>
</g>
<g>
<rect x="850.3516" y="1360.5469" width="14.1719" height="85.0313" stroke="#000000" stroke-width="5" stroke-linejoin="miter" fill="#d9aa0f"/>
<rect x="864.5234" y="1374.7188" width="28.3438" height="56.6875" stroke="#000000" stroke-width="5" stroke-linejoin="miter" fill="#d9aa0f"/>
</g>
<g>
<rect x="850.3516" y="1998.3047" width="14.1719" height="85.0313" stroke="#000000" stroke-width="5" stroke-linejoin="miter" fill="#d9aa0f"/>
<rect x="864.5234" y="2012.4766" width="28.3438" height="56.6875" stroke="#000000" stroke-width="5" stroke-linejoin="miter" fill="#d9aa0f"/>
</g>
<g>
<rect x="850.3516" y="1870.75" width="14.1719" height="85.0313" stroke="#000000" stroke-width="5" stroke-linejoin="miter" fill="#d9aa0f"/>
<rect x="864.5234" y="1884.9219" width="28.3438" height="56.6875" stroke="#000000" stroke-width="5" stroke-linejoin="miter" fill="#d9aa0f"/>
</g>
<g>
<rect x="751.1328" y="1998.3047" width="28.3516" height="85.0313" stroke="#000000" stroke-width="5" stroke-linejoin="miter" fill="#d9aa0f"/>
<path d="M779.4844 2069.1641 820.8047 2069.1641 C837.1172 2069.1641 850.3359 2056.4766 850.3359 2040.8203 L850.3359 2040.8203 C850.3359 2025.1641 837.1172 2012.4766 820.8047 2012.4766 L779.4844 2012.4766 779.4844 2069.1641 Z" stroke="#000000" stroke-width="5" stroke-linejoin="miter" fill="#d9aa0f"/>
</g>
<g>
<rect x="751.1328" y="1870.75" width="28.3516" height="85.0313" stroke="#000000" stroke-width="5" stroke-linejoin="miter" fill="#d9aa0f"/>
<path d="M779.4844 1941.6094 820.8047 1941.6094 C837.1172 1941.6094 850.3359 1928.9219 850.3359 1913.2656 L850.3359 1913.2656 C850.3359 1897.6094 837.1172 1884.9219 820.8047 1884.9219 L779.4844 1884.9219 779.4844 1941.6094 Z" stroke="#000000" stroke-width="5" stroke-linejoin="miter" fill="#d9aa0f"/>
</g>
<g>
<rect x="566.8984" y="1743.2031" width="14.1719" height="85.0313" stroke="#000000" stroke-width="5" stroke-linejoin="miter" fill="#d9aa0f"/>
<rect x="581.0703" y="1757.375" width="28.3438" height="56.6875" stroke="#000000" stroke-width="5" stroke-linejoin="miter" fill="#d9aa0f"/>
</g>
<g>
<rect x="566.8984" y="1615.6484" width="14.1719" height="85.0313" stroke="#000000" stroke-width="5" stroke-linejoin="miter" fill="#d9aa0f"/>
<rect x="581.0703" y="1629.8203" width="28.3438" height="56.6875" stroke="#000000" stroke-width="5" stroke-linejoin="miter" fill="#d9aa0f"/>
</g>
<g>
<rect x="566.8984" y="1488.1016" width="14.1719" height="85.0313" stroke="#000000" stroke-width="5" stroke-linejoin="miter" fill="#d9aa0f"/>
<rect x="581.0703" y="1502.2734" width="28.3438" height="56.6875" stroke="#000000" stroke-width="5" stroke-linejoin="miter" fill="#d9aa0f"/>
</g>
<g>
<rect x="566.8984" y="1360.5469" width="14.1719" height="85.0313" stroke="#000000" stroke-width="5" stroke-linejoin="miter" fill="#d9aa0f"/>
<rect x="581.0703" y="1374.7188" width="28.3438" height="56.6875" stroke="#000000" stroke-width="5" stroke-linejoin="miter" fill="#d9aa0f"/>
</g>
<g>
<rect x="566.8984" y="1998.3047" width="14.1719" height="85.0313" stroke="#000000" stroke-width="5" stroke-linejoin="miter" fill="#d9aa0f"/>
<rect x="581.0703" y="2012.4766" width="28.3438" height="56.6875" stroke="#000000" stroke-width="5" stroke-linejoin="miter" fill="#d9aa0f"/>
</g>
<g>
<rect x="566.8984" y="1870.75" width="14.1719" height="85.0313" stroke="#000000" stroke-width="5" stroke-linejoin="miter" fill="#d9aa0f"/>
<rect x="581.0703" y="1884.9219" width="28.3438" height="56.6875" stroke="#000000" stroke-width="5" stroke-linejoin="miter" fill="#d9aa0f"/>
</g>
<g>
<rect x="467.6797" y="1743.2031" width="28.3516" height="85.0313" stroke="#000000" stroke-width="5" stroke-linejoin="miter" fill="#d9aa0f"/>
<path d="M496.0313 1814.0625 537.3516 1814.0625 C553.6641 1814.0625 566.8828 1801.375 566.8828 1785.7188 L566.8828 1785.7188 C566.8828 1770.0625 553.6641 1757.375 537.3516 1757.375 L496.0313 1757.375 496.0313 1814.0625 Z" stroke="#000000" stroke-width="5" stroke-linejoin="miter" fill="#d9aa0f"/>
</g>
<g>
<rect x="467.6797" y="1615.6484" width="28.3516" height="85.0313" stroke="#000000" stroke-width="5" stroke-linejoin="miter" fill="#d9aa0f"/>
<path d="M496.0313 1686.5078 537.3516 1686.5078 C553.6641 1686.5078 566.8828 1673.8203 566.8828 1658.1641 L566.8828 1658.1641 C566.8828 1642.5078 553.6641 1629.8203 537.3516 1629.8203 L496.0313 1629.8203 496.0313 1686.5078 Z" stroke="#000000" stroke-width="5" stroke-linejoin="miter" fill="#d9aa0f"/>
</g>
<g>
<rect x="467.6797" y="1488.1016" width="28.3516" height="85.0313" stroke="#000000" stroke-width="5" stroke-linejoin="miter" fill="#d9aa0f"/>
<path d="M496.0313 1558.9609 537.3516 1558.9609 C553.6641 1558.9609 566.8828 1546.2734 566.8828 1530.6172 L566.8828 1530.6172 C566.8828 1514.9609 553.6641 1502.2734 537.3516 1502.2734 L496.0313 1502.2734 496.0313 1558.9609 Z" stroke="#000000" stroke-width="5" stroke-linejoin="miter" fill="#d9aa0f"/>
</g>
<g>
<rect x="467.6797" y="1360.5469" width="28.3516" height="85.0313" stroke="#000000" stroke-width="5" stroke-linejoin="miter" fill="#d9aa0f"/>
<path d="M496.0313 1431.4063 537.3516 1431.4063 C553.6641 1431.4063 566.8828 1418.7188 566.8828 1403.0625 L566.8828 1403.0625 C566.8828 1387.4063 553.6641 1374.7188 537.3516 1374.7188 L496.0313 1374.7188 496.0313 1431.4063 Z" stroke="#000000" stroke-width="5" stroke-linejoin="miter" fill="#d9aa0f"/>
</g>
<g>
<rect x="467.6797" y="1998.3047" width="28.3516" height="85.0313" stroke="#000000" stroke-width="5" stroke-linejoin="miter" fill="#d9aa0f"/>
<path d="M496.0313 2069.1641 537.3516 2069.1641 C553.6641 2069.1641 566.8828 2056.4766 566.8828 2040.8203 L566.8828 2040.8203 C566.8828 2025.1641 553.6641 2012.4766 537.3516 2012.4766 L496.0313 2012.4766 496.0313 2069.1641 Z" stroke="#000000" stroke-width="5" stroke-linejoin="miter" fill="#d9aa0f"/>
</g>
<g>
<rect x="467.6797" y="1870.75" width="28.3516" height="85.0313" stroke="#000000" stroke-width="5" stroke-linejoin="miter" fill="#d9aa0f"/>
<path d="M496.0313 1941.6094 537.3516 1941.6094 C553.6641 1941.6094 566.8828 1928.9219 566.8828 1913.2656 L566.8828 1913.2656 C566.8828 1897.6094 553.6641 1884.9219 537.3516 1884.9219 L496.0313 1884.9219 496.0313 1941.6094 Z" stroke="#000000" stroke-width="5" stroke-linejoin="miter" fill="#d9aa0f"/>
</g>
<path d="M1034.5781 1530.6094 1006.2344 1530.6094 949.5469 1658.1641 921.2031 1658.1641" stroke="#ff0000" stroke-width="7.5" stroke-linejoin="miter" fill="none"/>
<path transform="matrix(-0.0833 0 0 -0.0833 921.2031 1658.1641)" stroke="none" fill="#ff0000" d="M-90 -180 360 0 -90 180 0 0 -90 -180 Z"/>
<path d="M1266.6641 2232.375 C1265.1719 2283.4531 1217.0547 2319.9219 1191.4453 2216.3672" stroke="#000000" stroke-width="5" stroke-linejoin="miter" fill="none"/>
<path transform="matrix(-0.0267 -0.1079 0.1078 -0.0267 1191.4453 2216.3672)" stroke="none" fill="#000000" d="M-90 -180 360 0 -90 180 0 0 -90 -180 Z"/>
<path d="M983.2109 2232.375 C981.7188 2283.4531 933.6016 2319.9219 907.9922 2216.3672" stroke="#000000" stroke-width="5" stroke-linejoin="miter" fill="none"/>
<path transform="matrix(-0.0267 -0.1079 0.1078 -0.0267 907.9922 2216.3672)" stroke="none" fill="#000000" d="M-90 -180 360 0 -90 180 0 0 -90 -180 Z"/>
<path d="M699.7656 2232.375 C698.2734 2283.4531 650.1563 2319.9219 624.5469 2216.3672" stroke="#000000" stroke-width="5" stroke-linejoin="miter" fill="none"/>
<path transform="matrix(-0.0267 -0.1079 0.1078 -0.0267 624.5469 2216.3672)" stroke="none" fill="#000000" d="M-90 -180 360 0 -90 180 0 0 -90 -180 Z"/>
<path d="M2848.6484 1360.5469 2848.6484 1247.1719" stroke="#000000" stroke-width="5" stroke-linejoin="miter" fill="none"/>
<path d="M3132.0938 1360.5469 3132.0938 1247.1719" stroke="#000000" stroke-width="5" stroke-linejoin="miter" fill="none"/>
<path d="M3415.5391 1360.5469 3415.5391 1247.1719" stroke="#000000" stroke-width="5" stroke-linejoin="miter" fill="none"/>
<circle cx="2848.6484" cy="1247.1719" r="14.1719" fill="#000000"/>
<circle cx="3132.0859" cy="1247.1719" r="14.1719" fill="#000000"/>
<circle cx="3415.5313" cy="1247.1719" r="14.1719" fill="#000000"/>
<g>
<circle cx="2480.1641" cy="1403.0625" r="14.1719" stroke="#000000" stroke-width="5" stroke-linejoin="miter" fill="#000000"/>
<path d="M2565.1172 1374.6719 2480.1719 1403.0625" stroke="#000000" stroke-width="15" stroke-linejoin="miter" fill="none"/>
<circle cx="2565.1953" cy="1431.4063" r="14.1719" stroke="#000000" stroke-width="5" stroke-linejoin="miter" fill="#ffffff"/>
<circle cx="2565.1953" cy="1374.7188" r="14.1719" stroke="#000000" stroke-width="5" stroke-linejoin="miter" fill="#ffffff"/>
<g>
<path d="M2522.6016 1459.7031 2522.6016 1425.9297" stroke="#000000" stroke-width="2.5" stroke-linejoin="miter" fill="none"/>
<path transform="matrix(0 -0.0833 0.0833 0 2522.6016 1425.9297)" stroke="none" fill="#000000" d="M-90 -180 360 0 -90 180 0 0 -90 -180 Z"/>
<path d="M2508.4297 1459.7031 2536.7734 1459.7031" stroke="#000000" stroke-width="10" stroke-linejoin="miter" fill="none"/>
</g>
</g>
<g>
<circle cx="2763.6094" cy="1403.0625" r="14.1719" stroke="#000000" stroke-width="5" stroke-linejoin="miter" fill="#000000"/>
<path d="M2763.6094 1403.0625 2848.5547 1431.3594" stroke="#000000" stroke-width="15" stroke-linejoin="miter" fill="none"/>
<circle cx="2848.6406" cy="1431.4063" r="14.1719" stroke="#000000" stroke-width="5" stroke-linejoin="miter" fill="#ffffff"/>
<circle cx="2848.6406" cy="1374.7188" r="14.1719" stroke="#000000" stroke-width="5" stroke-linejoin="miter" fill="#ffffff"/>
<g>
<path d="M2806.0391 1488.0469 2806.0391 1454.2734" stroke="#000000" stroke-width="2.5" stroke-linejoin="miter" fill="none"/>
<path transform="matrix(0 -0.0833 0.0833 0 2806.0391 1454.2734)" stroke="none" fill="#000000" d="M-90 -180 360 0 -90 180 0 0 -90 -180 Z"/>
<path d="M2791.8672 1488.0469 2820.2109 1488.0469" stroke="#000000" stroke-width="10" stroke-linejoin="miter" fill="none"/>
</g>
</g>
<g>
<circle cx="3047.0547" cy="1403.0625" r="14.1719" stroke="#000000" stroke-width="5" stroke-linejoin="miter" fill="#000000"/>
<path d="M3047.0547 1403.0625 3131.9922 1431.3594" stroke="#000000" stroke-width="15" stroke-linejoin="miter" fill="none"/>
<circle cx="3132.0859" cy="1431.4063" r="14.1719" stroke="#000000" stroke-width="5" stroke-linejoin="miter" fill="#ffffff"/>
<circle cx="3132.0859" cy="1374.7188" r="14.1719" stroke="#000000" stroke-width="5" stroke-linejoin="miter" fill="#ffffff"/>
<g>
<path d="M3089.4766 1488.0469 3089.4766 1454.2734" stroke="#000000" stroke-width="2.5" stroke-linejoin="miter" fill="none"/>
<path transform="matrix(0 -0.0833 0.0833 0 3089.4766 1454.2734)" stroke="none" fill="#000000" d="M-90 -180 360 0 -90 180 0 0 -90 -180 Z"/>
<path d="M3075.3047 1488.0469 3103.6484 1488.0469" stroke="#000000" stroke-width="10" stroke-linejoin="miter" fill="none"/>
</g>
</g>
<g>
<circle cx="3330.5" cy="1403.0625" r="14.1719" stroke="#000000" stroke-width="5" stroke-linejoin="miter" fill="#000000"/>
<path d="M3330.5 1403.0625 3415.4297 1431.3594" stroke="#000000" stroke-width="15" stroke-linejoin="miter" fill="none"/>
<circle cx="3415.5313" cy="1431.4063" r="14.1719" stroke="#000000" stroke-width="5" stroke-linejoin="miter" fill="#ffffff"/>
<circle cx="3415.5313" cy="1374.7188" r="14.1719" stroke="#000000" stroke-width="5" stroke-linejoin="miter" fill="#ffffff"/>
<g>
<path d="M3372.9141 1488.0469 3372.9141 1454.2734" stroke="#000000" stroke-width="2.5" stroke-linejoin="miter" fill="none"/>
<path transform="matrix(0 -0.0833 0.0833 0 3372.9141 1454.2734)" stroke="none" fill="#000000" d="M-90 -180 360 0 -90 180 0 0 -90 -180 Z"/>
<path d="M3358.7422 1488.0469 3387.0859 1488.0469" stroke="#000000" stroke-width="10" stroke-linejoin="miter" fill="none"/>
</g>
</g>
<circle cx="1927.4453" cy="1403.0625" r="28.3438" stroke="#000000" stroke-width="5" fill="#ffffff"/>
<circle cx="1927.4453" cy="1530.6172" r="28.3438" stroke="#000000" stroke-width="5" fill="#ffffff"/>
<circle cx="1927.4453" cy="1658.1641" r="28.3438" stroke="#000000" stroke-width="5" fill="#ffffff"/>
<circle cx="1927.4453" cy="1785.7188" r="28.3438" stroke="#000000" stroke-width="5" fill="#ffffff"/>
<circle cx="1927.4453" cy="1913.2656" r="28.3438" stroke="#000000" stroke-width="5" fill="#ffffff"/>
<circle cx="1927.4453" cy="2040.8203" r="28.3438" stroke="#000000" stroke-width="5" fill="#ffffff"/>
<circle cx="2125.8516" cy="1403.0625" r="28.3438" stroke="#000000" stroke-width="5" fill="#ffffff"/>
<circle cx="2125.8516" cy="1530.6172" r="28.3438" stroke="#000000" stroke-width="5" fill="#ffffff"/>
<circle cx="2125.8516" cy="1658.1641" r="28.3438" stroke="#000000" stroke-width="5" fill="#ffffff"/>
<circle cx="2125.8516" cy="1785.7188" r="28.3438" stroke="#000000" stroke-width="5" fill="#ffffff"/>
<circle cx="2125.8516" cy="1913.2656" r="28.3438" stroke="#000000" stroke-width="5" fill="#ffffff"/>
<circle cx="2125.8516" cy="2040.8203" r="28.3438" stroke="#000000" stroke-width="5" fill="#ffffff"/>
<path d="M3854.75 1452.6172 3854.75 1899.0313" stroke="#000000" stroke-width="5" stroke-linejoin="miter" fill="none"/>
<path d="M3684.8125 2125.8516 3684.6875 2040.75" stroke="#000000" stroke-width="5" stroke-linejoin="miter" fill="none"/>
<path d="M3684.6875 1459.7031 3684.6875 1899.0313" stroke="#000000" stroke-width="5" stroke-linejoin="miter" fill="none"/>
<path d="M3684.8125 2125.8516 3854.75 2125.7813 3854.75 2012.4063" stroke="#000000" stroke-width="5" stroke-linejoin="miter" fill="none"/>
<circle cx="3684.8125" cy="2125.8516" r="14.1719" fill="#000000"/>
<circle cx="3854.8906" cy="2012.4766" r="17.6094" stroke="#000000" stroke-width="5" stroke-linejoin="miter" fill="#ffffff"/>
<circle cx="3854.8906" cy="1899.1016" r="17.6094" stroke="#000000" stroke-width="5" stroke-linejoin="miter" fill="#ffffff"/>
<g>
<path d="M3656.4688 2040.8125 3713.1563 2040.8125" stroke="#000000" stroke-width="15" fill="none"/>
<path d="M3599.7813 2012.4688 3688.6406 2012.4688 3769.8438 2012.4688" stroke="#000000" stroke-width="7.5" fill="none"/>
<path d="M3656.4688 1927.4375 3713.1563 1927.4375" stroke="#000000" stroke-width="15" fill="none"/>
<path d="M3599.7813 1899.0938 3769.8438 1899.0938" stroke="#000000" stroke-width="7.5" fill="none"/>
<path d="M3684.8125 2012.4688 3684.8125 1927.4375" stroke="#000000" stroke-width="5" stroke-dasharray="12" fill="none"/>
<path d="M3698.9844 2069.1641 3727.3281 2069.1641" stroke="#000000" stroke-width="2.5" stroke-linejoin="miter" fill="none"/>
<g>
<path d="M3698.9844 1870.75 3727.3281 1870.75" stroke="#000000" stroke-width="2.5" stroke-linejoin="miter" fill="none"/>
<path d="M3713.1563 1884.9219 3713.1563 1856.5781" stroke="#000000" stroke-width="2.5" stroke-linejoin="miter" fill="none"/>
</g>
</g>
<path d="M3684.6875 1785.6563 3741.375 1785.6563 3741.375 1473.875" stroke="#000000" stroke-width="5" stroke-linejoin="miter" fill="none"/>
<rect x="3720.1172" y="1587.25" width="42.5156" height="99.2031" stroke="#000000" stroke-width="5" stroke-linejoin="miter" fill="#ffffff"/>
<circle cx="3684.8125" cy="1785.7266" r="14.1719" fill="#000000"/>
<path d="M3755.6719 1360.5547 3684.6875 1445.5313" stroke="#000000" stroke-width="15" stroke-linejoin="miter" fill="none"/>
<circle cx="3755.6797" cy="1360.5547" r="17.6094" stroke="#000000" stroke-width="5" stroke-linejoin="miter" fill="#000000"/>
<circle cx="3741.5078" cy="1473.9297" r="17.6094" stroke="#000000" stroke-width="5" stroke-linejoin="miter" fill="#ffffff"/>
<circle cx="3798.2031" cy="1473.9297" r="17.6094" stroke="#000000" stroke-width="5" stroke-linejoin="miter" fill="#ffffff"/>
<circle cx="3684.8203" cy="1445.5859" r="17.6094" stroke="#000000" stroke-width="5" stroke-linejoin="miter" fill="#ffffff"/>
<circle cx="3854.8828" cy="1445.5859" r="17.6094" stroke="#000000" stroke-width="5" stroke-linejoin="miter" fill="#ffffff"/>
<g>
<path d="M3582.5469 2199.0781 3590.9453 2199.0781 C3600.4688 2199.0781 3607.3984 2197.75 3607.3984 2189.1328 3607.3984 2181.3672 3602.3594 2179.0547 3593.6797 2179.1953 L3582.5469 2179.1953 3582.5469 2199.0781 Z M3582.5469 2203.2734 3582.5469 2221.3359 3593.3281 2221.3359 C3599.2734 2221.2656 3605.2969 2219.7969 3605.2969 2212.4453 3605.2969 2205.5859 3599.4141 2203.2734 3593.5391 2203.2734 L3582.5469 2203.2734 Z M3597.25 2175 C3608.2344 2175 3612.2969 2181.8594 3612.2969 2188.5078 3612.2969 2195.7188 3607.6797 2200.1953 3600.8125 2201.3125 L3600.8125 2201.4531 C3606.1328 2202.7188 3610.1953 2207.2656 3610.1953 2212.8672 3610.1953 2220.9141 3603.6172 2225.4688 3596.125 2225.4688 L3578 2225.5391 3578 2175 3597.25 2175 Z" fill="#000000"/>
<path d="M3625.0625 2184.7969 C3625.0625 2193.6172 3637.5234 2192.5 3643.4766 2192.7031 3643.8984 2185.3594 3642.1484 2177.7969 3632.9766 2177.7969 3628.7031 2177.7969 3625.0625 2180.0391 3625.0625 2184.7969 L3625.0625 2184.7969 Z M3643.4766 2196.5547 C3638.3672 2196.2734 3632.2734 2196.9766 3627.5859 2194.9453 3623.3828 2193.1953 3620.5156 2189.5547 3620.5156 2184.7969 3620.5156 2177.9375 3625.6953 2173.9453 3632.2031 2173.9453 3636.9688 2173.9453 3641.6563 2176.75 3643.1953 2179.6875 L3643.4063 2180.1797 3643.5469 2180.1797 3643.6875 2175 3648.0234 2175 C3647.8828 2177.375 3647.6094 2180.1797 3647.6797 2182.9063 L3647.6797 2199.5625 C3647.8125 2207.6172 3642.9844 2211.1875 3635.2188 2211.1875 3628.5 2211.1875 3623.1094 2208.4531 3622.0547 2201.25 L3626.5391 2201.25 C3627.0938 2206.0078 3630.7344 2207.3359 3635.1484 2207.3359 3640.1172 2207.3359 3643.0547 2205.5156 3643.4766 2199.7734 L3643.4766 2196.5547 Z" fill="#000000"/>
<path d="M3661.6094 2184.375 C3661.6094 2179.6172 3661.1172 2173.9453 3670.0078 2173.9453 3671.4063 2173.9453 3672.9453 2174.2266 3674.2734 2174.5781 L3674.2734 2178.2188 C3673.1563 2177.8672 3671.8984 2177.7969 3670.6328 2177.7969 3667.4141 2177.7969 3665.7344 2179.5469 3665.8047 2182.7656 L3665.8047 2206.2891 3673.7891 2206.2891 3673.7891 2210.1328 3665.8047 2210.1328 3665.8047 2219.4453 3661.6094 2217.625 3661.6094 2210.1328 3654.6094 2210.1328 3654.6094 2206.2891 3661.6094 2206.2891 3661.6094 2184.375 Z" fill="#000000"/>
<path d="M3684.6094 2184.375 C3684.6094 2179.6172 3684.1172 2173.9453 3693.0078 2173.9453 3694.4063 2173.9453 3695.9453 2174.2266 3697.2734 2174.5781 L3697.2734 2178.2188 C3696.1563 2177.8672 3694.8984 2177.7969 3693.6328 2177.7969 3690.4141 2177.7969 3688.7344 2179.5469 3688.8047 2182.7656 L3688.8047 2206.2891 3696.7891 2206.2891 3696.7891 2210.1328 3688.8047 2210.1328 3688.8047 2219.4453 3684.6094 2217.625 3684.6094 2210.1328 3677.6094 2210.1328 3677.6094 2206.2891 3684.6094 2206.2891 3684.6094 2184.375 Z" fill="#000000"/>
<path d="M3734.2031 2191.5859 C3734.2031 2202.5781 3729.9375 2211.1875 3718.1797 2211.1875 3707.75 2211.1875 3702.5 2202.0859 3702.5 2192.5625 3702.5 2182.9766 3707.3984 2173.9453 3717.8984 2173.9453 3726.3672 2173.9453 3731.6172 2177.7969 3733.7891 2186.1953 L3729.375 2186.1953 C3728.3281 2181.3672 3724.1953 2177.7969 3719.2266 2177.7969 3710.6172 2177.7969 3707.1875 2184.0938 3707.0469 2191.5859 L3734.2031 2191.5859 Z M3707.1875 2195.4375 C3707.75 2201.5938 3711.3828 2207.3359 3718.25 2207.3359 3725.5234 2207.3359 3729.1641 2202.2266 3729.6563 2195.4375 L3707.1875 2195.4375 Z" fill="#000000"/>
<path d="M3747.7969 2196.1328 C3747.9375 2202.8594 3751.2266 2207.3359 3757.4531 2207.3359 3758.2969 2207.3359 3759.2031 2207.125 3760.0469 2207.0547 L3760.0469 2211.1172 C3758.6484 2211.1875 3757.25 2211.2578 3755.8438 2211.1875 3752.3438 2211.0469 3749.1953 2208.5234 3747.9375 2204.9531 L3747.7969 2204.9531 3747.5859 2210.1328 3743.25 2210.1328 C3743.3828 2207.7578 3743.6641 2204.9531 3743.5938 2202.2266 L3743.5938 2175 3747.7969 2175 3747.7969 2196.1328 Z" fill="#000000"/>
<path d="M3761.5547 2210.1328 3776.1172 2175 3770.7969 2161.5547 3775.4141 2161.5547 3794.8047 2210.1328 3790.2578 2210.1328 3778.5 2180.7344 3766.6641 2210.1328 3761.5547 2210.1328 Z" fill="#000000"/>
</g>
<g>
<path d="M3823.5469 1363.3359 3834.6094 1363.3359 C3841.3984 1363.3359 3847.4141 1361.1641 3847.4141 1353.2578 3847.4141 1345.3438 3841.3984 1343.1797 3834.6094 1343.1797 L3823.5469 1343.1797 3823.5469 1363.3359 Z M3823.5469 1317 3823.5469 1338.9766 3831.6641 1338.9766 C3841.3984 1338.7656 3852.3125 1341.2188 3852.3125 1353.2578 3852.3125 1365.2969 3841.3984 1367.75 3831.6641 1367.5391 L3819 1367.5391 3819 1317 3823.5469 1317 Z" fill="#000000"/>
<path d="M3886.2891 1334.5625 C3886.2891 1328.0547 3882.9297 1319.7969 3874.4531 1319.7969 3865.9844 1319.7969 3862.625 1328.0547 3862.625 1334.5625 3862.625 1341.0781 3865.9844 1349.3359 3874.4531 1349.3359 3882.9297 1349.3359 3886.2891 1341.0781 3886.2891 1334.5625 L3886.2891 1334.5625 Z M3874.4531 1353.1875 C3863.2578 1353.1875 3858.0781 1343.8047 3858.0781 1334.5625 3858.0781 1325.3281 3863.2578 1315.9453 3874.4531 1315.9453 3885.6563 1315.9453 3890.8359 1325.3281 3890.8359 1334.5625 3890.8359 1343.8047 3885.6563 1353.1875 3874.4531 1353.1875 L3874.4531 1353.1875 Z" fill="#000000"/>
<path d="M3898.7344 1352.1328 3894.1172 1352.1328 3907 1317 3911.2656 1317 3922.2578 1347.3047 3922.3984 1347.3047 3933.1797 1317 3937.1641 1317 3950.2578 1352.1328 3945.6328 1352.1328 3935.4844 1322.8047 3935.3438 1322.8047 3924.9844 1352.1328 3920.0156 1352.1328 3909.375 1322.5234 3909.2344 1322.5234 3898.7344 1352.1328 Z" fill="#000000"/>
<path d="M3987.2031 1333.5859 C3987.2031 1344.5781 3982.9375 1353.1875 3971.1797 1353.1875 3960.75 1353.1875 3955.5 1344.0859 3955.5 1334.5625 3955.5 1324.9766 3960.3984 1315.9453 3970.8984 1315.9453 3979.3672 1315.9453 3984.6172 1319.7969 3986.7891 1328.1953 L3982.375 1328.1953 C3981.3281 1323.3672 3977.1953 1319.7969 3972.2266 1319.7969 3963.6172 1319.7969 3960.1875 1326.0938 3960.0469 1333.5859 L3987.2031 1333.5859 Z M3960.1875 1337.4375 C3960.75 1343.5938 3964.3828 1349.3359 3971.25 1349.3359 3978.5234 1349.3359 3982.1641 1344.2266 3982.6563 1337.4375 L3960.1875 1337.4375 Z" fill="#000000"/>
<path d="M4000.7969 1338.1328 C4000.9375 1344.8594 4004.2266 1349.3359 4010.4531 1349.3359 4011.2969 1349.3359 4012.2031 1349.125 4013.0469 1349.0547 L4013.0469 1353.1172 C4011.6484 1353.1875 4010.25 1353.2578 4008.8438 1353.1875 4005.3438 1353.0469 4002.1953 1350.5234 4000.9375 1346.9531 L4000.7969 1346.9531 4000.5859 1352.1328 3996.25 1352.1328 C3996.3828 1349.7578 3996.6641 1346.9531 3996.5938 1344.2266 L3996.5938 1317 4000.7969 1317 4000.7969 1338.1328 Z" fill="#000000"/>
</g>
<g>
<path d="M3901.5469 1980.3359 3912.6094 1980.3359 C3919.3984 1980.3359 3925.4141 1978.1641 3925.4141 1970.2578 3925.4141 1962.3438 3919.3984 1960.1797 3912.6094 1960.1797 L3901.5469 1960.1797 3901.5469 1980.3359 Z M3901.5469 1934 3901.5469 1955.9766 3909.6641 1955.9766 C3919.3984 1955.7656 3930.3125 1958.2188 3930.3125 1970.2578 3930.3125 1982.2969 3919.3984 1984.75 3909.6641 1984.5391 L3897 1984.5391 3897 1934 3901.5469 1934 Z" fill="#ff0000"/>
</g>
<g>
<path d="M3787.7578 1643.2734 3787.7578 1661.3359 3797.9766 1661.3359 C3802.8047 1661.3359 3811.9063 1662.0391 3811.9063 1652.3047 3811.9063 1643.6953 3803.9297 1643.2734 3797.4844 1643.2734 L3787.7578 1643.2734 Z M3787.7578 1639.0781 3800.2891 1639.0781 C3809.4531 1639.0781 3810.1563 1637.0469 3811.2031 1625.5 3811.4844 1621.9297 3811.7656 1618.3594 3812.9531 1615 L3818.2031 1615 C3816.1797 1618.0781 3816.4531 1621.8594 3815.5469 1630.0469 3814.9141 1635.9297 3813.5156 1640.2656 3807.0781 1641.3125 L3807.0781 1641.4531 C3812.9531 1642.9297 3816.8047 1646.8438 3816.8047 1652.3047 3816.8047 1657.1328 3815.125 1660.7734 3811.625 1662.875 3807.7734 1665.2578 3804.1328 1665.5391 3799.7266 1665.5391 L3783.2031 1665.5391 3783.2031 1615 3787.7578 1615 3787.7578 1639.0781 Z" fill="#000000"/>
</g>
</g>
</svg>
